<?xml version="1.0" encoding="UTF-8"?>
<svg width="720" height="512" viewBox="0 0 720 512" xmlns="http://www.w3.org/2000/svg" role="img" aria-labelledby="title desc">
  <title id="title">UI icon: Lina the Hiker Girl at a desk (compliance)</title>
  <desc id="desc">Simplified, flat icon suited for software UI with crisp paths and minimal detail.</desc>
  <rect width="720" height="512" fill="#FFFFFF"/>
  <!-- desk -->
  <rect x="64" y="340" width="592" height="80" rx="10" fill="#D5A979" stroke="#232323" stroke-width="6"/>
  <!-- laptop (minimal) -->
  <rect x="120" y="300" width="130" height="38" rx="6" fill="#777"/>
  <rect x="140" y="230" width="160" height="80" rx="12" fill="#C9D2D8" stroke="#232323" stroke-width="6"/>
  <circle cx="220" cy="270" r="6" fill="#232323"/>
  <!-- papers -->
  <g font-family="Inter, Arial, sans-serif" font-weight="800" fill="#111" stroke="#232323" stroke-width="5">
    <rect x="330" y="248" width="120" height="72" rx="8" fill="#FFFFFF"/>
    <text x="390" y="292" text-anchor="middle" font-size="18">COMPLIANCE</text>
    <rect x="468" y="248" width="120" height="72" rx="8" fill="#FFFFFF"/>
    <text x="528" y="292" text-anchor="middle" font-size="18">SECURITY</text>
  </g>
  <!-- Lina (iconic) -->
  <g stroke="#232323" stroke-width="8" stroke-linejoin="round" stroke-linecap="round">
    <!-- torso -->
    <rect x="300" y="160" width="140" height="90" rx="18" fill="#F04B3C"/>
    <!-- shorts -->
    <rect x="325" y="250" width="90" height="48" rx="10" fill="#2E5979"/>
    <!-- arms -->
    <path d="M310,190 q-35,18 -30,46 32,6 54,-6" fill="#F3C7A4"/>
    <path d="M458,190 q35,18 30,46 -32,6 -54,-6" fill="#F3C7A4"/>
    <!-- hands -->
    <circle cx="360" cy="225" r="14" fill="#F3C7A4"/>
    <circle cx="420" cy="225" r="14" fill="#F3C7A4"/>
    <!-- carabiners (simplified) -->
    <g fill="none" stroke="#3D3D3D" stroke-width="10">
      <path d="M364,225 a18,18 0 1 1 0.1,0"/>
      <path d="M416,225 a18,18 0 1 1 0.1,0"/>
      <line x1="382" y1="225" x2="398" y2="225"/>
    </g>
    <!-- backpack (simple) -->
    <rect x="454" y="168" width="60" height="88" rx="18" fill="#F2B600"/>
    <!-- head -->
    <circle cx="370" cy="128" r="40" fill="#F3C7A4"/>
    <!-- hair -->
    <path d="M332,116 q38-26 84,0 v20 q-14,22 -84,22 z" fill="#5A3A2A"/>
    <!-- face -->
    <circle cx="356" cy="128" r="5" fill="#232323"/>
    <circle cx="384" cy="128" r="5" fill="#232323"/>
    <path d="M355,142 q15,12 30,0" fill="none"/>
    <!-- hat -->
    <g fill="#F2C94C">
      <ellipse cx="370" cy="96" rx="78" ry="22"/>
      <rect x="330" y="88" width="80" height="22" rx="10"/>
    </g>
    <!-- boots (minimal) -->
    <rect x="320" y="388" width="62" height="24" rx="6" fill="#7A4C2E"/>
    <rect x="392" y="388" width="68" height="24" rx="6" fill="#7A4C2E"/>
    <!-- legs (implied) -->
    <line x1="350" y1="340" x2="350" y2="388"/>
    <line x1="420" y1="340" x2="420" y2="388"/>
    <!-- straps -->
    <line x1="340" y1="160" x2="340" y2="210"/>
    <line x1="400" y1="160" x2="400" y2="210"/>
  </g>
</svg>
