<?xml version="1.0" encoding="UTF-8" standalone="no"?>
<!-- Created with Inkscape (http://www.inkscape.org/) -->

<svg
   width="188.18501mm"
   height="66.576401mm"
   viewBox="0 0 188.18501 66.576401"
   version="1.1"
   id="svg1"
   xml:space="preserve"
   xmlns="http://www.w3.org/2000/svg"
   xmlns:svg="http://www.w3.org/2000/svg"><defs
     id="defs1" /><g
     id="layer1"
     transform="translate(211.13746,-459.38668)"><g
       id="g33"
       transform="translate(0,154.78125)"
       style="fill:#b24202;fill-opacity:1"><g
         id="g32"
         transform="matrix(2.6061721,0,0,2.6061721,-303.91524,-264.82628)"
         style="fill:#b24202;fill-opacity:1"><path
           id="path31"
           style="fill:#b24202;fill-opacity:1;stroke-width:0.0735119"
           d="m 46.444711,218.49362 c -2.602423,0.016 -9.854739,1.9837 -10.845463,2.2111 0.01778,3.31903 0.045,8.7169 0.04939,11.76867 0.0075,5.2043 7.186765,11.56034 10.775683,11.56579 3.58892,0.005 11.10227,-6.30024 11.104907,-11.47792 0.04788,-3.11083 -0.09029,-7.43282 -0.04379,-11.78533 -0.972451,-0.33302 -8.438304,-2.29828 -11.040729,-2.28231 z m 0.02112,1.38897 c 1.36964,-0.0119 8.982671,2.03412 9.790018,2.3106 -0.03861,3.61353 0.07607,7.56558 0.03632,10.14825 -0.0022,4.2986 -6.863701,10.41739 -9.843286,10.41286 -2.979586,-0.005 -9.459769,-6.16509 -9.465964,-10.4858 -0.0036,-2.53363 0.181735,-7.58684 0.166982,-10.34236 0.822516,-0.18879 7.946287,-2.03168 9.315925,-2.04355 z m 0.07409,1.31015 c -0.331884,0.16277 -5.736832,1.44867 -8.04569,2.27672 0.0092,1.71677 -0.08708,7.20659 -0.08485,8.78512 0,4.87155 6.254652,9.03802 8.111016,9.04082 1.856365,0.003 8.143979,-4.26438 8.14648,-9.35928 0.02475,-1.60908 -0.04359,-6.08668 -0.01953,-8.33801 -0.549757,-0.43354 -7.709063,-2.21506 -8.107426,-2.40537 z m -0.01134,1.74821 c 2.139531,-0.0131 6.235919,1.58207 6.841784,1.78956 -0.02897,2.71173 0.05726,5.40445 0.02742,7.34258 -0.0017,3.22584 -4.682746,7.66903 -6.918743,7.66564 -2.235998,-0.003 -6.708907,-4.47792 -6.713572,-7.72034 -0.0028,-1.90134 -0.01964,-5.2644 -0.03072,-7.33225 0.617251,-0.14168 4.654298,-1.73206 6.793829,-1.74519 z" /><rect
           style="fill:#b24202;fill-opacity:1;stroke-width:0.0987365"
           id="rect31"
           width="5.9842877"
           height="7.4025469"
           x="52.648476"
           y="225.06053" /></g><path
         style="font-weight:bold;font-size:26.2905px;font-family:Ubuntu;-inkscape-font-specification:'Ubuntu, Light';fill:#ffffff;fill-opacity:1;stroke-width:0.616182"
         d="m -139.3142,334.17126 q 0,-1.49856 0.47323,-2.81308 0.49952,-1.34082 1.41969,-2.31357 0.92017,-0.99904 2.23469,-1.57743 1.31453,-0.57839 2.99712,-0.57839 1.1042,0 2.02437,0.21033 0.92017,0.18403 1.78775,0.5521 l -0.815,3.12857 q -0.5521,-0.21033 -1.20937,-0.36807 -0.65726,-0.15774 -1.47226,-0.15774 -1.73518,0 -2.60276,1.07791 -0.8413,1.07791 -0.8413,2.83937 0,1.86663 0.78871,2.89196 0.81501,1.02533 2.81309,1.02533 0.70984,0 1.52485,-0.13146 0.815,-0.13145 1.49856,-0.42064 l 0.5521,3.20744 q -0.68356,0.28919 -1.70889,0.49952 -1.02533,0.21032 -2.26098,0.21032 -1.89292,0 -3.26002,-0.5521 -1.36711,-0.57839 -2.26098,-1.55114 -0.86759,-0.97275 -1.28824,-2.28727 -0.39436,-1.34082 -0.39436,-2.89196 z m 18.42966,4.18019 q 0.57839,0 1.1042,-0.0263 0.52581,-0.0263 0.84129,-0.0789 v -2.97083 q -0.23661,-0.0526 -0.70984,-0.10516 -0.47323,-0.0526 -0.86759,-0.0526 -0.5521,0 -1.05162,0.0789 -0.47323,0.0526 -0.84129,0.23662 -0.36807,0.18403 -0.5784,0.49951 -0.21032,0.31549 -0.21032,0.78872 0,0.92017 0.60468,1.28823 0.63097,0.34178 1.70889,0.34178 z m -0.31549,-11.46266 q 1.73517,0 2.89195,0.39436 1.15679,0.39436 1.84034,1.13049 0.70984,0.73614 0.99904,1.78776 0.28919,1.05162 0.28919,2.33985 v 8.15006 q -0.84129,0.18403 -2.33985,0.42064 -1.49856,0.26291 -3.62809,0.26291 -1.34082,0 -2.44502,-0.23662 -1.07791,-0.23661 -1.86662,-0.76242 -0.78872,-0.5521 -1.20937,-1.41969 -0.42064,-0.86758 -0.42064,-2.12953 0,-1.20936 0.47323,-2.05066 0.49952,-0.84129 1.31452,-1.34081 0.81501,-0.49952 1.86663,-0.70985 1.05162,-0.23661 2.18211,-0.23661 0.76242,0 1.34081,0.0789 0.60469,0.0526 0.97275,0.15774 v -0.36806 q 0,-0.99904 -0.60468,-1.60372 -0.60468,-0.60469 -2.10324,-0.60469 -0.99904,0 -1.97179,0.15775 -0.97275,0.13145 -1.68259,0.39436 l -0.49952,-3.15486 q 0.34178,-0.10517 0.8413,-0.21033 0.52581,-0.13145 1.13049,-0.21032 0.60468,-0.10517 1.26194,-0.15775 0.68356,-0.0789 1.36711,-0.0789 z m 17.90382,3.83842 q -0.52581,-0.13146 -1.23566,-0.26291 -0.70984,-0.15774 -1.52485,-0.15774 -0.36806,0 -0.89387,0.0789 -0.49952,0.0526 -0.76243,0.13145 v 10.56878 h -3.91728 v -13.09267 q 1.05162,-0.36806 2.4713,-0.68355 1.44598,-0.34178 3.20744,-0.34178 0.31549,0 0.76243,0.0526 0.44694,0.0263 0.89388,0.10517 0.44693,0.0526 0.89387,0.15774 0.44694,0.0789 0.76243,0.21032 z m 7.782001,7.62424 q 0.578391,0 1.104201,-0.0263 0.52581,-0.0263 0.841296,-0.0789 v -2.97083 q -0.236615,-0.0526 -0.709844,-0.10516 -0.473229,-0.0526 -0.867586,-0.0526 -0.552101,0 -1.05162,0.0789 -0.473229,0.0526 -0.841296,0.23662 -0.368067,0.18403 -0.578391,0.49951 -0.210324,0.31549 -0.210324,0.78872 0,0.92017 0.604681,1.28823 0.630972,0.34178 1.708883,0.34178 z m -0.315486,-11.46266 q 1.735173,0 2.891955,0.39436 1.156782,0.39436 1.840335,1.13049 0.709843,0.73614 0.999039,1.78776 0.289195,1.05162 0.289195,2.33985 v 8.15006 q -0.841296,0.18403 -2.339854,0.42064 -1.498559,0.26291 -3.628089,0.26291 -1.340816,0 -2.445017,-0.23662 -1.077911,-0.23661 -1.866629,-0.76242 -0.78871,-0.5521 -1.20936,-1.41969 -0.42065,-0.86758 -0.42065,-2.12953 0,-1.20936 0.47323,-2.05066 0.49952,-0.84129 1.314526,-1.34081 0.815006,-0.49952 1.866626,-0.70985 1.05162,-0.23661 2.182112,-0.23661 0.762424,0 1.340815,0.0789 0.604682,0.0526 0.972749,0.15774 v -0.36806 q 0,-0.99904 -0.604682,-1.60372 -0.604681,-0.60469 -2.10324,-0.60469 -0.999039,0 -1.971787,0.15775 -0.972749,0.13145 -1.682593,0.39436 l -0.499516,-3.15486 q 0.34177,-0.10517 0.841293,-0.21033 0.52581,-0.13145 1.130492,-0.21032 0.604681,-0.10517 1.261944,-0.15775 0.683553,-0.0789 1.367106,-0.0789 z m 18.429629,7.17731 q 0,-3.78583 -2.786793,-3.78583 -0.604682,0 -1.209363,0.15774 -0.578391,0.15774 -0.946458,0.39436 v 7.12472 q 0.289195,0.0526 0.736134,0.10517 0.446938,0.0263 0.972748,0.0263 1.603721,0 2.418726,-1.10421 0.815006,-1.1042 0.815006,-2.91824 z m 3.996156,0.10516 q 0,1.6563 -0.499519,2.99712 -0.47323,1.34081 -1.393397,2.28727 -0.920168,0.94646 -2.260983,1.47227 -1.340816,0.49952 -3.049698,0.49952 -0.709844,0 -1.498559,-0.0789 -0.762424,-0.0526 -1.524849,-0.15775 -0.736134,-0.10516 -1.419687,-0.23661 -0.683553,-0.15774 -1.209363,-0.31549 v -19.32351 l 3.917285,-0.63098 v 6.88812 q 0.657262,-0.2892 1.367106,-0.44694 0.709843,-0.15775 1.524849,-0.15775 1.472268,0 2.602759,0.52581 1.130492,0.49952 1.892916,1.44598 0.762425,0.94646 1.156783,2.28728 0.394357,1.31452 0.394357,2.94453 z m 6.940697,6.9144 h -3.917285 v -13.8288 h 3.917285 z m 0.368067,-17.82496 q 0,1.07791 -0.709844,1.70889 -0.683553,0.60468 -1.630011,0.60468 -0.946458,0 -1.656301,-0.60468 -0.683553,-0.63098 -0.683553,-1.70889 0,-1.07791 0.683553,-1.68259 0.709843,-0.63097 1.656301,-0.63097 0.946458,0 1.630011,0.63097 0.709844,0.60468 0.709844,1.68259 z m 3.312587,4.46939 q 0.999039,-0.2892 2.576469,-0.52581 1.57743,-0.26291 3.312603,-0.26291 1.761463,0 2.918245,0.47323 1.183073,0.44694 1.866626,1.28824 0.683553,0.84129 0.972749,1.99808 0.289195,1.15678 0.289195,2.57646 v 7.80828 h -3.917285 v -7.33505 q 0,-1.89291 -0.499519,-2.68163 -0.49952,-0.78871 -1.866626,-0.78871 -0.420648,0 -0.893877,0.0526 -0.473229,0.0263 -0.841296,0.0789 v 10.67394 h -3.917284 z m 14.82786,6.54633 q 0,-1.84033 0.5521,-3.20744 0.578391,-1.39339 1.498559,-2.31356 0.920167,-0.92017 2.10324,-1.3934 1.209363,-0.47323 2.471307,-0.47323 2.944536,0 4.653419,1.81405 1.708882,1.78775 1.708882,5.28439 0,0.34177 -0.02629,0.76242 -0.02629,0.39436 -0.05258,0.70985 h -8.886189 q 0.131452,1.20936 1.130491,1.9192 0.999039,0.70985 2.681631,0.70985 1.077911,0 2.10324,-0.18404 1.05162,-0.21032 1.708883,-0.49952 l 0.52581,3.18115 q -0.315486,0.15775 -0.841296,0.31549 -0.52581,0.15774 -1.183073,0.2629 -0.630972,0.13146 -1.367106,0.21033 -0.736134,0.0789 -1.472268,0.0789 -1.866625,0 -3.260022,-0.5521 -1.367106,-0.5521 -2.287274,-1.49856 -0.893877,-0.97275 -1.340815,-2.28727 -0.420648,-1.31453 -0.420648,-2.83938 z m 9.201675,-1.49856 q -0.02629,-0.49951 -0.184033,-0.97274 -0.131453,-0.47323 -0.446939,-0.8413 -0.289195,-0.36807 -0.762424,-0.60468 -0.446939,-0.23662 -1.130492,-0.23662 -0.657262,0 -1.130491,0.23662 -0.473229,0.21032 -0.788715,0.57839 -0.315486,0.36807 -0.49952,0.86759 -0.157743,0.47323 -0.236614,0.97274 z m 15.143321,-2.05065 q -0.52581,-0.13146 -1.235653,-0.26291 -0.709844,-0.15774 -1.524849,-0.15774 -0.368067,0 -0.893877,0.0789 -0.49952,0.0526 -0.762425,0.13145 v 10.56878 h -3.917284 v -13.09267 q 1.05162,-0.36806 2.471307,-0.68355 1.445977,-0.34178 3.207441,-0.34178 0.315486,0 0.762424,0.0526 0.446939,0.0263 0.893877,0.10517 0.446939,0.0526 0.893877,0.15774 0.446939,0.0789 0.762425,0.21032 z"
         id="path32"
         aria-label="carabiner" /><path
         d="m -134.29094,357.90851 q 1.10463,0 1.81475,-0.35505 0.72984,-0.37479 0.72984,-1.24271 0,-0.41424 -0.13807,-0.71012 -0.11836,-0.29588 -0.41424,-0.53259 -0.29588,-0.2367 -0.78902,-0.45368 -0.47341,-0.21698 -1.18353,-0.51287 -0.57204,-0.2367 -1.0849,-0.47341 -0.51287,-0.25643 -0.90738,-0.57204 -0.39451,-0.33533 -0.63121,-0.78902 -0.23671,-0.45369 -0.23671,-1.10463 0,-1.2427 0.9271,-2.012 0.94682,-0.76929 2.58404,-0.76929 1.04545,0 1.71612,0.17753 0.69039,0.17753 0.96655,0.31561 l -0.29588,1.14407 q -0.23671,-0.11835 -0.80875,-0.3156 -0.55231,-0.19726 -1.63722,-0.19726 -0.43396,0 -0.82847,0.0986 -0.37478,0.0789 -0.67066,0.27616 -0.29589,0.17753 -0.47342,0.47341 -0.17752,0.27615 -0.17752,0.69039 0,0.41424 0.1578,0.71012 0.1578,0.29588 0.45369,0.53259 0.3156,0.21698 0.74956,0.41423 0.45369,0.19726 1.02573,0.43396 0.59177,0.23671 1.12435,0.49314 0.55232,0.23671 0.96655,0.59177 0.41424,0.33533 0.67067,0.82847 0.25643,0.47341 0.25643,1.20325 0,1.38079 -1.04545,2.09091 -1.02573,0.71011 -2.82075,0.71011 -1.34133,0 -2.05145,-0.2367 -0.71012,-0.21698 -0.94682,-0.33534 l 0.33533,-1.1638 q 0.0592,0.0394 0.25643,0.13808 0.19726,0.0789 0.53259,0.19725 0.33534,0.0986 0.78902,0.17753 0.47341,0.0789 1.0849,0.0789 z m 9.1329,1.12436 q -0.65094,-1.20326 -1.26243,-2.50514 -0.59177,-1.30188 -1.12435,-2.62349 -0.51287,-1.34134 -0.94683,-2.66294 -0.43396,-1.34134 -0.74957,-2.6235 h 1.36106 q 0.21698,0.94683 0.55232,2.05146 0.33533,1.0849 0.74956,2.2487 0.43397,1.16381 0.94683,2.38679 0.51286,1.22298 1.10463,2.40651 0.43396,-1.22298 0.76929,-2.30788 0.33533,-1.08491 0.61149,-2.15008 0.29588,-1.08491 0.55232,-2.20926 0.27615,-1.12435 0.57204,-2.42624 h 1.28215 q -0.63121,2.8602 -1.43996,5.56259 -0.80874,2.7024 -1.75557,4.95111 -0.37478,0.88764 -0.76929,1.51886 -0.39451,0.65094 -0.88765,1.06518 -0.47341,0.41423 -1.12435,0.61149 -0.63122,0.19725 -1.49914,0.19725 -0.49314,0 -0.90737,-0.11835 -0.39451,-0.11835 -0.49314,-0.17753 l 0.25643,-1.06518 q 0.0789,0.0592 0.43396,0.15781 0.37478,0.11835 0.76929,0.11835 0.55232,0 0.98628,-0.11835 0.45369,-0.11836 0.80875,-0.41424 0.35505,-0.27616 0.63121,-0.72984 0.29588,-0.45369 0.57204,-1.14408 z m 8.65951,-1.12436 q 1.10463,0 1.81475,-0.35505 0.72984,-0.37479 0.72984,-1.24271 0,-0.41424 -0.13808,-0.71012 -0.11835,-0.29588 -0.41423,-0.53259 -0.29588,-0.2367 -0.78902,-0.45368 -0.47341,-0.21698 -1.18353,-0.51287 -0.57204,-0.2367 -1.0849,-0.47341 -0.51287,-0.25643 -0.90738,-0.57204 -0.39451,-0.33533 -0.63121,-0.78902 -0.23671,-0.45369 -0.23671,-1.10463 0,-1.2427 0.9271,-2.012 0.94682,-0.76929 2.58404,-0.76929 1.04545,0 1.71612,0.17753 0.69039,0.17753 0.96655,0.31561 l -0.29589,1.14407 q -0.2367,-0.11835 -0.80874,-0.3156 -0.55231,-0.19726 -1.63722,-0.19726 -0.43396,0 -0.82847,0.0986 -0.37478,0.0789 -0.67067,0.27616 -0.29588,0.17753 -0.47341,0.47341 -0.17753,0.27615 -0.17753,0.69039 0,0.41424 0.15781,0.71012 0.1578,0.29588 0.45368,0.53259 0.31561,0.21698 0.74957,0.41423 0.45369,0.19726 1.02573,0.43396 0.59176,0.23671 1.12435,0.49314 0.55232,0.23671 0.96655,0.59177 0.41424,0.33533 0.67067,0.82847 0.25643,0.47341 0.25643,1.20325 0,1.38079 -1.04545,2.09091 -1.02573,0.71011 -2.82075,0.71011 -1.34133,0 -2.05145,-0.2367 -0.71012,-0.21698 -0.94682,-0.33534 l 0.33533,-1.1638 q 0.0592,0.0394 0.25643,0.13808 0.19726,0.0789 0.53259,0.19725 0.33533,0.0986 0.78902,0.17753 0.47341,0.0789 1.0849,0.0789 z m 7.55486,-9.29071 h 4.06345 v 1.08491 h -4.06345 v 5.42451 q 0,0.86792 0.13808,1.42023 0.1578,0.53259 0.43396,0.82848 0.27616,0.29588 0.67067,0.39451 0.39451,0.0986 0.86792,0.0986 0.80874,0 1.30188,-0.17753 0.49314,-0.19725 0.7693,-0.35506 l 0.3156,1.06518 q -0.27615,0.17753 -0.96655,0.41424 -0.69039,0.21698 -1.49913,0.21698 -0.94683,0 -1.59777,-0.23671 -0.63122,-0.25643 -1.02573,-0.74957 -0.37478,-0.51286 -0.53258,-1.26243 -0.15781,-0.74957 -0.15781,-1.77529 v -9.38934 l 1.28216,-0.23671 z m 5.819,5.08918 q 0,-1.34133 0.37479,-2.32761 0.39451,-1.006 1.006,-1.67666 0.63122,-0.67067 1.42024,-0.98628 0.808741,-0.33533 1.656938,-0.33533 1.873922,0 2.97855,1.22298 1.124354,1.22298 1.124354,3.76757 0,0.1578 -0.01973,0.31561 0,0.1578 -0.01973,0.29588 h -7.160362 q 0.0592,1.87392 0.9271,2.87992 0.867925,1.006 2.761574,1.006 1.045451,0 1.656942,-0.19725 0.61149,-0.19726 0.887647,-0.33534 l 0.236706,1.10463 q -0.276157,0.15781 -1.045451,0.37479 -0.749569,0.21698 -1.775295,0.21698 -1.341334,0 -2.288163,-0.39451 -0.94682,-0.39451 -1.55831,-1.10463 -0.61149,-0.71012 -0.88765,-1.67667 -0.27616,-0.98627 -0.27616,-2.15008 z m 7.239263,-0.80874 q -0.03945,-1.59777 -0.749569,-2.48542 -0.710118,-0.88764 -2.012001,-0.88764 -0.690392,0 -1.242707,0.27615 -0.532586,0.27616 -0.946826,0.74957 -0.39451,0.45369 -0.63121,1.06518 -0.21698,0.61149 -0.25644,1.28216 z m 4.181814,-3.92538 q 0.572039,-0.1578 1.479412,-0.35506 0.927099,-0.19725 2.386786,-0.19725 1.933099,0 2.801021,1.12435 0.09863,-0.0789 0.374784,-0.25643 0.295883,-0.19725 0.729844,-0.39451 0.433961,-0.19725 1.006,-0.33533 0.591765,-0.13808 1.301883,-0.13808 1.163805,0 1.873923,0.35506 0.729843,0.33533 1.124353,0.96655 0.39451,0.61149 0.532589,1.47941 0.138078,0.86792 0.138078,1.89365 v 5.70067 h -1.282157 v -5.28644 q 0,-1.006 -0.09863,-1.73584 -0.0789,-0.74957 -0.355059,-1.22298 -0.256431,-0.49314 -0.749569,-0.72985 -0.493137,-0.25643 -1.282157,-0.25643 -0.591765,0 -1.084903,0.11836 -0.473412,0.0986 -0.828471,0.25643 -0.355059,0.1578 -0.591765,0.31561 -0.21698,0.1578 -0.315608,0.2367 0.17753,0.51286 0.256432,1.16381 0.09863,0.63121 0.09863,1.34133 v 5.7993 h -1.282157 v -5.28644 q 0,-1.006 -0.09863,-1.73584 -0.0789,-0.74957 -0.355059,-1.22298 -0.276157,-0.49314 -0.78902,-0.72985 -0.493137,-0.25643 -1.321608,-0.25643 -0.927099,0 -1.57804,0.0986 -0.631216,0.0986 -0.808746,0.17753 v 8.95538 h -1.282157 z m 19.114027,8.93565 q 1.104628,0 1.814746,-0.35505 0.729844,-0.37479 0.729844,-1.24271 0,-0.41424 -0.138079,-0.71012 -0.118353,-0.29588 -0.414235,-0.53259 -0.295883,-0.2367 -0.78902,-0.45368 -0.473412,-0.21698 -1.18353,-0.51287 -0.57204,-0.2367 -1.084903,-0.47341 -0.512863,-0.25643 -0.907373,-0.57204 -0.39451,-0.33533 -0.631216,-0.78902 -0.236706,-0.45369 -0.236706,-1.10463 0,-1.2427 0.927099,-2.012 0.946824,-0.76929 2.58404,-0.76929 1.045452,0 1.716119,0.17753 0.690392,0.17753 0.966549,0.31561 l -0.295882,1.14407 q -0.236706,-0.11835 -0.808746,-0.3156 -0.552314,-0.19726 -1.637216,-0.19726 -0.433961,0 -0.828471,0.0986 -0.374785,0.0789 -0.670667,0.27616 -0.295883,0.17753 -0.473412,0.47341 -0.17753,0.27615 -0.17753,0.69039 0,0.41424 0.157804,0.71012 0.157804,0.29588 0.453687,0.53259 0.315608,0.21698 0.749569,0.41423 0.453686,0.19726 1.025726,0.43396 0.591765,0.23671 1.124353,0.49314 0.552314,0.23671 0.96655,0.59177 0.414235,0.33533 0.670667,0.82847 0.256431,0.47341 0.256431,1.20325 0,1.38079 -1.045451,2.09091 -1.025726,0.71011 -2.820747,0.71011 -1.341334,0 -2.051452,-0.2367 -0.710118,-0.21698 -0.946824,-0.33534 l 0.335334,-1.1638 q 0.05918,0.0394 0.256431,0.13808 0.197255,0.0789 0.532589,0.19725 0.335333,0.0986 0.78902,0.17753 0.473412,0.0789 1.084902,0.0789 z"
         id="path33"
         style="font-weight:300;font-size:19.7255px;font-family:Ubuntu;-inkscape-font-specification:'Ubuntu, Light';fill:#ffffff;fill-opacity:1;stroke-width:0.462314"
         aria-label="systems" /></g></g></svg>
