<?xml version="1.0" encoding="UTF-8" standalone="no"?>
<!-- Created with Inkscape (http://www.inkscape.org/) -->

<svg
   width="213.5567mm"
   height="47.882252mm"
   viewBox="0 0 213.5567 47.882252"
   version="1.1"
   id="svg1"
   xml:space="preserve"
   xmlns="http://www.w3.org/2000/svg"
   xmlns:svg="http://www.w3.org/2000/svg"><defs
     id="defs1" /><g
     id="layer1"
     transform="translate(3.5894975,-457.56955)"><g
       id="g30"><g
         id="g29"
         transform="matrix(1.8743789,0,0,1.8743789,-70.315977,48.029892)"
         style="fill:#b24202;fill-opacity:1"><path
           id="path29"
           style="fill:#b24202;fill-opacity:1;stroke-width:0.0735119"
           d="m 46.444711,218.49362 c -2.602423,0.016 -9.854739,1.9837 -10.845463,2.2111 0.01778,3.31903 0.045,8.7169 0.04939,11.76867 0.0075,5.2043 7.186765,11.56034 10.775683,11.56579 3.58892,0.005 11.10227,-6.30024 11.104907,-11.47792 0.04788,-3.11083 -0.09029,-7.43282 -0.04379,-11.78533 -0.972451,-0.33302 -8.438304,-2.29828 -11.040729,-2.28231 z m 0.02112,1.38897 c 1.36964,-0.0119 8.982671,2.03412 9.790018,2.3106 -0.03861,3.61353 0.07607,7.56558 0.03632,10.14825 -0.0022,4.2986 -6.863701,10.41739 -9.843286,10.41286 -2.979586,-0.005 -9.459769,-6.16509 -9.465964,-10.4858 -0.0036,-2.53363 0.181735,-7.58684 0.166982,-10.34236 0.822516,-0.18879 7.946287,-2.03168 9.315925,-2.04355 z m 0.07409,1.31015 c -0.331884,0.16277 -5.736832,1.44867 -8.04569,2.27672 0.0092,1.71677 -0.08708,7.20659 -0.08485,8.78512 0,4.87155 6.254652,9.03802 8.111016,9.04082 1.856365,0.003 8.143979,-4.26438 8.14648,-9.35928 0.02475,-1.60908 -0.04359,-6.08668 -0.01953,-8.33801 -0.549757,-0.43354 -7.709063,-2.21506 -8.107426,-2.40537 z m -0.01134,1.74821 c 2.139531,-0.0131 6.235919,1.58207 6.841784,1.78956 -0.02897,2.71173 0.05726,5.40445 0.02742,7.34258 -0.0017,3.22584 -4.682746,7.66903 -6.918743,7.66564 -2.235998,-0.003 -6.708907,-4.47792 -6.713572,-7.72034 -0.0028,-1.90134 -0.01964,-5.2644 -0.03072,-7.33225 0.617251,-0.14168 4.654298,-1.73206 6.793829,-1.74519 z" /><rect
           style="fill:#b24202;fill-opacity:1;stroke-width:0.0987365"
           id="rect29"
           width="5.9842877"
           height="7.4025469"
           x="52.648476"
           y="225.06053" /></g><path
         style="font-weight:bold;font-size:36.5795px;font-family:Ubuntu;-inkscape-font-specification:'Ubuntu, Light';fill:#333333;fill-opacity:1;stroke-width:0.857331"
         d="m 48.066358,488.37556 q 0,-2.08503 0.658431,-3.914 0.69501,-1.86556 1.975293,-3.219 1.280282,-1.39002 3.109257,-2.19477 1.828975,-0.80475 4.170063,-0.80475 1.536339,0 2.816621,0.29264 1.280283,0.25606 2.487406,0.76817 l -1.133964,4.35296 q -0.76817,-0.29264 -1.682657,-0.51211 -0.914488,-0.21948 -2.048452,-0.21948 -2.414247,0 -3.62137,1.49976 -1.170544,1.49976 -1.170544,3.95058 0,2.59715 1.097385,4.02375 1.133964,1.4266 3.914006,1.4266 0.987646,0 2.121611,-0.1829 1.133964,-0.1829 2.085031,-0.58527 l 0.76817,4.4627 q -0.951067,0.40237 -2.377668,0.69501 -1.4266,0.29263 -3.145837,0.29263 -2.633723,0 -4.535857,-0.76816 -1.902134,-0.80475 -3.145837,-2.1582 -1.207124,-1.35344 -1.792396,-3.18241 -0.548692,-1.86556 -0.548692,-4.02375 z m 25.642243,5.81614 q 0.804749,0 1.536339,-0.0366 0.73159,-0.0366 1.170544,-0.10973 v -4.13349 q -0.329216,-0.0732 -0.987647,-0.14632 -0.65843,-0.0731 -1.207123,-0.0731 -0.768169,0 -1.46318,0.10973 -0.658431,0.0732 -1.170544,0.32922 -0.512113,0.25606 -0.804749,0.69501 -0.292636,0.43895 -0.292636,1.09738 0,1.28029 0.841329,1.7924 0.877908,0.47553 2.377667,0.47553 z m -0.438954,-15.94866 q 2.414247,0 4.023745,0.5487 1.609498,0.54869 2.560565,1.57291 0.987646,1.02423 1.390021,2.48741 0.402374,1.46318 0.402374,3.25557 v 11.33965 q -1.170544,0.25606 -3.255575,0.58527 -2.085032,0.3658 -5.047971,0.3658 -1.865554,0 -3.401893,-0.32922 -1.49976,-0.32921 -2.597145,-1.0608 -1.097385,-0.76817 -1.682657,-1.9753 -0.585272,-1.20712 -0.585272,-2.96294 0,-1.68265 0.658431,-2.8532 0.695011,-1.17054 1.828975,-1.86555 1.133965,-0.69501 2.597145,-0.98765 1.46318,-0.32921 3.036098,-0.32921 1.060806,0 1.865554,0.10973 0.841329,0.0732 1.353442,0.21948 v -0.51211 q 0,-1.39002 -0.841329,-2.23135 -0.841328,-0.84133 -2.926359,-0.84133 -1.390021,0 -2.743463,0.21948 -1.353441,0.18289 -2.341088,0.54869 l -0.69501,-4.38954 q 0.475533,-0.14632 1.170544,-0.29264 0.73159,-0.18289 1.572918,-0.29263 0.841329,-0.14632 1.755816,-0.21948 0.951067,-0.10974 1.902134,-0.10974 z m 24.910621,5.34061 q -0.73159,-0.1829 -1.719237,-0.3658 -0.987646,-0.21947 -2.12161,-0.21947 -0.512113,0 -1.243703,0.10974 -0.695011,0.0731 -1.060806,0.18289 v 14.70496 h -5.450345 v -18.21659 q 1.46318,-0.51211 3.438473,-0.95107 2.011872,-0.47553 4.462699,-0.47553 0.438954,0 1.060805,0.0732 0.621852,0.0366 1.243703,0.14632 0.621851,0.0732 1.243703,0.21948 0.621851,0.10973 1.060805,0.29263 z m 10.827552,10.60805 q 0.80475,0 1.53634,-0.0366 0.73159,-0.0366 1.17055,-0.10973 v -4.13349 q -0.32922,-0.0732 -0.98765,-0.14632 -0.65843,-0.0731 -1.20712,-0.0731 -0.76817,0 -1.46318,0.10973 -0.65843,0.0732 -1.17055,0.32922 -0.51211,0.25606 -0.80475,0.69501 -0.29263,0.43895 -0.29263,1.09738 0,1.28029 0.84133,1.7924 0.8779,0.47553 2.37766,0.47553 z m -0.43895,-15.94866 q 2.41425,0 4.02374,0.5487 1.6095,0.54869 2.56057,1.57291 0.98765,1.02423 1.39002,2.48741 0.40238,1.46318 0.40238,3.25557 v 11.33965 q -1.17055,0.25606 -3.25558,0.58527 -2.08503,0.3658 -5.04797,0.3658 -1.86556,0 -3.40189,-0.32922 -1.49976,-0.32921 -2.59715,-1.0608 -1.09738,-0.76817 -1.68266,-1.9753 -0.58527,-1.20712 -0.58527,-2.96294 0,-1.68265 0.65843,-2.8532 0.69501,-1.17054 1.82898,-1.86555 1.13396,-0.69501 2.59714,-0.98765 1.46318,-0.32921 3.0361,-0.32921 1.06081,0 1.86556,0.10973 0.84132,0.0732 1.35344,0.21948 v -0.51211 q 0,-1.39002 -0.84133,-2.23135 -0.84133,-0.84133 -2.92636,-0.84133 -1.39002,0 -2.74346,0.21948 -1.35345,0.18289 -2.34109,0.54869 l -0.69501,-4.38954 q 0.47553,-0.14632 1.17054,-0.29264 0.73159,-0.18289 1.57292,-0.29263 0.84133,-0.14632 1.75582,-0.21948 0.95106,-0.10974 1.90213,-0.10974 z m 25.64221,9.98621 q 0,-5.26745 -3.87742,-5.26745 -0.84133,0 -1.68266,0.21947 -0.80475,0.21948 -1.31686,0.5487 v 9.91304 q 0.40237,0.0732 1.02422,0.14632 0.62185,0.0366 1.35344,0.0366 2.23135,0 3.36532,-1.53634 1.13396,-1.53634 1.13396,-4.06032 z m 5.56009,0.14631 q 0,2.30451 -0.69501,4.17007 -0.65843,1.86555 -1.93872,3.18241 -1.28028,1.31686 -3.14583,2.04845 -1.86556,0.69502 -4.24323,0.69502 -0.98764,0 -2.08503,-0.10974 -1.0608,-0.0732 -2.12161,-0.21948 -1.02422,-0.14632 -1.97529,-0.32922 -0.95107,-0.21947 -1.68266,-0.43895 v -26.88593 l 5.45035,-0.87791 v 9.58383 q 0.91448,-0.40237 1.90213,-0.62185 0.98765,-0.21948 2.12161,-0.21948 2.04845,0 3.62137,0.73159 1.57292,0.69501 2.63373,2.01187 1.0608,1.31687 1.60949,3.18242 0.5487,1.82897 0.5487,4.0969 z m 9.65698,9.62041 h -5.45034 v -19.24081 h 5.45034 z m 0.51212,-24.8009 q 0,1.49976 -0.98765,2.37767 -0.95107,0.84133 -2.26793,0.84133 -1.31686,0 -2.30451,-0.84133 -0.95106,-0.87791 -0.95106,-2.37767 0,-1.49976 0.95106,-2.34109 0.98765,-0.8779 2.30451,-0.8779 1.31686,0 2.26793,0.8779 0.98765,0.84133 0.98765,2.34109 z m 4.609,6.21852 q 1.39002,-0.40238 3.58479,-0.73159 2.19477,-0.3658 4.60901,-0.3658 2.45083,0 4.06033,0.65843 1.64608,0.62185 2.59714,1.7924 0.95107,1.17054 1.35344,2.78004 0.40238,1.6095 0.40238,3.58479 v 10.86411 h -5.45035 v -10.20568 q 0,-2.63372 -0.69501,-3.73111 -0.69501,-1.09738 -2.59714,-1.09738 -0.58527,0 -1.24371,0.0732 -0.65843,0.0366 -1.17054,0.10974 v 14.85127 h -5.45034 z m 20.63087,9.10829 q 0,-2.56056 0.76816,-4.4627 0.80475,-1.93871 2.08504,-3.21899 1.28028,-1.28029 2.92636,-1.93872 1.68265,-0.65843 3.43847,-0.65843 4.0969,0 6.47457,2.52399 2.37767,2.4874 2.37767,7.35248 0,0.47553 -0.0366,1.0608 -0.0366,0.5487 -0.0732,0.98765 H 180.7768 q 0.1829,1.68266 1.57292,2.6703 1.39002,0.98765 3.73111,0.98765 1.49975,0 2.92636,-0.25606 1.46318,-0.29263 2.37766,-0.69501 l 0.73159,4.42612 q -0.43895,0.21948 -1.17054,0.43896 -0.73159,0.21947 -1.64608,0.36579 -0.87791,0.1829 -1.90213,0.29264 -1.02423,0.10973 -2.04845,0.10973 -2.59715,0 -4.53586,-0.76816 -1.90214,-0.76817 -3.18242,-2.08504 -1.2437,-1.35344 -1.86555,-3.18241 -0.58527,-1.82898 -0.58527,-3.95059 z m 12.80282,-2.08503 q -0.0366,-0.69501 -0.25606,-1.35344 -0.18289,-0.65843 -0.62185,-1.17055 -0.40237,-0.51211 -1.0608,-0.84132 -0.62186,-0.32922 -1.57292,-0.32922 -0.91449,0 -1.57292,0.32922 -0.65843,0.29263 -1.09739,0.80475 -0.43895,0.51211 -0.69501,1.20712 -0.21947,0.65843 -0.32921,1.35344 z m 21.06977,-2.8532 q -0.73159,-0.1829 -1.71924,-0.3658 -0.98765,-0.21947 -2.12161,-0.21947 -0.51211,0 -1.2437,0.10974 -0.69501,0.0731 -1.06081,0.18289 v 14.70496 h -5.45034 v -18.21659 q 1.46318,-0.51211 3.43847,-0.95107 2.01187,-0.47553 4.4627,-0.47553 0.43895,0 1.0608,0.0732 0.62185,0.0366 1.24371,0.14632 0.62185,0.0732 1.2437,0.21948 0.62185,0.10973 1.0608,0.29263 z"
         id="text29"
         aria-label="carabiner" /></g></g></svg>
