<?xml version="1.0" encoding="UTF-8" standalone="no"?>
<!-- Created with Inkscape (http://www.inkscape.org/) -->

<svg
   width="188.18503mm"
   height="66.576401mm"
   viewBox="0 0 188.18503 66.576401"
   version="1.1"
   id="svg1"
   xml:space="preserve"
   xmlns="http://www.w3.org/2000/svg"
   xmlns:svg="http://www.w3.org/2000/svg"><defs
     id="defs1" /><g
     id="layer1"
     transform="translate(6.8791426,-381.33461)"><g
       id="g26"
       transform="matrix(2.6061721,0,0,2.6061721,-99.65691,-188.09711)"
       style="fill:#b24202;fill-opacity:1"><path
         id="path26"
         style="fill:#b24202;fill-opacity:1;stroke-width:0.0735119"
         d="m 46.444711,218.49362 c -2.602423,0.016 -9.854739,1.9837 -10.845463,2.2111 0.01778,3.31903 0.045,8.7169 0.04939,11.76867 0.0075,5.2043 7.186765,11.56034 10.775683,11.56579 3.58892,0.005 11.10227,-6.30024 11.104907,-11.47792 0.04788,-3.11083 -0.09029,-7.43282 -0.04379,-11.78533 -0.972451,-0.33302 -8.438304,-2.29828 -11.040729,-2.28231 z m 0.02112,1.38897 c 1.36964,-0.0119 8.982671,2.03412 9.790018,2.3106 -0.03861,3.61353 0.07607,7.56558 0.03632,10.14825 -0.0022,4.2986 -6.863701,10.41739 -9.843286,10.41286 -2.979586,-0.005 -9.459769,-6.16509 -9.465964,-10.4858 -0.0036,-2.53363 0.181735,-7.58684 0.166982,-10.34236 0.822516,-0.18879 7.946287,-2.03168 9.315925,-2.04355 z m 0.07409,1.31015 c -0.331884,0.16277 -5.736832,1.44867 -8.04569,2.27672 0.0092,1.71677 -0.08708,7.20659 -0.08485,8.78512 0,4.87155 6.254652,9.03802 8.111016,9.04082 1.856365,0.003 8.143979,-4.26438 8.14648,-9.35928 0.02475,-1.60908 -0.04359,-6.08668 -0.01953,-8.33801 -0.549757,-0.43354 -7.709063,-2.21506 -8.107426,-2.40537 z m -0.01134,1.74821 c 2.139531,-0.0131 6.235919,1.58207 6.841784,1.78956 -0.02897,2.71173 0.05726,5.40445 0.02742,7.34258 -0.0017,3.22584 -4.682746,7.66903 -6.918743,7.66564 -2.235998,-0.003 -6.708907,-4.47792 -6.713572,-7.72034 -0.0028,-1.90134 -0.01964,-5.2644 -0.03072,-7.33225 0.617251,-0.14168 4.654298,-1.73206 6.793829,-1.74519 z" /><rect
         style="fill:#b24202;fill-opacity:1;stroke-width:0.0987365"
         id="rect26"
         width="5.9842877"
         height="7.4025469"
         x="52.648476"
         y="225.06053" /></g><path
       style="font-weight:bold;font-size:26.2905px;font-family:Ubuntu;-inkscape-font-specification:'Ubuntu, Light';fill:#333333;fill-opacity:1;stroke-width:0.616182"
       d="m 64.94413,410.90043 q 0,-1.49856 0.47323,-2.81308 0.49952,-1.34082 1.41969,-2.31357 0.92017,-0.99904 2.23469,-1.57743 1.31453,-0.57839 2.99712,-0.57839 1.1042,0 2.02437,0.21033 0.92017,0.18403 1.78775,0.5521 l -0.815,3.12857 q -0.5521,-0.21033 -1.20937,-0.36807 -0.65726,-0.15774 -1.47226,-0.15774 -1.73518,0 -2.60276,1.07791 -0.8413,1.07791 -0.8413,2.83937 0,1.86663 0.78871,2.89196 0.81501,1.02533 2.81309,1.02533 0.70984,0 1.52485,-0.13146 0.815,-0.13145 1.49856,-0.42064 l 0.5521,3.20744 q -0.68356,0.28919 -1.70889,0.49952 -1.02533,0.21032 -2.26098,0.21032 -1.89292,0 -3.26002,-0.5521 -1.36711,-0.57839 -2.26098,-1.55114 -0.86759,-0.97275 -1.28824,-2.28727 -0.39436,-1.34082 -0.39436,-2.89196 z m 18.42966,4.18019 q 0.57839,0 1.1042,-0.0263 0.52581,-0.0263 0.84129,-0.0789 v -2.97083 q -0.23661,-0.0526 -0.70984,-0.10516 -0.47323,-0.0526 -0.86759,-0.0526 -0.5521,0 -1.05162,0.0789 -0.47323,0.0526 -0.84129,0.23662 -0.36807,0.18403 -0.5784,0.49951 -0.21032,0.31549 -0.21032,0.78872 0,0.92017 0.60468,1.28823 0.63097,0.34178 1.70889,0.34178 z M 83.0583,403.61796 q 1.73517,0 2.89195,0.39436 1.15679,0.39436 1.84034,1.13049 0.70984,0.73614 0.99904,1.78776 0.28919,1.05162 0.28919,2.33985 v 8.15006 q -0.84129,0.18403 -2.33985,0.42064 -1.49856,0.26291 -3.62809,0.26291 -1.34082,0 -2.44502,-0.23662 -1.07791,-0.23661 -1.86662,-0.76242 -0.78872,-0.5521 -1.20937,-1.41969 -0.42064,-0.86758 -0.42064,-2.12953 0,-1.20936 0.47323,-2.05066 0.49952,-0.84129 1.31452,-1.34081 0.81501,-0.49952 1.86663,-0.70985 1.05162,-0.23661 2.18211,-0.23661 0.76242,0 1.34081,0.0789 0.60469,0.0526 0.97275,0.15774 v -0.36806 q 0,-0.99904 -0.60468,-1.60372 -0.60468,-0.60469 -2.10324,-0.60469 -0.99904,0 -1.97179,0.15775 -0.97275,0.13145 -1.68259,0.39436 l -0.49952,-3.15486 q 0.34178,-0.10517 0.8413,-0.21033 0.52581,-0.13145 1.13049,-0.21032 0.60468,-0.10517 1.26194,-0.15775 0.68356,-0.0789 1.36711,-0.0789 z m 17.90382,3.83842 q -0.52581,-0.13146 -1.23566,-0.26291 -0.70984,-0.15774 -1.52485,-0.15774 -0.36806,0 -0.89387,0.0789 -0.49952,0.0526 -0.76243,0.13145 v 10.56878 h -3.91728 v -13.09267 q 1.05162,-0.36806 2.4713,-0.68355 1.44598,-0.34178 3.20744,-0.34178 0.31549,0 0.76243,0.0526 0.44694,0.0263 0.89388,0.10517 0.44693,0.0526 0.89387,0.15774 0.44694,0.0789 0.76243,0.21032 z m 7.782,7.62424 q 0.57839,0 1.1042,-0.0263 0.52581,-0.0263 0.8413,-0.0789 v -2.97083 q -0.23662,-0.0526 -0.70985,-0.10516 -0.47323,-0.0526 -0.86758,-0.0526 -0.5521,0 -1.05162,0.0789 -0.47323,0.0526 -0.8413,0.23662 -0.36807,0.18403 -0.57839,0.49951 -0.21032,0.31549 -0.21032,0.78872 0,0.92017 0.60468,1.28823 0.63097,0.34178 1.70888,0.34178 z m -0.31549,-11.46266 q 1.73518,0 2.89196,0.39436 1.15678,0.39436 1.84033,1.13049 0.70985,0.73614 0.99904,1.78776 0.2892,1.05162 0.2892,2.33985 v 8.15006 q -0.8413,0.18403 -2.33986,0.42064 -1.49855,0.26291 -3.62808,0.26291 -1.34082,0 -2.44502,-0.23662 -1.07791,-0.23661 -1.86663,-0.76242 -0.78871,-0.5521 -1.20936,-1.41969 -0.42065,-0.86758 -0.42065,-2.12953 0,-1.20936 0.47323,-2.05066 0.49952,-0.84129 1.31453,-1.34081 0.815,-0.49952 1.86662,-0.70985 1.05162,-0.23661 2.18211,-0.23661 0.76243,0 1.34082,0.0789 0.60468,0.0526 0.97275,0.15774 v -0.36806 q 0,-0.99904 -0.60468,-1.60372 -0.60469,-0.60469 -2.10324,-0.60469 -0.99904,0 -1.97179,0.15775 -0.97275,0.13145 -1.68259,0.39436 l -0.49952,-3.15486 q 0.34177,-0.10517 0.84129,-0.21033 0.52581,-0.13145 1.13049,-0.21032 0.60469,-0.10517 1.26195,-0.15775 0.68355,-0.0789 1.3671,-0.0789 z m 18.42963,7.17731 q 0,-3.78583 -2.78679,-3.78583 -0.60468,0 -1.20936,0.15774 -0.57839,0.15774 -0.94646,0.39436 v 7.12472 q 0.28919,0.0526 0.73613,0.10517 0.44694,0.0263 0.97275,0.0263 1.60372,0 2.41873,-1.10421 0.815,-1.1042 0.815,-2.91824 z m 3.99616,0.10516 q 0,1.6563 -0.49952,2.99712 -0.47323,1.34081 -1.3934,2.28727 -0.92016,0.94646 -2.26098,1.47227 -1.34082,0.49952 -3.0497,0.49952 -0.70984,0 -1.49856,-0.0789 -0.76242,-0.0526 -1.52485,-0.15775 -0.73613,-0.10516 -1.41968,-0.23661 -0.68356,-0.15774 -1.20937,-0.31549 v -19.32351 l 3.91729,-0.63098 v 6.88812 q 0.65726,-0.2892 1.36711,-0.44694 0.70984,-0.15775 1.52485,-0.15775 1.47226,0 2.60275,0.52581 1.1305,0.49952 1.89292,1.44598 0.76242,0.94646 1.15678,2.28728 0.39436,1.31452 0.39436,2.94453 z m 6.9407,6.9144 h -3.91729 v -13.8288 h 3.91729 z m 0.36806,-17.82496 q 0,1.07791 -0.70984,1.70889 -0.68355,0.60468 -1.63001,0.60468 -0.94646,0 -1.6563,-0.60468 -0.68356,-0.63098 -0.68356,-1.70889 0,-1.07791 0.68356,-1.68259 0.70984,-0.63097 1.6563,-0.63097 0.94646,0 1.63001,0.63097 0.70984,0.60468 0.70984,1.68259 z m 3.31259,4.46939 q 0.99904,-0.2892 2.57647,-0.52581 1.57743,-0.26291 3.3126,-0.26291 1.76147,0 2.91825,0.47323 1.18307,0.44694 1.86662,1.28824 0.68356,0.84129 0.97275,1.99808 0.2892,1.15678 0.2892,2.57646 v 7.80828 h -3.91729 v -7.33505 q 0,-1.89291 -0.49952,-2.68163 -0.49952,-0.78871 -1.86662,-0.78871 -0.42065,0 -0.89388,0.0526 -0.47323,0.0263 -0.8413,0.0789 v 10.67394 h -3.91728 z m 14.82786,6.54633 q 0,-1.84033 0.5521,-3.20744 0.57839,-1.39339 1.49856,-2.31356 0.92017,-0.92017 2.10324,-1.3934 1.20936,-0.47323 2.47131,-0.47323 2.94453,0 4.65342,1.81405 1.70888,1.78775 1.70888,5.28439 0,0.34177 -0.0263,0.76242 -0.0263,0.39436 -0.0526,0.70985 h -8.88619 q 0.13145,1.20936 1.13049,1.9192 0.99904,0.70985 2.68163,0.70985 1.07791,0 2.10324,-0.18404 1.05162,-0.21032 1.70888,-0.49952 l 0.52581,3.18115 q -0.31548,0.15775 -0.84129,0.31549 -0.52581,0.15774 -1.18308,0.2629 -0.63097,0.13146 -1.3671,0.21033 -0.73614,0.0789 -1.47227,0.0789 -1.86662,0 -3.26002,-0.5521 -1.36711,-0.5521 -2.28728,-1.49856 -0.89387,-0.97275 -1.34081,-2.28727 -0.42065,-1.31453 -0.42065,-2.83938 z m 9.20168,-1.49856 q -0.0263,-0.49951 -0.18404,-0.97274 -0.13145,-0.47323 -0.44694,-0.8413 -0.28919,-0.36807 -0.76242,-0.60468 -0.44694,-0.23662 -1.13049,-0.23662 -0.65726,0 -1.13049,0.23662 -0.47323,0.21032 -0.78872,0.57839 -0.31548,0.36807 -0.49952,0.86759 -0.15774,0.47323 -0.23661,0.97274 z m 15.14332,-2.05065 q -0.52581,-0.13146 -1.23566,-0.26291 -0.70984,-0.15774 -1.52485,-0.15774 -0.36806,0 -0.89387,0.0789 -0.49952,0.0526 -0.76243,0.13145 v 10.56878 h -3.91728 v -13.09267 q 1.05162,-0.36806 2.47131,-0.68355 1.44597,-0.34178 3.20744,-0.34178 0.31548,0 0.76242,0.0526 0.44694,0.0263 0.89388,0.10517 0.44694,0.0526 0.89387,0.15774 0.44694,0.0789 0.76243,0.21032 z"
       id="path27"
       aria-label="carabiner" /><path
       d="m 69.96739,434.63768 q 1.10463,0 1.81475,-0.35505 0.72984,-0.37479 0.72984,-1.24271 0,-0.41424 -0.13807,-0.71012 -0.11836,-0.29588 -0.41424,-0.53259 -0.29588,-0.2367 -0.78902,-0.45368 -0.47341,-0.21698 -1.18353,-0.51287 -0.57204,-0.2367 -1.0849,-0.47341 -0.51287,-0.25643 -0.90738,-0.57204 -0.39451,-0.33533 -0.63121,-0.78902 -0.23671,-0.45369 -0.23671,-1.10463 0,-1.2427 0.9271,-2.012 0.94682,-0.76929 2.58404,-0.76929 1.04545,0 1.71612,0.17753 0.69039,0.17753 0.96655,0.31561 l -0.29588,1.14407 q -0.23671,-0.11835 -0.80875,-0.3156 -0.55231,-0.19726 -1.63722,-0.19726 -0.43396,0 -0.82847,0.0986 -0.37478,0.0789 -0.67066,0.27616 -0.29589,0.17753 -0.47342,0.47341 -0.17752,0.27615 -0.17752,0.69039 0,0.41424 0.1578,0.71012 0.1578,0.29588 0.45369,0.53259 0.3156,0.21698 0.74956,0.41423 0.45369,0.19726 1.02573,0.43396 0.59177,0.23671 1.12435,0.49314 0.55232,0.23671 0.96655,0.59177 0.41424,0.33533 0.67067,0.82847 0.25643,0.47341 0.25643,1.20325 0,1.38079 -1.04545,2.09091 -1.02573,0.71011 -2.82075,0.71011 -1.34133,0 -2.05145,-0.2367 -0.71012,-0.21698 -0.94682,-0.33534 l 0.33533,-1.1638 q 0.0592,0.0394 0.25643,0.13808 0.19726,0.0789 0.53259,0.19725 0.33534,0.0986 0.78902,0.17753 0.47341,0.0789 1.0849,0.0789 z m 9.1329,1.12436 q -0.65094,-1.20326 -1.26243,-2.50514 -0.59177,-1.30188 -1.12435,-2.62349 -0.51287,-1.34134 -0.94683,-2.66294 -0.43396,-1.34134 -0.74957,-2.6235 h 1.36106 q 0.21698,0.94683 0.55232,2.05146 0.33533,1.0849 0.74956,2.2487 0.43397,1.16381 0.94683,2.38679 0.51286,1.22298 1.10463,2.40651 0.43396,-1.22298 0.76929,-2.30788 0.33533,-1.08491 0.61149,-2.15008 0.29588,-1.08491 0.55232,-2.20926 0.27615,-1.12435 0.57204,-2.42624 h 1.28215 q -0.63121,2.8602 -1.43996,5.56259 -0.80874,2.7024 -1.75557,4.95111 -0.37478,0.88764 -0.76929,1.51886 -0.39451,0.65094 -0.88765,1.06518 -0.47341,0.41423 -1.12435,0.61149 -0.63122,0.19725 -1.49914,0.19725 -0.49314,0 -0.90737,-0.11835 -0.39451,-0.11835 -0.49314,-0.17753 l 0.25643,-1.06518 q 0.0789,0.0592 0.43396,0.15781 0.37478,0.11835 0.76929,0.11835 0.55232,0 0.98628,-0.11835 0.45369,-0.11836 0.80875,-0.41424 0.35505,-0.27616 0.63121,-0.72984 0.29588,-0.45369 0.57204,-1.14408 z m 8.65951,-1.12436 q 1.10463,0 1.81475,-0.35505 0.72984,-0.37479 0.72984,-1.24271 0,-0.41424 -0.13808,-0.71012 -0.11835,-0.29588 -0.41423,-0.53259 -0.29588,-0.2367 -0.78902,-0.45368 -0.47341,-0.21698 -1.18353,-0.51287 -0.57204,-0.2367 -1.0849,-0.47341 -0.51287,-0.25643 -0.90738,-0.57204 -0.39451,-0.33533 -0.63121,-0.78902 -0.23671,-0.45369 -0.23671,-1.10463 0,-1.2427 0.9271,-2.012 0.94682,-0.76929 2.58404,-0.76929 1.04545,0 1.71612,0.17753 0.69039,0.17753 0.96655,0.31561 l -0.29589,1.14407 q -0.2367,-0.11835 -0.80874,-0.3156 -0.55231,-0.19726 -1.63722,-0.19726 -0.43396,0 -0.82847,0.0986 -0.37478,0.0789 -0.67067,0.27616 -0.29588,0.17753 -0.47341,0.47341 -0.17753,0.27615 -0.17753,0.69039 0,0.41424 0.15781,0.71012 0.1578,0.29588 0.45368,0.53259 0.31561,0.21698 0.74957,0.41423 0.45369,0.19726 1.02573,0.43396 0.59176,0.23671 1.12435,0.49314 0.55232,0.23671 0.96655,0.59177 0.41424,0.33533 0.67067,0.82847 0.25643,0.47341 0.25643,1.20325 0,1.38079 -1.04545,2.09091 -1.02573,0.71011 -2.82075,0.71011 -1.34133,0 -2.05145,-0.2367 -0.71012,-0.21698 -0.94682,-0.33534 l 0.33533,-1.1638 q 0.0592,0.0394 0.25643,0.13808 0.19726,0.0789 0.53259,0.19725 0.33533,0.0986 0.78902,0.17753 0.47341,0.0789 1.0849,0.0789 z m 7.55486,-9.29071 h 4.06345 v 1.08491 h -4.06345 v 5.42451 q 0,0.86792 0.13808,1.42023 0.1578,0.53259 0.43396,0.82848 0.27616,0.29588 0.67067,0.39451 0.39451,0.0986 0.86792,0.0986 0.80874,0 1.30188,-0.17753 0.49314,-0.19725 0.7693,-0.35506 l 0.3156,1.06518 q -0.27615,0.17753 -0.96655,0.41424 -0.69039,0.21698 -1.49913,0.21698 -0.94683,0 -1.59777,-0.23671 -0.63122,-0.25643 -1.02573,-0.74957 -0.37478,-0.51286 -0.53258,-1.26243 -0.15781,-0.74957 -0.15781,-1.77529 v -9.38934 l 1.28216,-0.23671 z m 5.819,5.08918 q 0,-1.34133 0.37479,-2.32761 0.39451,-1.006 1.006,-1.67666 0.63122,-0.67067 1.42024,-0.98628 0.80874,-0.33533 1.65694,-0.33533 1.87392,0 2.97855,1.22298 1.12435,1.22298 1.12435,3.76757 0,0.1578 -0.0197,0.31561 0,0.1578 -0.0197,0.29588 h -7.16036 q 0.0592,1.87392 0.9271,2.87992 0.86793,1.006 2.76157,1.006 1.04546,0 1.65695,-0.19725 0.61149,-0.19726 0.88764,-0.33534 l 0.23671,1.10463 q -0.27616,0.15781 -1.04545,0.37479 -0.74957,0.21698 -1.7753,0.21698 -1.34133,0 -2.28816,-0.39451 -0.94682,-0.39451 -1.55831,-1.10463 -0.61149,-0.71012 -0.88765,-1.67667 -0.27616,-0.98627 -0.27616,-2.15008 z m 7.23926,-0.80874 q -0.0394,-1.59777 -0.74957,-2.48542 -0.71011,-0.88764 -2.012,-0.88764 -0.69039,0 -1.2427,0.27615 -0.53259,0.27616 -0.94683,0.74957 -0.39451,0.45369 -0.63121,1.06518 -0.21698,0.61149 -0.25644,1.28216 z m 4.18182,-3.92538 q 0.57204,-0.1578 1.47941,-0.35506 0.9271,-0.19725 2.38679,-0.19725 1.93309,0 2.80102,1.12435 0.0986,-0.0789 0.37478,-0.25643 0.29588,-0.19725 0.72984,-0.39451 0.43397,-0.19725 1.006,-0.33533 0.59177,-0.13808 1.30189,-0.13808 1.1638,0 1.87392,0.35506 0.72984,0.33533 1.12435,0.96655 0.39451,0.61149 0.53259,1.47941 0.13808,0.86792 0.13808,1.89365 v 5.70067 h -1.28216 v -5.28644 q 0,-1.006 -0.0986,-1.73584 -0.0789,-0.74957 -0.35506,-1.22298 -0.25643,-0.49314 -0.74956,-0.72985 -0.49314,-0.25643 -1.28216,-0.25643 -0.59177,0 -1.0849,0.11836 -0.47342,0.0986 -0.82848,0.25643 -0.35505,0.1578 -0.59176,0.31561 -0.21698,0.1578 -0.31561,0.2367 0.17753,0.51286 0.25643,1.16381 0.0986,0.63121 0.0986,1.34133 v 5.7993 H 118.788 v -5.28644 q 0,-1.006 -0.0986,-1.73584 -0.0789,-0.74957 -0.35506,-1.22298 -0.27616,-0.49314 -0.78902,-0.72985 -0.49314,-0.25643 -1.32161,-0.25643 -0.9271,0 -1.57804,0.0986 -0.63122,0.0986 -0.80875,0.17753 v 8.95538 h -1.28215 z m 19.11402,8.93565 q 1.10463,0 1.81475,-0.35505 0.72984,-0.37479 0.72984,-1.24271 0,-0.41424 -0.13808,-0.71012 -0.11835,-0.29588 -0.41423,-0.53259 -0.29588,-0.2367 -0.78902,-0.45368 -0.47341,-0.21698 -1.18353,-0.51287 -0.57204,-0.2367 -1.0849,-0.47341 -0.51287,-0.25643 -0.90738,-0.57204 -0.39451,-0.33533 -0.63121,-0.78902 -0.23671,-0.45369 -0.23671,-1.10463 0,-1.2427 0.9271,-2.012 0.94683,-0.76929 2.58404,-0.76929 1.04545,0 1.71612,0.17753 0.69039,0.17753 0.96655,0.31561 l -0.29588,1.14407 q -0.23671,-0.11835 -0.80875,-0.3156 -0.55231,-0.19726 -1.63722,-0.19726 -0.43396,0 -0.82847,0.0986 -0.37478,0.0789 -0.67066,0.27616 -0.29589,0.17753 -0.47341,0.47341 -0.17754,0.27615 -0.17754,0.69039 0,0.41424 0.15781,0.71012 0.1578,0.29588 0.45369,0.53259 0.3156,0.21698 0.74957,0.41423 0.45368,0.19726 1.02572,0.43396 0.59177,0.23671 1.12435,0.49314 0.55232,0.23671 0.96655,0.59177 0.41424,0.33533 0.67067,0.82847 0.25643,0.47341 0.25643,1.20325 0,1.38079 -1.04545,2.09091 -1.02572,0.71011 -2.82075,0.71011 -1.34133,0 -2.05145,-0.2367 -0.71012,-0.21698 -0.94682,-0.33534 l 0.33533,-1.1638 q 0.0592,0.0394 0.25643,0.13808 0.19726,0.0789 0.53259,0.19725 0.33534,0.0986 0.78902,0.17753 0.47341,0.0789 1.0849,0.0789 z"
       id="path28"
       style="font-weight:300;font-size:19.7255px;font-family:Ubuntu;-inkscape-font-specification:'Ubuntu, Light';fill:#333333;fill-opacity:1;stroke-width:0.462314"
       aria-label="systems" /></g></svg>
