<?xml version="1.0" encoding="UTF-8" standalone="no"?>
<!-- Generator: Adobe Illustrator 28.4.1, SVG Export Plug-In . SVG Version: 6.00 Build 0)  -->

<svg
   version="1.1"
   id="Layer_1"
   x="0px"
   y="0px"
   width="1272.4px"
   height="450.1px"
   viewBox="0 0 1272.4 450.1"
   style="enable-background:new 0 0 1272.4 450.1;"
   xml:space="preserve"
   sodipodi:docname="openvex-grey.svg"
   inkscape:version="1.4.2 (ebf0e940d0, 2025-05-08)"
   xmlns:inkscape="http://www.inkscape.org/namespaces/inkscape"
   xmlns:sodipodi="http://sodipodi.sourceforge.net/DTD/sodipodi-0.dtd"
   xmlns="http://www.w3.org/2000/svg"
   xmlns:svg="http://www.w3.org/2000/svg"><defs
   id="defs238">
	
	

		
		
		
		
		
	<filter
   style="color-interpolation-filters:sRGB;"
   inkscape:label="Brilliance"
   id="filter238"
   x="0"
   y="0"
   width="1"
   height="1"><feColorMatrix
     values="0.21 0.72 0.072 0 0 0.21 0.72 0.072 0 0 0.21 0.72 0.072 0 0 0 0 0 1 0 "
     id="feColorMatrix238"
     result="fbSourceGraphic" /><feColorMatrix
     result="fbSourceGraphicAlpha"
     in="fbSourceGraphic"
     values="0 0 0 -1 0 0 0 0 -1 0 0 0 0 -1 0 0 0 0 1 0"
     id="feColorMatrix1090" /><feColorMatrix
     id="feColorMatrix1091"
     values="2 -0.5 -0.5 0 0.36 -0.5 2 -0.5 0 0.36 -0.5 -0.5 2 0 0.36 0 0 0 1 0 "
     in="fbSourceGraphic" /></filter><filter
   style="color-interpolation-filters:sRGB;"
   inkscape:label="Brilliance"
   id="filter239"
   x="0"
   y="0"
   width="1"
   height="1"><feColorMatrix
     values="0.21 0.72 0.072 0 0 0.21 0.72 0.072 0 0 0.21 0.72 0.072 0 0 0 0 0 1 0 "
     id="feColorMatrix239"
     result="fbSourceGraphic" /><feColorMatrix
     result="fbSourceGraphicAlpha"
     in="fbSourceGraphic"
     values="0 0 0 -1 0 0 0 0 -1 0 0 0 0 -1 0 0 0 0 1 0"
     id="feColorMatrix1092" /><feColorMatrix
     id="feColorMatrix1093"
     values="2 -0.5 -0.5 0 0.36 -0.5 2 -0.5 0 0.36 -0.5 -0.5 2 0 0.36 0 0 0 1 0 "
     in="fbSourceGraphic" /></filter><filter
   style="color-interpolation-filters:sRGB;"
   inkscape:label="Brilliance"
   id="filter240"
   x="0"
   y="0"
   width="1"
   height="1"><feColorMatrix
     values="0.21 0.72 0.072 0 0 0.21 0.72 0.072 0 0 0.21 0.72 0.072 0 0 0 0 0 1 0 "
     id="feColorMatrix240"
     result="fbSourceGraphic" /><feColorMatrix
     result="fbSourceGraphicAlpha"
     in="fbSourceGraphic"
     values="0 0 0 -1 0 0 0 0 -1 0 0 0 0 -1 0 0 0 0 1 0"
     id="feColorMatrix1094" /><feColorMatrix
     id="feColorMatrix1095"
     values="2 -0.5 -0.5 0 0.36 -0.5 2 -0.5 0 0.36 -0.5 -0.5 2 0 0.36 0 0 0 1 0 "
     in="fbSourceGraphic" /></filter><filter
   style="color-interpolation-filters:sRGB;"
   inkscape:label="Brilliance"
   id="filter241"
   x="0"
   y="0"
   width="1"
   height="1"><feColorMatrix
     values="0.21 0.72 0.072 0 0 0.21 0.72 0.072 0 0 0.21 0.72 0.072 0 0 0 0 0 1 0 "
     id="feColorMatrix241"
     result="fbSourceGraphic" /><feColorMatrix
     result="fbSourceGraphicAlpha"
     in="fbSourceGraphic"
     values="0 0 0 -1 0 0 0 0 -1 0 0 0 0 -1 0 0 0 0 1 0"
     id="feColorMatrix1096" /><feColorMatrix
     id="feColorMatrix1097"
     values="2 -0.5 -0.5 0 0.36 -0.5 2 -0.5 0 0.36 -0.5 -0.5 2 0 0.36 0 0 0 1 0 "
     in="fbSourceGraphic" /></filter><filter
   style="color-interpolation-filters:sRGB;"
   inkscape:label="Brilliance"
   id="filter242"
   x="0"
   y="0"
   width="1"
   height="1"><feColorMatrix
     values="0.21 0.72 0.072 0 0 0.21 0.72 0.072 0 0 0.21 0.72 0.072 0 0 0 0 0 1 0 "
     id="feColorMatrix242"
     result="fbSourceGraphic" /><feColorMatrix
     result="fbSourceGraphicAlpha"
     in="fbSourceGraphic"
     values="0 0 0 -1 0 0 0 0 -1 0 0 0 0 -1 0 0 0 0 1 0"
     id="feColorMatrix1098" /><feColorMatrix
     id="feColorMatrix1099"
     values="2 -0.5 -0.5 0 0.36 -0.5 2 -0.5 0 0.36 -0.5 -0.5 2 0 0.36 0 0 0 1 0 "
     in="fbSourceGraphic" /></filter></defs><sodipodi:namedview
   id="namedview238"
   pagecolor="#ffffff"
   bordercolor="#000000"
   borderopacity="0.25"
   inkscape:showpageshadow="2"
   inkscape:pageopacity="0.0"
   inkscape:pagecheckerboard="0"
   inkscape:deskcolor="#d1d1d1"
   inkscape:zoom="2.052299"
   inkscape:cx="603.71319"
   inkscape:cy="151.05011"
   inkscape:window-width="3840"
   inkscape:window-height="2091"
   inkscape:window-x="0"
   inkscape:window-y="0"
   inkscape:window-maximized="1"
   inkscape:current-layer="Layer_1" />
<style
   type="text/css"
   id="style1">
	.Drop_x0020_Shadow{fill:none;}
	.Outer_x0020_Glow_x0020_5_x0020_pt{fill:none;}
	.Blue_x0020_Neon{fill:none;stroke:#8AACDA;stroke-width:7;stroke-linecap:round;stroke-linejoin:round;}
	.Chrome_x0020_Highlight{fill:url(#SVGID_1_);stroke:#FFFFFF;stroke-width:0.3629;stroke-miterlimit:1;}
	.Jive_GS{fill:#FFDD00;}
	.Alyssa_GS{fill:#A6D0E4;}
	.st0{fill-rule:evenodd;clip-rule:evenodd;fill:#08314F;}
	.st1{fill-rule:evenodd;clip-rule:evenodd;fill:#A2C6D1;}
	.st2{fill-rule:evenodd;clip-rule:evenodd;fill:#6996B7;}
	.st3{fill-rule:evenodd;clip-rule:evenodd;fill:#F7C17B;}
	.st4{fill-rule:evenodd;clip-rule:evenodd;fill:#FCE6AF;}
	.st5{fill-rule:evenodd;clip-rule:evenodd;fill:#595757;}
	.st6{fill-rule:evenodd;clip-rule:evenodd;fill:#4F4C4B;}
	.st7{fill-rule:evenodd;clip-rule:evenodd;fill:#FDE8AF;}
	.st8{fill-rule:evenodd;clip-rule:evenodd;fill:#D40E19;}
	.st9{fill-rule:evenodd;clip-rule:evenodd;fill:#D3E5E9;}
	.st10{fill-rule:evenodd;clip-rule:evenodd;fill:#DD7161;}
	.st11{fill-rule:evenodd;clip-rule:evenodd;fill:#A0121C;}
	.st12{fill-rule:evenodd;clip-rule:evenodd;fill:#FFFFFF;}
	.st13{fill-rule:evenodd;clip-rule:evenodd;fill:#8742BD;}
	.st14{fill-rule:evenodd;clip-rule:evenodd;fill:#727171;}
	.st15{fill-rule:evenodd;clip-rule:evenodd;fill:#9D9D9D;}
	.st16{fill-rule:evenodd;clip-rule:evenodd;fill:#C046EF;}
	.st17{fill-rule:evenodd;clip-rule:evenodd;fill:#EE8B7E;}
	.st18{fill-rule:evenodd;clip-rule:evenodd;fill:#B3B3B5;}
	.st19{fill:#FDE8AF;}
	.st20{font-family:'AvengeanceMightiestAvenger';}
	.st21{font-size:17.2296px;}
	.st22{font-size:12.3424px;}
	.st23{fill:#04335F;}
</style>
<linearGradient
   id="SVGID_1_"
   gradientUnits="userSpaceOnUse"
   x1="-30.2521"
   y1="-152.5342"
   x2="-30.2521"
   y2="-153.5342">
	<stop
   offset="0"
   style="stop-color:#656565"
   id="stop1" />
	<stop
   offset="0.618"
   style="stop-color:#1B1B1B"
   id="stop2" />
	<stop
   offset="0.6292"
   style="stop-color:#545454"
   id="stop3" />
	<stop
   offset="0.9831"
   style="stop-color:#3E3E3E"
   id="stop4" />
</linearGradient>
<g
   id="g1109"><path
     class="st0"
     d="m 68.7,186.1 c 0.2,0.2 0.3,0.5 0.4,0.8 v 0 0 c 0.2,0.7 0.3,1.5 0.5,2.2 7.2,-2.7 14.6,-4.7 22.1,-6.5 6.7,-1.5 13.4,-2.8 20.2,-3.8 -0.6,-0.4 -1.1,-0.9 -1.7,-1.4 -0.6,-0.6 -1.4,-1.4 -1.3,-2.3 0.2,-1.1 1.9,-1.7 2.8,-2 1.5,-0.5 3.2,-0.9 4.8,-1.3 1.7,-0.4 3.5,-0.7 5.2,-1 2,-2.9 5,-4.3 8.5,-4.9 0.7,-0.1 1.6,-0.2 2.4,-0.1 1.6,-4.1 3.4,-8.2 5.3,-12.1 2.2,-4.5 4.6,-8.9 7.1,-13.2 4.2,-7.2 8.7,-14.2 13.5,-21 -2.9,-0.4 -5.8,-1 -8.6,-2 -3.7,1.2 -7.4,2.4 -11.2,3.5 -9.4,2.7 -18.5,5.1 -28.3,3.6 -0.2,0 -0.4,-0.1 -0.7,-0.1 -1.8,0.3 -3.7,0.6 -5.6,0.7 -4.5,0.3 -12.4,0.7 -14.2,-4.7 -0.3,-0.8 -0.3,-1.6 -0.3,-2.4 0.3,-3.1 2.8,-5.9 5,-7.9 3.1,-3 6.6,-5.7 10,-8.5 0.8,-0.6 1.5,-1.2 2.3,-1.9 2.9,-2.4 5.8,-4.8 8.6,-7.4 1.6,-1.5 3.3,-3.1 4.8,-4.7 0.9,-1 2.2,-2.4 2.8,-3.7 -0.2,-1.6 -0.3,-3.2 -0.3,-4.8 0,-10.8 4.2,-21 11.9,-28.6 4.4,-4.4 9.7,-7.7 15.6,-9.7 -0.8,-4.4 -1.8,-8.7 -3,-13 -0.8,-2.9 -1.7,-5.9 -2.8,-8.7 -0.9,-2.4 -2,-4.9 -3.4,-7.1 -0.3,-0.5 -0.8,-1 -1.2,-1.4 -0.6,-0.6 -1.2,-1.2 -1.8,-1.8 -0.8,-0.8 -1.7,-1.6 -2.5,-2.5 -0.5,-0.6 -1.4,-1.6 -1.2,-2.5 v 0 0 c 0.2,-0.7 0.9,-1 1.5,-1.2 0.7,-0.3 1.6,-0.4 2.3,-0.6 2.2,-0.4 4.4,-0.7 6.6,-0.9 2,-0.2 4,-0.4 6.1,-0.6 1.2,-0.1 2.4,-0.2 3.6,-0.3 2.9,-0.3 5.9,-0.5 8.8,-0.5 20.8,-0.1 39.9,7.7 50.8,26 2.6,4.3 4.5,9 5.9,13.8 4.5,16.1 5.6,33.5 -1.6,49.1 -0.5,1 -1.3,1.8 -2.4,2 -0.8,0.1 -1.7,0 -2.4,-0.4 -0.2,-0.1 -0.3,-0.2 -0.5,-0.3 -0.5,-0.3 -1,-0.5 -1.5,-0.8 -1.5,-0.8 -2.9,-1.6 -4.4,-2.4 -1.2,-0.7 -2.5,-1.4 -3.7,-2.1 -1.3,9.7 -6.1,18.5 -13.5,25 -2,4.3 -4,8.6 -6,12.9 -3.5,7.8 -6.9,15.7 -9.8,23.8 -2.6,7.3 -4.8,14.8 -6,22.5 2.5,0.1 4.8,1.1 6.7,2.7 3.3,0.3 6.8,1.2 10,2.1 1.3,0.4 4,0.9 4.3,2.5 0.3,1.6 -2.1,2.8 -3.2,3.6 -1.2,0.9 -2.4,1.7 -3.6,2.5 0.3,0.1 0.6,0.1 0.8,0.2 3.8,0.8 7.6,1.8 11.3,2.8 5.9,1.7 11.7,4.5 17,7.6 12.1,7.2 22.8,16.9 31.2,28.2 5.3,7.2 11.2,17.3 12.7,26.3 0.1,0.9 0.2,1.8 0.2,2.6 9.4,5.1 18.6,10.4 27.7,16 2.6,1.6 5.3,3.3 7.9,5 0.5,-0.8 1.2,-1.5 1.9,-2.1 4.3,-3.3 10.5,-2.2 14.7,0.7 1.1,0.8 2.2,1.7 3.1,2.7 2.6,3 4.1,7 3.1,10.9 -0.2,0.9 -0.6,1.8 -1.2,2.6 -0.2,0.3 -0.4,0.6 -0.6,1 5.9,5.5 11.8,12.3 14.6,19.9 2.1,5.8 2.2,11.5 0.3,17.4 -0.9,2.9 -2.2,5.6 -3.5,8.2 -1.4,2.8 -3.2,5.4 -5,7.9 -3.1,4 -6.8,8.1 -11,11 -3.3,2.3 -8.3,5 -12,2 -2.7,-2.2 -3.7,-5.2 -5.1,-8.2 -0.3,-0.6 -2.1,-2 -2.6,-2.5 -1,-0.8 -2,-1.6 -3.1,-2.3 -4.7,-3.4 -9.6,-6.4 -14.5,-9.4 -8.6,-5.2 -17.3,-10.2 -26.1,-15 -0.3,0.3 -0.6,0.6 -1,0.8 -3.8,2.5 -8,3.9 -12.5,4.4 -3.9,0.4 -7.8,0 -11.6,-0.8 -3.2,-0.7 -6.2,-1.7 -9.2,-3 0.4,8.5 0.7,17 1.1,25.5 0,0.3 0,0.6 -0.2,0.9 -0.3,0.5 -0.8,0.9 -1.3,1.1 -1,0.5 -2.2,0.9 -3.3,1.1 -1.8,0.4 -3.6,0.7 -5.4,1 l 2.7,13.7 c 3.8,0.3 9.5,1 12.6,3.1 0.7,0.2 1.2,0.7 1.5,1.4 0.8,1.1 0.7,2.4 0.2,3.6 -0.2,1.3 -0.5,2.6 -0.8,3.9 -0.4,1.5 -0.9,3 -1.3,4.5 -0.4,1.2 -0.7,2.3 -1.1,3.5 0,0.4 -0.1,0.8 -0.3,1.2 -0.1,0.2 -0.1,0.3 -0.2,0.5 -0.4,1.2 -0.7,2.4 -1,3.6 6.7,5.1 13.3,10.3 19.7,15.9 4,3.5 7.9,7.2 11.4,11.2 1.5,1.7 3,3.5 4.3,5.4 1.1,1.6 2.1,3.3 2.8,5.1 1.4,3.6 2,7.5 1.4,11.4 -0.4,2.6 -1.4,5.1 -3,7.2 -2.4,3.3 -5.8,5.5 -9.8,6.6 -7.3,2 -14.8,1.3 -21.6,-1.7 -7.1,-3.1 -13.2,-8.2 -18.3,-14 -1.6,-1.8 -3.1,-3.8 -4.6,-5.8 -1.9,-2.6 -3.7,-5.3 -5.4,-8 -2.6,-4.1 -7.8,-13 -6.8,-18 0.3,-1.3 0.6,-2.4 1.1,-3.6 0.5,-1.1 1,-2.1 1.6,-3.2 0.7,-1.2 1.3,-2.5 1.9,-3.7 -1,-1.4 -1.8,-2.9 -2.6,-4.4 -1.1,-2.2 -2.2,-4.4 -3.2,-6.6 -0.7,-1.6 -1.4,-3.2 -2,-4.9 -0.6,-1.5 -1.1,-2.9 -1.5,-4.4 -0.4,-1.4 -1.3,-4.6 0.3,-5.7 1.6,-1.9 5.3,-2.8 7.9,-3.3 -0.1,-0.3 -0.2,-0.6 -0.3,-0.9 -1.2,-4.3 -2.4,-8.6 -3.6,-12.9 -3.6,-0.3 -7.1,-0.8 -10.6,-1.6 -1.1,-0.2 -2.1,-0.5 -3.1,-0.8 -0.4,-0.1 -0.8,-0.2 -1.2,-0.4 l -0.4,-0.1 -0.1,-0.4 c -0.6,-1.5 -1.2,-3.1 -1.7,-4.6 -0.2,-0.5 -0.5,-1.1 -0.7,-1.6 -0.4,-0.9 -0.8,-1.7 -1.2,-2.6 -1.1,-2.3 -2.1,-4.5 -3.2,-6.8 -1.4,0.1 -2.8,0.1 -4.1,0.1 -0.7,0 -1.3,0 -2,0 -4.1,0 -8.1,-0.5 -12.1,-1.3 l 0.4,3 1.9,6.2 -0.6,0.3 c -0.4,0.3 -1.2,0.5 -1.6,0.6 -1.7,0.5 -3.4,0.8 -5.2,1.1 l 3.3,13.7 c 2.6,-0.1 5.1,-0.3 7.7,-0.5 l 0.9,-0.1 0.1,0.9 c 0,0.4 0,0.8 0,1.2 0,1.1 0,2.2 -0.1,3.2 -0.2,3.7 -0.7,7.3 -1.5,10.9 3.4,7.6 3.9,18.6 3,26.7 -0.3,2.2 -2.1,3.8 -4.3,3.8 H 63.8 63.7 c -1.9,-0.2 -2,-4.2 -2,-5.5 0,-3.5 0.9,-7.2 2.3,-10.4 1.8,-4.2 4.7,-7.9 8.4,-10.7 4.9,-3.6 10.8,-5.2 16.9,-5.5 3.2,-0.2 6.4,-0.1 9.6,0.1 3.8,0.2 7.7,0.5 11.5,0.9 3.7,0.4 7.3,0.8 11,1.4 0,-0.4 -0.1,-0.8 -0.2,-1.1 -0.2,-1.1 -0.5,-2.2 -0.8,-3.3 -0.4,-1.5 -0.8,-3 -1.2,-4.5 -0.5,-2 -1.1,-3.9 -1.6,-5.9 l -0.3,-1.1 1.2,0.1 c 1.7,0.1 3.5,0.1 5.2,0.1 l -3.9,-13.2 c -3.3,-0.3 -6.6,-1 -9.8,-2 -1,-0.3 -2,-0.7 -3,-1 -0.4,-0.1 -0.8,-0.3 -1.1,-0.5 l -0.4,-0.2 -0.1,-0.4 c -0.5,-1.5 -0.9,-3 -1.4,-4.6 -0.4,-1.3 -0.8,-2.6 -1.2,-3.8 -0.7,-2.3 -1.4,-4.5 -2.2,-6.8 -2,-6.1 -3.9,-12.3 -5.9,-18.4 -1.4,-4.3 -2.7,-8.7 -4,-13.1 -2.9,-5.3 -5.7,-10.6 -8.3,-16 -0.5,-1 -1.2,-2.2 -1.3,-3.4 -0.1,-1.5 0.5,-3.1 1.4,-4.4 0.9,-1.3 2.2,-2.4 3.8,-2.9 -0.6,-3.3 -0.9,-6.7 -1.1,-10.1 -0.2,-2.9 -0.2,-5.8 -0.1,-8.7 -0.2,-0.1 -0.5,-0.2 -0.7,-0.3 -1.7,-0.7 -2.6,-2.3 -2.5,-4.1 0.2,-2.8 0.6,-5.6 1.1,-8.3 -6.3,1.9 -12.8,3.3 -19.3,3.8 -4.6,0.3 -9.5,-0.1 -13.8,-1.7 -2,-0.5 -3.9,-1.3 -5.7,-2.2 -7,-3.4 -13,-9.1 -17.7,-15.3 C 13.8,200 8.4,179.2 7,159.3 5.8,156.5 5.3,153.5 5.1,150.5 1.7,145 -1.5,137 0.7,130.6 c 1.2,-3.2 3.9,-6.1 7.4,-6.5 1,-0.1 1.9,0 2.8,0.2 1.7,-2.8 4.6,-4.9 8,-4.5 0.5,0.1 1.1,0.2 1.6,0.4 -0.4,-4.5 -0.5,-9 -0.2,-13.5 0.3,-4.7 1.1,-10.8 3.2,-15 1.2,-2.5 2.6,-5 4.4,-7.2 0.5,-0.5 1,-1.1 1.5,-1.5 1.5,-1.3 3.3,-2.1 5.3,-1.6 4.1,1 4.6,6.3 4.5,10.1 1,-1.9 2.2,-3.8 3.6,-5.4 1.2,-1.4 2.6,-2.7 4.2,-3.5 1.7,-0.9 3.8,-1.2 5.6,-0.4 4.8,2.1 3.9,8.8 2.9,12.8 l -6.4,25.8 c 1.2,0.4 2.4,0.9 3.6,1.3 4.4,1.6 7.2,6.4 8.3,10.7 0.8,3.1 1.1,6.7 0.2,9.8 -0.9,3.2 -2,6.3 -3.4,9.3 0.1,0.2 0.1,0.4 0.2,0.5 3,7.8 5.7,15.8 7.9,23.9 1.2,3.2 2.1,6.5 2.8,9.8 z"
     id="path4"
     style="filter:url(#filter238)" /><path
     class="st0"
     d="m 57.1,151.7 c 0.1,0.3 0.2,0.6 0.3,0.9 3,7.8 5.7,15.8 7.9,23.8 0.7,2.4 1.6,5.9 2.6,10 0.2,0.2 0.3,0.4 0.3,0.6 0.2,1.1 0.5,2.1 0.6,3.2 v 0 c 7.4,-2.8 15.2,-5 22.9,-6.8 7.4,-1.7 14.8,-3 22.3,-4.1 -2.2,-1.5 -4.5,-3.2 -4.4,-4.1 0.3,-1.5 8.7,-3.1 12.5,-3.6 1.6,-2.5 4.1,-4.2 8.1,-4.8 0.8,-0.1 1.9,-0.2 2.8,0 5.8,-15.5 17,-34.3 26.9,-48 -3.5,-0.3 -6.9,-1.1 -10.2,-2.2 h -0.1 c -3.7,1.3 -7.5,2.4 -11.3,3.5 -9.2,2.7 -18.2,5.1 -27.9,3.6 -0.3,0 -0.5,-0.1 -0.8,-0.1 -1.9,0.3 -3.8,0.6 -5.6,0.7 -4,0.3 -11.7,0.7 -13.3,-4.1 -1.2,-3.6 2.1,-7.1 4.5,-9.4 3.1,-3 6.6,-5.7 9.9,-8.4 0.8,-0.6 1.5,-1.2 2.3,-1.9 3.8,-3.1 14.5,-11.8 16.5,-16.2 l 0.1,-0.1 c -0.2,-1.6 -0.3,-3.3 -0.3,-4.9 0,-17.7 11.6,-32.7 27.6,-37.8 -1.7,-9.2 -4.9,-22.7 -9.5,-29.8 -1.3,-2.1 -6.8,-6.3 -6.6,-7.5 0.4,-1.6 17.2,-2.7 19.3,-2.9 2.9,-0.3 5.8,-0.5 8.7,-0.5 20.5,-0.1 39.3,7.5 50.1,25.6 2.5,4.2 4.4,8.8 5.8,13.6 4.4,15.9 5.6,33.1 -1.5,48.5 -0.8,1.6 -2.4,1.8 -3.7,1.2 -0.2,-0.1 -0.3,-0.2 -0.5,-0.2 -0.5,-0.3 -1,-0.5 -1.5,-0.8 -1.5,-0.8 -2.9,-1.6 -4.3,-2.4 -1.4,-0.8 -2.9,-1.6 -4.3,-2.4 -0.2,-0.1 -0.4,-0.2 -0.6,-0.3 -1.1,10.3 -6.1,19.4 -13.5,25.8 -9.4,19.9 -19,40.8 -22.1,60.6 2.7,-0.1 5.3,0.8 7.3,2.7 3.3,0.3 7,1.2 10.1,2.1 1,0.3 3.5,0.8 3.7,1.8 0.2,1 -2,2.2 -2.9,2.8 -1.5,1.1 -3.2,2.2 -4.8,3.2 -0.2,0.1 -0.4,0.3 -0.7,0.4 5.5,0.9 11.8,2.7 14.2,3.4 5.9,1.7 11.8,4.5 16.8,7.5 12,7.1 22.7,16.8 30.9,28 5.2,7.1 11.1,17.1 12.6,25.9 0.2,0.9 0.2,1.9 0.2,3 9.5,5.1 18.9,10.5 28.1,16.2 2.9,1.8 5.7,3.6 8.6,5.5 0.2,-0.2 0.3,-0.4 0.5,-0.7 0.5,-0.7 1.1,-1.4 1.8,-1.9 3.9,-3 9.6,-2.1 13.7,0.7 4.1,2.8 7.1,7.9 5.8,12.7 -0.2,0.9 -0.6,1.7 -1.1,2.4 -0.3,0.4 -0.6,1 -1,1.6 6,5.5 12.1,12.4 14.9,20 2.1,5.7 2.1,11.1 0.3,16.9 -0.9,2.8 -2.1,5.5 -3.5,8.1 -1.4,2.7 -3.1,5.3 -5,7.8 -3,3.9 -6.8,8 -10.8,10.9 -2.9,2.1 -7.6,4.8 -11,2.1 -2.5,-2.1 -3.5,-5.1 -4.9,-7.9 -0.6,-1.2 -4.8,-4.3 -6,-5.1 -4.7,-3.4 -9.7,-6.4 -14.6,-9.4 -8.8,-5.3 -17.7,-10.4 -26.8,-15.4 -0.3,0.5 -0.7,0.9 -1.2,1.2 -3.7,2.4 -7.8,3.8 -12.1,4.3 -3.8,0.4 -7.6,0 -11.3,-0.8 -3.5,-0.8 -7,-2 -10.3,-3.5 0.3,8.2 0.6,16.7 1.2,27 0,0 0.6,1.9 -10.4,3.3 l 3.1,15.2 c 5.5,0.4 10.5,1.4 13,3 0.6,0.1 0.9,0.5 1.1,1 0.6,0.8 0.6,1.8 0.1,2.9 -0.4,3.3 -2,8 -3.3,12.1 0,0.3 0,0.6 -0.2,0.9 -0.1,0.2 -0.2,0.4 -0.3,0.5 -0.5,1.7 -0.9,3.1 -1.1,4.3 10.5,7.9 33.7,25.9 38.3,37.6 2.3,5.9 2.4,12.5 -1.4,17.8 -2.3,3.2 -5.6,5.2 -9.3,6.3 -7.1,2 -14.4,1.2 -21.1,-1.7 -6.9,-3 -12.9,-8 -17.9,-13.8 -5.1,-5.8 -18.1,-23.9 -16.6,-31 0.8,-4 2.3,-5.5 4.8,-10.8 -2.7,-3.7 -7.7,-14.1 -9.5,-20.5 -0.8,-2.8 -0.8,-4.4 0,-4.8 1.2,-1.5 4.4,-2.6 8.4,-3.3 -0.2,-0.6 -0.3,-1.2 -0.5,-1.8 -1.3,-4.5 -2.5,-9 -3.8,-13.5 -9.2,-0.7 -15.3,-2.8 -15.3,-2.8 0,0 0,0 -1.7,-4.6 -0.6,-1.6 -2.7,-5.9 -5.4,-11.6 -1.6,0.1 -3.1,0.2 -4.7,0.2 -0.6,0 -1.3,0 -2,0 -4.4,0 -8.8,-0.5 -13.1,-1.5 l 0.5,4.3 1.7,5.6 c 0,0 -1.3,0.8 -7.4,1.8 l 3.7,15.3 c 4.9,-0.3 8.4,-0.5 8.4,-0.5 0,0 0.4,6.4 -1.6,15.4 3.5,7.4 4,18.6 3,26.5 -0.2,1.7 -1.7,3 -3.4,3 H 63.8 c -2.9,-0.4 -3,-28.8 25.5,-30.4 8,-0.4 22.2,0.8 32.9,2.5 0.1,-2.4 -1.6,-7.2 -3.9,-16 1.8,0.1 4,0.1 6.4,0.1 l -4.4,-14.9 c -8.3,-0.8 -14.3,-3.5 -14.3,-3.5 0,0 0,0 -1.4,-4.6 -1.1,-3.7 -8.4,-26.1 -13.3,-42.2 -2.9,-5.3 -5.7,-10.6 -8.4,-16 -0.4,-0.9 -1.2,-2.1 -1.2,-3.1 -0.1,-1.4 0.5,-2.7 1.2,-3.8 1,-1.4 2.5,-2.5 4.1,-2.7 -0.6,-3.5 -1,-7.1 -1.2,-10.8 -0.2,-3.1 -0.2,-6.2 -0.1,-9.3 -0.4,-0.2 -0.9,-0.3 -1.3,-0.5 -1.3,-0.5 -2.1,-1.8 -2,-3.2 0.3,-3.3 0.7,-6.5 1.3,-9.6 -6.6,2 -13.7,3.7 -20.5,4.1 -4.3,0.3 -9.2,-0.1 -13.5,-1.7 -1.9,-0.5 -3.8,-1.2 -5.6,-2.1 -6.9,-3.4 -12.8,-9 -17.4,-15 C 14.7,199.7 9.2,179 7.8,159.1 6.6,156.4 6,153.3 5.9,150.2 2.7,145 -0.6,137 1.6,130.9 c 1,-2.9 3.5,-5.6 6.7,-6 1.2,-0.1 2.2,0.1 3.1,0.4 1.5,-2.9 4.2,-5 7.5,-4.7 1,0.1 1.9,0.4 2.7,0.9 -0.5,-5 -0.7,-10 -0.3,-14.9 0.3,-4.5 1.1,-10.6 3.1,-14.7 1.2,-2.4 2.6,-4.9 4.3,-7 1.4,-1.7 3.5,-3.5 6,-2.9 4.2,1.1 4,7.8 3.8,11.1 v 2.3 c 1.4,-3.4 3.1,-6.5 5.2,-8.9 1.1,-1.3 2.5,-2.5 4,-3.3 1.5,-0.8 3.3,-1.1 4.9,-0.4 4.3,1.9 3.3,8.3 2.4,11.8 l -6.6,26.6 c 1.3,0.5 2.5,0.9 4.3,1.6 6.5,2.4 9.9,12.7 8,19.4 -1.1,3.5 -2.2,6.7 -3.6,9.5 z"
     id="path5"
     style="filter:url(#filter239)" /><path
     class="st0"
     d="m 236.9,395.4 h 25.8 c 1.1,0 2,0.9 2,2 v 0 c 0,1.1 -0.9,2 -2,2 h -25.8 c -1.1,0 -2,-0.9 -2,-2 v 0 c -0.1,-1.1 0.9,-2 2,-2 z"
     id="path6"
     style="filter:url(#filter240)" /><path
     class="st0"
     d="m 27.7,395.4 h 148.1 c 1.1,0 2,0.9 2,2 v 0 c 0,1.1 -0.9,2 -2,2 H 27.7 c -1.1,0 -2,-0.9 -2,-2 v 0 c -0.1,-1.1 0.9,-2 2,-2 z"
     id="path7"
     style="filter:url(#filter241)" /><g
     id="g230"
     style="filter:url(#filter242)">
			<path
   class="st0"
   d="m 9,145.9 35.2,-15.6 c 0.6,-0.3 1.3,-0.3 2,-0.2 2,0.5 2.5,2.4 3,4 0.1,0.3 0.2,0.6 0.3,0.8 3,5.6 5.6,11.7 7.9,17.6 3,7.8 5.7,15.8 7.9,23.8 3.4,12.1 13.4,50.4 -4.2,56.2 -5.6,1.8 -11.8,0.5 -17,-2.1 -6.9,-3.4 -12.8,-9 -17.4,-15 C 12.4,196.7 7.4,171.2 7.4,148.1 7.5,147.2 8,146.3 9,145.9 Z"
   id="path8" />
			<path
   class="st0"
   d="m 124.5,213.9 c -0.4,0.1 -1,0.3 -1.4,0.5 -1,0.4 -1.9,0.8 -2.9,1.2 -2.9,1.3 -5.8,2.6 -8.7,3.9 -8.1,3.6 -16.4,7.1 -24.9,9.8 -7.4,2.4 -15.5,4.5 -23.3,5 -7.8,0.5 -17.7,-1.1 -22.1,-8.4 -3.3,-5.4 -2,-11.8 0.7,-17.2 4.4,-8.9 18.2,-15.2 27,-18.5 7.4,-2.8 15.2,-5 22.9,-6.8 9,-2.1 18.1,-3.6 27.3,-4.7 0.2,0 0.3,0 0.4,0 4.7,0.2 9.4,1.7 11.9,6.1 2.3,4.2 1.8,9.5 0.6,14 -1.2,4.5 -3.4,9.8 -5.8,13.8 -0.4,0.7 -1,1.1 -1.7,1.3 z"
   id="path9" />
			<path
   class="st1"
   d="m 119.4,181.3 c -38.2,4.6 -69,16.1 -75.2,28.6 -7.3,14.6 3.2,22.8 18.9,21.8 23.6,-1.5 56.3,-19.5 60.8,-20.4 0.1,0 17.3,-29 -4.5,-30 z"
   id="path10" />
			<path
   class="st2"
   d="m 42.6,222.9 c 2.4,6.3 10.4,9.5 20.5,8.8 12,-0.8 26.4,-5.8 38.2,-10.7 -0.7,-4.7 -1.4,-8.9 -1.4,-8.9 0,0 -9,7.6 -26.4,13.1 -13.1,4.2 -23.9,3.2 -30.9,-2.3 z"
   id="path11" />
			<path
   class="st1"
   d="m 10.1,148.2 c 0,60.4 33.2,87.5 50.3,81.9 9.3,-3.1 10.1,-18.4 6.7,-36.2 -4,-21.5 -13.8,-46.6 -19.8,-57.7 -0.8,-1.4 -1,-4 -2,-3.6 z"
   id="path12" />
			<path
   class="st2"
   d="m 38.7,224 c 7.8,6.1 15.8,8.1 21.7,6.1 1.7,-0.6 3.1,-1.5 4.2,-2.8 -12.9,1.9 -22.7,-2.1 -27.4,-11 0.2,2.9 0.7,5.5 1.5,7.7 z"
   id="path13" />
			<path
   class="st2"
   d="m 10.2,154.9 c 2.1,50.9 28.5,76.1 45.6,75.9 -20,-9.9 -36,-38.8 -33.8,-71.7 -5.7,-3 -7.1,-2.2 -11.8,-4.2 z"
   id="path14" />
			<path
   class="st0"
   d="m 179.3,366 c 3.2,-5.6 33.1,-5.9 37.7,-0.2 4.6,5.7 -21,18.7 -37.7,0.2 z"
   id="path15" />
			<path
   class="st0"
   d="m 198.2,395.7 c -0.1,0 -0.3,0 -0.4,0 -1.7,-0.1 -3,-1.6 -2.9,-3.3 0,-0.3 0.1,-0.7 0.2,-1 -0.1,-0.8 -0.3,-1.8 -0.4,-2.4 -0.6,-3.2 -1.4,-6.4 -2.2,-9.6 -1.6,-6.3 -3.3,-12.6 -5,-18.8 -2.9,-10.4 -5.9,-20.7 -8.9,-31 -0.3,-1.2 0,-2.4 0.9,-3.2 0.9,-0.9 2.1,-1.1 3.3,-0.7 l 12.3,4.2 c 1.1,0.4 1.9,1.3 2.1,2.4 l 12,59.7 c 0.2,1 0,1.9 -0.7,2.7 -0.6,0.8 -1.5,1.2 -2.5,1.2 h -7.8 z"
   id="path16" />
			<path
   class="st3"
   d="m 181.6,328.6 c 18.9,64.1 16.5,63.8 16.5,63.8 h 7.8 l -12,-59.7 z"
   id="path17" />
			<path
   class="st4"
   d="m 194.4,374.1 c 2.2,0.2 3.6,2.3 4.5,4.5 -1.4,-5.7 -3.6,-13.9 -6.8,-25.4 -1.3,-0.6 -2.6,-1.2 -3.9,-1.8 2.8,9.7 4.8,17.1 6.2,22.7 z"
   id="path18" />
			<path
   class="st0"
   d="m 182.2,366.3 c 7.1,4.1 21.2,6 29.3,0.4 11.7,-8.2 2.1,12.4 0.8,19.9 10.5,7.9 33.7,25.9 38.3,37.6 2.3,5.9 2.4,12.5 -1.4,17.8 -2.3,3.2 -5.6,5.2 -9.3,6.3 -7.1,2 -14.4,1.2 -21.1,-1.7 -6.9,-3 -12.9,-8 -17.9,-13.8 -5.1,-5.8 -18.1,-23.9 -16.6,-31 0.8,-4 2.3,-5.5 4.8,-10.8 -2.7,-3.7 -7.7,-14.1 -9.5,-20.5 -1.4,-4.7 -0.5,-6 2.6,-4.2 z"
   id="path19" />
			<path
   class="st5"
   d="m 182.5,369.8 c 0.8,2.9 2,5.8 3.3,8.6 1,2.2 2,4.3 3.1,6.4 0.8,1.4 1.6,3 2.6,4.3 0.7,0.9 0.8,2.1 0.3,3.1 -0.7,1.5 -1.4,2.9 -2.2,4.4 -0.5,0.9 -1,1.9 -1.4,2.9 -0.4,0.9 -0.7,1.9 -0.9,2.9 -0.7,3.4 4.5,12.3 6.3,15.2 1.7,2.6 3.4,5.2 5.3,7.7 1.4,1.9 2.8,3.8 4.4,5.5 4.7,5.3 10.3,10.2 16.9,13 6.1,2.6 12.7,3.3 19.1,1.5 3.1,-0.9 5.8,-2.5 7.6,-5.1 3.2,-4.4 3,-10 1.1,-14.9 -4.3,-11 -27.6,-29 -37.3,-36.3 -0.9,-0.7 -1.4,-1.8 -1.2,-2.9 0.5,-3.2 1.8,-6.7 2.8,-9.8 0.4,-1.2 1.6,-5.2 2,-7.7 -0.4,0.2 -0.7,0.5 -0.9,0.6 -8.2,5.5 -22,4.9 -30.9,0.6 z"
   id="path20" />
			<path
   class="st6"
   d="m 182.5,369.8 c 0.8,2.9 2,5.8 3.3,8.6 1,2.2 2,4.3 3.1,6.4 0.8,1.4 1.6,3 2.6,4.3 0.7,0.9 0.8,2.1 0.3,3.1 -0.7,1.5 -1.4,2.9 -2.2,4.4 -0.5,0.9 -1,1.9 -1.4,2.9 -0.4,0.9 -0.7,1.9 -0.9,2.9 -0.7,3.4 4.5,12.3 6.3,15.2 1.7,2.6 3.4,5.2 5.3,7.7 1.4,1.9 2.8,3.8 4.4,5.5 4.7,5.3 10.3,10.2 16.9,13 6.1,2.6 12.7,3.3 19.1,1.5 3.1,-0.9 5.8,-2.5 7.6,-5.1 1.8,-2.4 2.5,-5.3 2.4,-8.1 -2.5,1.1 -5.7,2.2 -9.5,3.3 -18.9,5.2 -33.6,-12.8 -40.3,-24.4 -6.7,-11.6 -3.1,-17.4 -3.1,-17.4 0,0 -2.3,-7.5 -4.6,-20.8 -3.3,-0.7 -6.5,-1.6 -9.3,-3 z"
   id="path21" />
			<path
   class="st0"
   d="m 158,292.9 c 0.3,-0.8 0.6,-1.5 0.9,-2.3 1.1,-2.5 3.1,0.5 5.4,3.9 7.7,1.6 15.4,2.1 22.5,1.9 5,-4.9 8.5,-15 12.5,-10.7 2.4,2.7 3.6,5.7 5.2,9 4.6,-0.7 3.8,4.7 3.8,4.7 0.9,14.2 1.2,26.5 2,43.7 0,0 0.7,2.4 -14.8,3.8 -15.6,1.4 -27.1,-2.7 -27.1,-2.7 0,0 0,0 -1.7,-4.6 -1.7,-4.6 -16.3,-32.9 -21.2,-47.4 3.6,2.3 6.2,-1.5 10.2,-0.1 0.8,0.3 1.5,0.6 2.3,0.8 z"
   id="path22" />
			<path
   class="st0"
   d="m 115.6,305.6 12.3,4.2 c 1.1,0.4 1.8,1.2 2.1,2.3 l 14.5,59.9 c 0.2,1 0,1.9 -0.6,2.7 -0.6,0.8 -1.5,1.2 -2.5,1.2 h -7.8 c -1.4,0 -2.7,-0.9 -3.1,-2.3 -6.3,-21.4 -12.6,-42.7 -18.9,-64.1 -0.3,-1.2 0,-2.4 0.9,-3.2 0.8,-0.8 2,-1.1 3.1,-0.7 z"
   id="path23" />
			<path
   class="st3"
   d="m 114.6,308.7 c 18.9,64.1 18.9,64.1 18.9,64.1 h 7.8 l -14.5,-59.9 z"
   id="path24" />
			<path
   class="st0"
   d="m 125.6,316.6 c 7.9,0 14.3,4.4 14.3,9.8 0,5.4 -6.4,9.8 -14.3,9.8 -7.9,0 -14.3,-4.4 -14.3,-9.8 0,-1.3 0.4,-2.6 1.1,-3.8 v 0 c -5.7,-4.6 -10.2,-11.9 -12,-20.3 3.2,3.6 6.8,6.9 10.6,9.9 0.8,1.7 1.7,3.4 2.8,4.9 0.6,0.8 1.2,1.6 1.8,2.4 v 0 c 2.5,-1.9 6,-2.9 10,-2.9 z"
   id="path25" />
			<path
   class="st0"
   d="m 119.9,265.3 c 0.9,0 1.9,0.1 2.8,0.2 7.2,0.9 13.4,5.2 18,10.7 5,6.1 8.1,13.8 8.9,21.6 0.7,6.4 -0.1,13 -2.8,18.9 -2.4,5.2 -6.3,9.7 -11.5,12.2 -2.9,1.4 -5.9,2.1 -9.1,2.1 -0.9,0 -1.9,-0.1 -2.8,-0.2 -7.2,-0.9 -13.4,-5.2 -18,-10.7 -5,-6.1 -8.1,-13.8 -8.9,-21.6 -0.7,-6.4 0.1,-13 2.8,-18.9 2.4,-5.2 6.3,-9.7 11.5,-12.2 2.9,-1.4 6,-2.1 9.1,-2.1 z"
   id="path26" />
			<path
   class="st0"
   d="m 143.2,176.1 c -34.7,0 -59.7,34.4 -57.4,76.7 2.5,46.3 38.1,72.6 70.6,72.1 19.3,-0.3 35.9,-6.6 41.3,-26.5 2.8,-10.6 -0.8,-27.1 -1.7,-44.2 -2.3,-42.3 -18.1,-78.1 -52.8,-78.1 z"
   id="path27" />
			<path
   class="st0"
   d="m 91.8,267.8 c 22.1,18.4 69.2,13.7 94.4,4.6 5.2,-1.9 8.3,-8.3 12,-5.1 5.9,4 7.5,31.2 4.7,35.8 -5.9,9.6 -14.4,17.2 -25.8,21.6 -16.4,6.2 -35,4.1 -50.7,-3.1 -14.8,-6.8 -25.6,-15.5 -33.2,-28.9 -3.6,-6.3 -7,-12.8 -10.2,-19.3 -0.4,-0.9 -1.2,-2.1 -1.2,-3.1 -0.1,-1.4 0.5,-2.7 1.2,-3.8 1.5,-2.1 4.1,-3.6 6.6,-2 1.4,0.7 1.6,2 2.2,3.3 z"
   id="path28" />
			<path
   class="st0"
   d="m 130.9,305.3 c -10.9,0 -27,-27.5 -29.9,-18.1 -4.3,-2.2 -8.6,-4.9 -12.6,-8.2 3.9,14.4 14.9,47.8 16.2,52.4 1.4,4.6 1.4,4.6 1.4,4.6 0,0 10.8,4.8 23.1,3.4 12.4,-1.4 14.6,-2.7 14.6,-2.7 l -1.7,-5.6 -0.9,-8.1 c 4.1,-5.4 6.6,-9.3 5.2,-21.8 -1.2,-12.6 -4.5,4.1 -15.4,4.1 z"
   id="path29" />
			<path
   class="st5"
   d="m 103.5,288 c -0.2,0.8 -0.7,1.3 -1.5,1.6 -0.7,0.3 -1.5,0.3 -2.2,-0.1 -2.3,-1.2 -4.6,-2.5 -6.8,-4 1.6,5.4 3.3,10.7 4.9,16 1.9,6.1 3.9,12.3 5.9,18.4 1.1,3.5 2.3,7.1 3.4,10.7 0.3,1.1 0.7,2.3 1,3.4 1.7,0.7 3.7,1.2 5.4,1.6 4.9,1.2 10.2,1.7 15.3,1.1 3.6,-0.4 7.4,-0.9 10.9,-1.7 0.2,0 0.5,-0.1 0.8,-0.2 l -1,-3.2 c 0,-0.2 -0.1,-0.3 -0.1,-0.5 l -0.9,-8.1 c -0.1,-0.7 0.1,-1.3 0.5,-1.9 1,-1.3 1.9,-2.6 2.7,-4 1.1,-1.9 1.7,-3.8 2,-5.9 0.5,-3.3 0.3,-6.8 0,-10.1 0,-0.2 0,-0.4 -0.1,-0.6 -0.8,0.9 -1.7,1.8 -2.6,2.7 -2.9,2.7 -6.2,4.5 -10.2,4.5 -5.8,0 -12,-5.8 -16,-9.6 -2.5,-2.4 -5,-5 -7.6,-7.4 -0.6,-0.3 -2.7,-2.2 -3.8,-2.7 z"
   id="path30" />
			<path
   class="st7"
   d="m 100.5,309.9 c 1.1,3.4 2.1,6.7 3.2,10.1 1.1,3.5 2.3,7.1 3.4,10.7 0.3,1.1 0.7,2.3 1,3.4 1.7,0.7 3.7,1.2 5.4,1.6 4.9,1.2 10.2,1.7 15.3,1.1 3.6,-0.4 7.4,-0.9 10.9,-1.7 0.2,0 0.5,-0.1 0.8,-0.2 l -1,-3.2 c 0,-0.2 -0.1,-0.3 -0.1,-0.5 l -0.9,-8.1 c -0.1,-0.7 0.1,-1.3 0.5,-1.9 0.3,-0.4 0.6,-0.9 1,-1.3 -0.4,-0.6 -0.7,-1.2 -1.1,-1.8 -1.1,-1.7 -2.9,-1.6 -4.7,-1.6 -0.9,0 -1.7,-0.1 -2.4,-0.6 -0.6,-0.5 -0.3,-1.4 0,-1.9 l 4.5,-7.5 c -1.5,0.7 -3,1.1 -4.8,1.2 l -3.7,3 c -0.8,0.6 -1.5,1.4 -2.1,2.3 0,0 0,-0.1 -0.1,-0.1 -0.5,-0.7 -1,-1.2 -1.7,-1.5 -1.4,-0.7 -3.1,-1.2 -4.6,-0.9 -0.7,0.2 -1.3,0.5 -1.8,1 -0.6,0.4 -1.1,1.1 -1.4,1.7 -0.1,0.2 -0.2,0.4 -0.3,0.7 -3.4,-3.9 -1.9,-5 -1.8,-8.1 -1.6,0.4 -3.5,0.8 -4.5,2.6 -0.1,-0.3 -0.2,-0.6 -0.3,-0.9 -0.9,-2.6 -5.3,-7.5 -9.3,-6.6 1.1,3.2 3,4.7 0.9,8.2 0,0.4 -0.1,0.6 -0.3,0.8 z"
   id="path31" />
			<path
   class="st8"
   d="m 101.5,313 c 0.7,2.3 1.5,4.7 2.3,7 1.1,3.5 2.3,7.1 3.4,10.7 0.3,1.1 0.7,2.3 1,3.4 1.7,0.7 3.7,1.2 5.4,1.6 4.9,1.2 10.2,1.7 15.3,1.1 3.6,-0.4 7.4,-0.9 10.9,-1.7 0.2,0 0.5,-0.1 0.8,-0.2 l -1,-3.2 c 0,-0.2 -0.1,-0.3 -0.1,-0.5 l -0.9,-8.1 c 0,-0.2 0,-0.3 0,-0.5 -0.9,-1.6 -1.6,-2.7 -1.8,-3 -0.7,-1 -3.8,0.5 -6.5,-1.5 -2.7,-2 -0.7,-5.3 -0.7,-5.3 0,0 -3.9,3.2 -2.1,5.9 1.8,2.7 -1.1,-2.2 -2.1,-2.2 -1.3,-0.1 -1.2,-2.1 -2.5,-2.7 -2.9,-1.5 -3.6,-0.2 -3.6,-0.2 0,0 -1.7,0.7 -0.6,4.4 1.1,3.6 -2.3,4.7 -2.3,2.1 -0.1,-2.5 -2.1,-4.3 -4.3,-6 -2.2,-1.7 0.1,-3.7 0.1,-3.7 0,0 -3.1,0.6 -2.4,2.6 0.7,2 0.9,4.2 -1.5,3.4 -2.4,-0.8 0.8,-1.9 -1.2,-8 -1.3,-3.9 -4.3,-4.9 -3.8,-4.2 0.9,1.3 1.9,3.2 0,6.4 -0.6,0.8 -1.2,1.6 -1.8,2.4 z"
   id="path32" />
			<path
   class="st7"
   d="m 90.4,280.9 c 3.4,7.8 10,9.6 15.5,15.5 5.8,6.2 10.8,16.4 18,20.3 10.6,5.6 22.2,8.5 33.4,8.4 48.5,-0.7 45.7,-52.5 40,-53.7 -2.7,-0.5 -2.6,1.3 -10,4 -24.7,8.9 -74.1,14.8 -97.9,-5.5 -0.5,-0.4 -1,-2.6 -1.6,-2.9 -1.2,-0.8 -2.9,1.7 -2.9,2.9 0.1,0.3 4.7,9.2 5.5,11 z"
   id="path33" />
			<path
   class="st0"
   d="m 104.7,281.7 c 24.6,8.8 60.6,4 81.6,-3.4 5.2,-1.9 14.6,-5.1 19.8,-1.7 1.7,1.1 2.7,2.7 3.3,4.6 0.2,0.6 0.3,1.2 0.4,1.8 0,0.2 0.1,0.5 0.1,0.7 0.5,0.8 0.6,1.6 0.3,2.5 -7.4,26.9 -27.8,42.1 -55.5,42.1 -5.2,0 -10.4,-0.8 -15.5,-2.1 -8.1,-2.2 -21.6,-9.9 -29.1,-19.9 -6.4,-4.2 -10.3,-11.8 -15.1,-19.6 -0.3,-0.6 -2.4,-3.5 -2.1,-1.9 0.7,3.4 3.3,12.7 2.8,11.5 C 91,286 87.3,281 83.4,274 c -0.6,-1.1 -0.4,-2.4 0.3,-3.4 0.8,-1 -0.5,-3.1 0.8,-2.8 0.1,0.3 0.2,0.6 0.3,0.8 1.1,2.4 4.3,5.3 8.9,7.9 3.8,2.2 8.8,4.4 11,5.2 z"
   id="path34" />
			<path
   class="st5"
   d="m 90.4,280.9 c 11.9,27.2 40.6,44.2 64.2,44.2 2.7,0 5.3,-0.2 7.8,-0.4 0.6,1.3 1.3,2.6 1.9,4 2.2,4.6 4.2,8.8 6,13.6 2,0.6 4.2,1.1 6.2,1.4 6.1,1.1 12.5,1.4 18.7,0.8 5.1,-0.5 7.3,-1 12.4,-1.9 -0.3,-5.7 -3.1,-64.3 -7.7,-64.3 -2.8,0 -6.8,0.8 -12.6,2.9 -24.4,8.6 -72.6,14.5 -97.3,-4 -3,-2.2 -2.9,-3 -0.9,1 0.6,1.1 1.1,2.2 1.3,2.7 z"
   id="path35" />
			<path
   class="st7"
   d="m 110.5,307.5 c 1.1,0.9 2.2,1.8 3.3,2.6 -0.2,-1.3 0.3,-2.4 0.4,-4.2 -1.2,0.3 -2.7,0.7 -3.7,1.6 z"
   id="path36" />
			<path
   class="st7"
   d="m 105,302.3 c 1,1.1 2.1,2.1 3.2,3.1 -0.8,-1.1 -2,-2.2 -3.2,-3.1 z"
   id="path37" />
			<path
   class="st7"
   d="m 116.8,312.3 c 12,8.2 25.6,12.8 37.9,12.8 2.7,0 5.3,-0.2 7.8,-0.4 l 0.4,0.7 c 0.1,-0.6 0,-1.2 -0.3,-1.8 -0.9,-1.6 -1.9,-3.3 -2.9,-4.9 -0.5,-0.9 -1,-1.8 -1.6,-2.6 -1.1,-1.7 -2.9,-1.6 -4.7,-1.6 -0.9,0 -1.7,-0.1 -2.4,-0.6 -1.4,-1.1 -1.3,-3.5 0.3,-5.7 -4,0.3 -6.3,2.3 -7.2,4.6 -0.5,-0.7 -1.2,-1.1 -2.1,-1.1 -1,0 -2.2,0.3 -3,0.8 -0.9,0.5 -1.5,1.1 -1.9,1.9 -1.7,-3 -6.1,-4.2 -3,-8.1 -3,-1.2 -4.8,-0.4 -6,0.5 0,-0.1 0,-0.1 -0.1,-0.2 -3.1,-9.1 -11.4,-5.1 -11.1,-3.6 1.3,0.6 4.6,2.3 1.5,6.5 -0.6,0.7 -1.2,1.7 -1.6,2.8 z"
   id="path38" />
			<path
   class="st7"
   d="m 155.8,325.1 c 2.3,0 4.5,-0.2 6.7,-0.4 0.6,1.3 1.3,2.6 1.9,4 2.2,4.6 4.2,8.8 6,13.6 2,0.6 4.2,1.1 6.2,1.4 6.1,1.1 12.5,1.4 18.7,0.8 5.1,-0.5 7.3,-1 12.4,-1.9 -0.1,-1.9 -0.5,-9.6 -1.1,-19.1 -0.8,-0.7 -1.9,-1.8 -2,-2.7 0,-0.5 0.3,-1 0.6,-1.3 0.5,-0.6 0.8,-1.2 1,-1.9 -0.1,-1.6 -0.2,-3.1 -0.4,-4.7 -0.5,-1 -1.3,-1.9 -2.3,-2.7 -1.9,-1.4 -4.2,-2.2 -6.6,-2.4 -1.2,-0.1 -2,-2.1 -2.3,-1 -2,5.9 3.3,4.2 -0.4,8.5 -1.6,1.9 -2.6,3.7 -2.9,5.4 -1.2,0 -2.6,0.3 -3.7,0.9 -2.7,1.5 -3.3,4.3 -2.5,7.1 -0.1,-0.1 -0.3,-0.2 -0.3,-0.3 -0.1,-4.4 -2.8,-6.9 -6,-9.5 -1.3,-1.1 -1.6,-1.3 -0.7,-3.2 0.5,-1.1 1.3,-2.7 0.5,-4.2 -0.2,-0.3 -1,0.8 -4.3,1.4 -1.2,0.2 -2.4,0.6 -3,1.6 -0.2,-0.6 -0.4,-1.2 -0.6,-1.8 -0.8,-2.3 -2.1,-4.5 -4,-6 -3.6,-2.8 -4.1,-0.1 -7.5,-0.8 -2.6,-0.5 -3,-2.8 -2.8,-1.8 -1,4.4 2.4,6.6 3.8,6.6 0.5,0 1.2,0.6 1.5,0.9 0.5,0.7 0.2,1.4 -0.2,2.1 -0.9,1.5 -2.1,2.9 -3.1,4.3 -1.4,2.1 -2.4,4.3 -2.6,6.8 0,0.1 0,0.2 0,0.3 z"
   id="path39" />
			<path
   class="st8"
   d="m 119,313.7 c 11.4,7.3 24.1,11.4 35.7,11.4 1.9,0 3.8,-0.1 5.7,-0.2 -2.1,-3.6 -4.1,-6.9 -4.4,-7.4 -0.7,-1 -3.8,0.5 -6.5,-1.5 -2.7,-2 -0.7,-5.3 -0.7,-5.3 0,0 -3.9,3.2 -2.1,5.9 1.8,2.7 -0.1,3.9 -1.1,3.9 -1.3,-0.1 -1.2,-2.1 -2.5,-2.7 -2.9,-1.5 -1.1,-3.5 -1.1,-3.5 0,0 -3.7,-0.1 -2.6,3.6 1.1,3.6 -3.8,2.7 -3.9,0.1 -0.1,-2.5 -2.1,-4.3 -4.3,-6 -2.2,-1.7 0.1,-3.7 0.1,-3.7 0,0 -3.1,0.6 -2.4,2.6 0.7,2 0.9,4.2 -1.5,3.4 -2.4,-0.8 0.3,-0.8 -1.8,-6.9 -2.1,-6 -7.1,-3.9 -5.8,-3.9 1.3,0 4.5,1.8 2.5,4.9 -0.9,1.6 -2.5,3.2 -3.3,5.3 z"
   id="path40" />
			<path
   class="st8"
   d="m 158.4,325 c 1.4,-0.1 2.8,-0.2 4.1,-0.4 0.6,1.3 1.3,2.6 1.9,4 2.2,4.6 4.2,8.8 6,13.6 2,0.6 4.2,1.1 6.2,1.4 6.1,1.1 12.5,1.4 18.7,0.8 5.1,-0.5 7.3,-1 12.4,-1.9 -0.1,-1.6 -0.4,-7.6 -0.8,-15.3 v 0 c -0.3,-0.4 -0.7,-0.9 -1.4,-1.4 -3.1,-2.4 -4.6,-5 -2.3,-8 2.3,-3 -0.5,-7 -6.3,-7.5 2.5,1.5 2.5,3.1 -0.5,6.6 -3,3.5 -3.4,5.7 0.1,9.4 2,2.2 2,4.2 0.8,5.6 -0.2,0.1 -0.5,0.1 -0.7,0.1 -1.9,-0.1 -1.7,-2.9 -3.6,-3.8 -4.1,-2.1 -1.6,-4.9 -1.6,-4.9 0,0 -5.2,-0.1 -3.6,5 1.5,5.1 -5.3,3.7 -5.4,0.2 -0.1,-3.6 -3,-6.1 -6,-8.5 -3,-2.4 0.1,-5.3 0.1,-5.3 0,0 -4.4,0.8 -3.4,3.6 1,2.8 1.3,5.9 -2.1,4.8 -3.4,-1.1 0.4,-1.2 -2.5,-9.7 -2.9,-8.5 -10,-5.4 -8.1,-5.4 1.9,0 6.3,2.5 3.6,6.9 -2,2.9 -5.2,5.7 -5.6,10.1 z"
   id="path41" />
			<path
   class="st0"
   d="m 210,238.7 c -0.1,0.1 -0.1,0.1 -0.2,0.2 -5.6,5 -16,8.2 -23.2,10.1 -5.5,1.5 -11.2,2.6 -16.8,3.5 -2.2,0.3 -4.3,0.7 -6.5,0.9 -1.4,0.2 -2.9,0.3 -4.3,0.3 -4.5,0 -8.9,-5.4 -11.5,-8.8 -2.1,-2.8 -4.2,-5.9 -5.9,-9 l -27.8,-2.4 -10.9,12.4 c -0.6,0.7 -1.4,1.1 -2.3,1.1 -1.5,0 -3.2,-0.2 -4.7,-0.5 -3.9,-0.7 -7.7,-1.8 -11.4,-3.3 -1.3,-0.5 -2.1,-1.8 -2,-3.2 1,-12.1 4.4,-23.6 10.2,-34.2 7.8,-14.2 21,-23.3 37.5,-22.1 7.3,-3.6 4.6,-10.7 12.8,-10.7 6.9,0 13.7,1.2 20.1,3.6 25,9.1 41.7,33.4 47.8,59.1 0.3,1.1 -0.1,2.2 -0.9,3 z"
   id="path42" />
			<path
   class="st1"
   d="m 143,176.1 c -30.9,0 -54.3,27.7 -57.3,64 8.7,3.6 15,3.6 15,3.6 l 12,-13.6 31,2.7 c 0,0 9.7,17.7 15.5,17.7 5.8,0 38.5,-5 48.7,-14 0,0 0.1,-0.1 0.1,-0.1 -8.3,-34.5 -34.2,-60.3 -65,-60.3 z"
   id="path43" />
			<path
   class="st2"
   d="m 132.8,177.2 c -5.2,1.1 -10.2,3 -14.7,5.6 -0.7,6.4 2.5,10.8 17.4,17 15.1,6.3 37.1,0.4 45.7,-8.9 -9,-7.7 -19.5,-12.7 -30.9,-14.3 -6.2,0 -12.3,0.3 -17.5,0.6 z"
   id="path44" />
			<path
   class="st4"
   d="m 109.6,240.3 c -2.6,7.7 -2.3,15.1 -1.1,20.4 1.9,8.5 5.4,10.5 13.8,14.8 8.3,-2.7 12.1,-4.1 14.6,-11.9 1.7,-5.1 2.7,-12.6 0.5,-21 -8.9,1.5 -13.8,-4.9 -13.8,-4.9 0,0 -5.2,5.6 -14,2.6 z"
   id="path45" />
			<path
   class="st7"
   d="m 134.6,246.7 c -3.2,-0.1 -6.3,-0.9 -9.1,-2.6 -0.7,-0.4 -1.3,-0.9 -2,-1.4 -0.7,0.4 -1.4,0.7 -2.1,1 -2.9,1.2 -6,1.5 -9.1,1.1 -1.1,5 -1.1,10.2 0,15.1 0.5,2.3 1.3,4.7 2.9,6.5 1.8,2 5,3.8 7.6,5.1 2.6,-0.8 5.8,-2 7.6,-3.6 1.6,-1.4 2.5,-3.4 3.1,-5.4 1.6,-5.1 1.9,-10.6 1.1,-15.8 z"
   id="path46" />
			<path
   class="st0"
   d="m 133.4,247.9 c -1.3,-0.1 -2.7,-0.3 -3.9,-0.7 -1.6,-0.5 -3.2,-1.2 -4.7,-2.1 -0.4,-0.2 -0.7,-0.4 -1.1,-0.7 -0.1,-0.1 -0.2,-0.2 -0.4,-0.3 -0.1,0.1 -0.2,0.1 -0.3,0.2 -0.4,0.2 -0.7,0.3 -1.1,0.5 -1.6,0.6 -3.2,1 -4.8,1.2 -1.2,0.2 -2.5,0.2 -3.8,0.1 -0.4,2 -0.6,4.1 -0.6,6.1 0,2.4 0.3,4.9 0.8,7.3 0.2,1.1 0.5,2.2 1,3.2 0.4,1 0.9,1.9 1.6,2.7 0.8,0.9 1.9,1.8 3.2,2.6 1.2,0.7 2.4,1.4 3.5,2 1.1,-0.4 2.3,-0.8 3.5,-1.3 1.2,-0.5 2.4,-1.1 3.2,-1.8 0.7,-0.6 1.2,-1.3 1.6,-2.1 0.5,-0.8 0.8,-1.8 1.1,-2.7 0.8,-2.4 1.2,-4.9 1.4,-7.4 0.2,-2.3 0.1,-4.5 -0.2,-6.8 z m -3.2,-3.2 c 1.4,0.4 2.9,0.6 4.4,0.7 h 1.1 l 0.2,1.1 c 0.4,2.8 0.6,5.6 0.4,8.4 -0.2,2.7 -0.7,5.4 -1.5,8 -0.3,1.1 -0.8,2.1 -1.3,3.2 -0.6,1.1 -1.3,2 -2.2,2.9 -1,0.9 -2.4,1.7 -3.9,2.3 -1.4,0.6 -2.9,1.1 -4.2,1.5 l -0.5,0.2 -0.5,-0.3 c -1.4,-0.7 -2.9,-1.5 -4.2,-2.4 -1.5,-0.9 -2.8,-1.9 -3.8,-3.1 -0.9,-1 -1.6,-2.2 -2.1,-3.4 -0.5,-1.2 -0.8,-2.4 -1.1,-3.6 -0.6,-2.6 -0.9,-5.2 -0.9,-7.8 0,-2.7 0.3,-5.3 0.9,-7.9 l 0.3,-1.2 1.2,0.2 c 1.4,0.2 2.9,0.2 4.3,0 1.4,-0.2 2.7,-0.5 4.1,-1.1 0.3,-0.1 0.6,-0.3 0.9,-0.4 0.3,-0.2 0.7,-0.3 1,-0.5 l 0.8,-0.4 0.7,0.6 c 0.3,0.2 0.6,0.5 0.9,0.7 0.3,0.2 0.6,0.4 0.9,0.6 1.3,0.7 2.7,1.3 4.1,1.7 z"
   id="path47" />
			<path
   class="st0"
   d="m 86,235.3 c 7.1,3 11.9,3.5 13.4,3.6 l 12.6,-13.7 32.1,2.8 0.3,0.5 c 0,0 3.6,6.6 7.7,11.6 l -1.7,1.3 c -3.5,-4.4 -6.3,-10.6 -7.2,-12.2 l -30.9,-2.5 -12.1,13.4 h -0.5 c 0,0 -5.7,0.8 -14.6,-2.9 z"
   id="path48" />
			<path
   class="st7"
   d="m 134,228.5 -21.5,-1.7 v 0 l -5.4,5.9 -6.7,7.5 h -0.5 c 0,0 -5.3,0.7 -13.6,-2.5 -0.1,0 -0.2,-0.1 -0.3,-0.1 0,0.4 -0.1,0.8 -0.1,1.2 0,0.5 -0.1,1 -0.1,1.4 0.1,0 0.2,0.1 0.3,0.1 0.4,0.2 0.9,0.3 1.3,0.5 7.9,3 13.3,3 13.3,3 l 4.4,-5 5.6,-6.3 2,-2.3 21.1,1.8 v 0 l 9.9,0.9 c 0,0 1.1,2 2.8,4.7 0.2,-0.4 0.5,-0.8 0.7,-1.2 -1.8,-3.1 -3.1,-6 -3.7,-7.1 z"
   id="path49" />
			<path
   class="st9"
   d="m 87.9,233.1 c 1.8,-12.3 9.1,-29.9 17.6,-39 l 3.8,-3.3 c -6.8,15.2 -13.5,25.4 -14.8,42.8 -0.1,1.8 -1.8,3.2 -3.6,3.1 -1.8,-0.2 -3.1,-1.8 -3,-3.6 z"
   id="path50" />
			<path
   class="st4"
   d="m 132.8,359.4 -5.9,-19.8 c -1.1,0.1 -2.1,0.1 -3.2,0.1 l 6.2,21 c 1,-0.6 1.9,-1 2.9,-1.3 z"
   id="path51" />
			<g
   id="g58">
				<path
   class="st7"
   d="m 189.5,300.6 c 2.7,2.2 -0.5,2.7 -1.6,6.5 -1.1,3.8 3.3,5.7 3.3,5.7 0,0 -1.9,-3.4 0.4,-5.7 2.3,-2.3 1.2,-5.7 -2.1,-6.5 z"
   id="path52" />
				<path
   class="st7"
   d="m 142.2,299.2 c 2.3,1.8 -0.4,2.3 -1.3,5.4 -1,3.1 2.8,4.8 2.8,4.8 0,0 -1.6,-2.8 0.3,-4.8 1.9,-1.9 1.1,-4.7 -1.8,-5.4 z"
   id="path53" />
				<path
   class="st7"
   d="m 107.1,292.3 c 2,1.6 -0.3,2 -1.2,4.8 -0.8,2.8 2.5,4.2 2.5,4.2 0,0 -1.4,-2.5 0.3,-4.2 1.6,-1.7 0.9,-4.1 -1.6,-4.8 z"
   id="path54" />
				<path
   class="st7"
   d="m 113.1,299 c -2.2,1.9 -1.2,3.7 -0.3,4.5 0.9,0.8 0.8,0.5 0.8,0.5 0,0 0.6,-1.3 0.4,-2.5 -0.1,-1.1 -1,-2.1 -0.9,-2.5 z"
   id="path55" />
				<path
   class="st7"
   d="m 185.4,297.8 c -2.2,1.9 -1.2,3.7 -0.3,4.5 0.9,0.8 0.8,0.5 0.8,0.5 0,0 0.6,-1.3 0.4,-2.5 -0.1,-1.1 -1,-2.1 -0.9,-2.5 z"
   id="path56" />
				<path
   class="st7"
   d="m 183,307.9 c -2.2,1.9 -1.2,3.7 -0.3,4.5 0.9,0.8 0.8,0.5 0.8,0.5 0,0 0.6,-1.3 0.4,-2.5 -0.1,-1.1 -1,-2.1 -0.9,-2.5 z"
   id="path57" />
				<path
   class="st7"
   d="m 139.2,294.6 c -2.2,1.9 -1.2,3.7 -0.3,4.5 0.9,0.8 0.8,0.5 0.8,0.5 0,0 0.6,-1.3 0.4,-2.5 -0.1,-1.1 -1,-2.1 -0.9,-2.5 z"
   id="path58" />
			</g>
			<path
   class="st0"
   d="m 193.8,222 c 8.1,3.1 16.1,6.5 24,10.2 8.7,4 17.4,8.2 25.9,12.6 13.3,6.9 26.5,14.2 39.3,22.1 5.4,3.3 10.7,6.8 15.9,10.5 4,2.9 8.1,5.9 11.7,9.2 6.2,5.6 12.7,12.7 15.6,20.6 2.1,5.7 2.1,11.1 0.3,16.9 -0.9,2.8 -2.1,5.5 -3.5,8.1 -1.4,2.7 -3.1,5.3 -5,7.8 -3,3.9 -6.8,8 -10.8,10.9 -2.9,2.1 -7.6,4.8 -11,2.1 -2.5,-2.1 -3.5,-5.1 -4.9,-7.9 -0.6,-1.2 -4.8,-4.3 -6,-5.1 -4.7,-3.4 -9.7,-6.4 -14.6,-9.4 -14,-8.5 -28.5,-16.4 -43,-24.1 -14,-7.4 -28.2,-14.6 -42.5,-21.4 -5.2,-2.5 -10.5,-4.9 -15.9,-7.1 -1.8,-0.7 -3.7,-1.5 -5.5,-2.1 -1,-0.4 -2.2,-0.8 -3.3,-0.9 -3,-0.5 -7.5,-1.1 -10.5,-0.6 -1.6,0.3 -3.3,0.1 -4.8,-0.6 -5.1,-2.4 -5.9,-9.7 -5.7,-14.6 0.3,-7.2 2.7,-14.8 6.2,-21 4.1,-7.3 10.1,-13.4 17.9,-16.7 10,-4.3 20.6,-3.1 30.2,0.5 z"
   id="path59" />
			<path
   class="st10"
   d="m 192.9,224.5 c 38.4,14.6 96.7,46.6 116,64.1 21.4,19.4 17.6,31.3 11.8,42.5 -5.7,11.2 -18.7,23.1 -22.8,19.9 -2,-1.6 -2.9,-4.3 -4.2,-7 -4.7,-10.1 -118,-69.2 -132.7,-71.6 -4,-0.6 -8.5,-1.1 -11.3,-0.6 -17,3 -5.3,-65.8 43.2,-47.3 z"
   id="path60" />
			<path
   class="st8"
   d="m 315.3,295 c 14.1,15.7 10.5,26.2 5.4,36.1 -5.7,11.2 -18.7,23.1 -22.8,19.9 -2,-1.6 -2.9,-4.3 -4.2,-7 -4.7,-10.1 -118,-69.2 -132.7,-71.6 -4,-0.6 -8.5,-1.1 -11.3,-0.6 -6.5,1.2 -8.8,-8.2 -6.5,-19.1 5.3,-16.6 21,-34 48.4,-23.6 35,13.2 98.1,46.7 123.7,65.9 z"
   id="path61" />
			<path
   class="st10"
   d="m 315.4,295 c 7,7.9 9.7,14.4 9.9,20.2 0.2,5.8 -1.9,10.9 -4.5,15.9 -1.5,3 -3.6,6.1 -5.9,8.9 -3,3.7 -6.3,6.9 -9.3,9 -3,2.1 -5.6,3.1 -7.3,2.3 -0.1,-0.1 -0.3,-0.2 -0.4,-0.3 -1.6,-1.3 -2.5,-3.3 -3.5,-5.5 -0.2,-0.5 -0.5,-1 -0.7,-1.6 -2.2,-4.7 -27.7,-19.9 -55.9,-35.1 -32.7,-17.6 -68.9,-35.2 -76.8,-36.5 -2,-0.3 -4.1,-0.6 -6.1,-0.7 -2,-0.1 -3.8,-0.1 -5.2,0.1 -0.8,0.1 -1.5,0.1 -2.1,0 -1.3,-0.3 -2.4,-1.1 -3.2,-2.3 -0.8,-1.2 -1.4,-2.8 -1.8,-4.7 -0.6,-3.4 -0.4,-7.6 0.5,-12.1 v 0 c 0.2,-0.8 0.5,-1.5 0.8,-2.3 2.9,-7.6 8,-15.2 15.4,-19.8 7.4,-4.6 17.2,-6.4 29.5,-2.4 0.9,0.3 1.8,0.6 2.7,1 17.6,6.7 42.3,18.5 65.7,31 23.4,12.2 45.4,25.3 58.2,34.9 z m 9.8,20.2 c -0.2,-5.8 -2.9,-12.3 -9.9,-20.2 -12.7,-9.5 -34.7,-22.6 -57.9,-35 -23.5,-12.5 -48.1,-24.3 -65.7,-31 -0.9,-0.3 -1.8,-0.7 -2.7,-1 -12.2,-3.9 -22,-2.2 -29.4,2.4 -7.4,4.6 -12.5,12.1 -15.4,19.8 -0.3,0.8 -0.6,1.5 -0.8,2.3 -1,4.5 -1.1,8.8 -0.5,12.1 0.3,1.9 0.9,3.5 1.7,4.7 0.8,1.2 1.9,2 3.2,2.3 0.6,0.1 1.3,0.1 2.1,0 1.4,-0.3 3.3,-0.3 5.2,-0.1 2,0.1 4.1,0.4 6.1,0.7 7.9,1.3 44.2,18.9 76.9,36.5 28.2,15.2 53.7,30.4 55.9,35.1 0.2,0.5 0.5,1 0.7,1.6 0.9,2.1 1.8,4.2 3.4,5.5 0.1,0.1 0.3,0.2 0.4,0.3 1.6,0.8 4.2,-0.2 7.2,-2.3 3,-2.1 6.3,-5.3 9.3,-9 2.3,-2.8 4.3,-5.8 5.9,-8.8 2.4,-5 4.5,-10.1 4.3,-15.9 z"
   id="path62" />
			<path
   class="st11"
   d="m 317.5,297.5 c 11.5,14.3 8.1,24.2 3.3,33.6 -5.7,11.2 -18.7,23.1 -22.8,19.9 -2,-1.6 -2.9,-4.3 -4.2,-7 -4.7,-10.1 -118,-69.2 -132.7,-71.6 -4,-0.6 -8.5,-1.1 -11.3,-0.6 -3.1,0.6 -5.3,-1.3 -6.5,-4.7 9.8,-3.8 26.2,2 45.4,8.3 20.6,6.7 43.6,14.1 43.6,14.1 l 6.7,11.9 c 0,0 6.4,4.3 25.5,15.9 19.1,11.6 17.8,9.9 27.9,9.6 9.2,-0.3 19.1,-13.9 25.1,-29.4 z"
   id="path63" />
			<path
   class="st0"
   d="m 144.6,270.9 c -0.4,0 -0.7,-0.2 -0.7,-0.6 0,-0.4 0.2,-0.7 0.6,-0.7 0.6,-0.1 1.2,-0.3 1.9,-0.5 3.9,-1.3 10.7,-3.5 37.7,7.8 13.7,5.8 34.8,16.8 55,28 26.9,14.9 52,30 55.2,33.1 2.4,2.3 3.2,5 4,7.4 0.9,3.1 1.7,5.5 6,5 0.4,0 0.7,0.2 0.7,0.6 0,0.4 -0.2,0.7 -0.6,0.7 -5.3,0.6 -6.2,-2.3 -7.4,-5.9 -0.7,-2.2 -1.5,-4.8 -3.6,-6.8 -3.2,-3 -28.1,-18.1 -54.9,-32.9 -20.1,-11.1 -41.2,-22.2 -54.8,-27.9 -26.5,-11.2 -33,-9 -36.8,-7.8 -0.9,0.2 -1.5,0.4 -2.3,0.5 z"
   id="path64" />
			<path
   class="st0"
   d="m 234.2,306.1 c 0.7,0.9 3.3,2.4 4.1,2.8 1,0.5 2,0.9 3,1.2 1.5,0.5 3.1,1.2 3.4,3 0.2,1.4 -0.6,2.4 -1.7,3.2 -3.7,2.4 -7.8,3.8 -12.1,4.3 -3.8,0.4 -7.6,0 -11.3,-0.8 -5.3,-1.2 -10.5,-3.4 -15.2,-6.1 -3.5,-2 -7.3,-4.6 -10.2,-7.4 -2.3,-2.3 -4,-5 -5,-8.1 -3.3,-10.6 2.8,-23.6 7.7,-32.9 3.4,-6.4 7.3,-12.6 10.6,-19 1.1,-2.1 4.3,-8.4 3.2,-10.9 -0.7,-1.6 -5.5,-5.1 -6.9,-6.2 -15.6,-11.4 -20.1,-20.1 -22.5,-30.1 -0.6,-2.5 1.5,-3.3 1,-6 0.6,-2.4 -12.5,-6.7 -10.3,-8.1 1.2,-0.8 -0.5,-2.6 1.7,-2.7 5.8,-0.3 17.3,2.9 20.9,3.9 5.9,1.7 11.8,4.5 16.8,7.5 12,7.1 22.7,16.8 30.9,28 5.2,7.1 11.1,17.1 12.6,25.9 0.7,4.4 -0.4,10.8 -1.4,15.1 -1.6,6.9 -3.9,13.9 -6.9,20.3 -0.5,1 -1,2.1 -1.5,3.1 -3.7,6.8 -7.2,13.5 -10.9,20 z"
   id="path65" />
			<path
   class="st1"
   d="m 171.9,189.4 c 1.1,-1.6 1.3,-3.3 3.9,-3.8 1.9,-0.3 9.4,1.6 11.9,2 6.1,0.8 13.8,3.6 22.2,8.5 26.2,15.6 40.2,39.8 42.3,52.1 1.1,6.2 -2.4,22.9 -9.6,36.9 -3.5,6.8 -7.9,15 -10.8,20 -1.3,2.3 2.4,4.6 5.3,6.1 3,1.7 6.3,1.8 4.5,3 -16.2,10.7 -38.8,-3 -45.7,-9.7 -19.3,-18.9 21.9,-58.5 17,-69.9 -3.1,-7.3 -33.9,-24.7 -32.6,-39.8 0.2,-1.6 -9.4,-3.9 -8.4,-5.4 z"
   id="path66" />
			<path
   class="st2"
   d="m 252.3,252.6 c -0.5,7.9 -3.8,21 -9.7,32.4 -3.5,6.8 -7.9,15 -10.8,20 -1.3,2.3 2.4,4.6 5.3,6.1 3,1.7 6.3,1.8 4.5,3 -16.2,10.7 -38.8,-3 -45.7,-9.7 -5,-4.9 -5.9,-11.2 -4.6,-18 3.1,2.3 8.7,5.3 19.6,7.6 18.9,4 20.4,-16.2 31.7,-36.6 3.2,-2 6.4,-3.7 9.7,-4.8 z"
   id="path67" />
			<path
   class="st2"
   d="m 213,239 c 0.4,-1.7 0.4,-3.2 -0.1,-4.4 -2.6,-6 -23.7,-18.8 -30.5,-31.5 0,-0.3 0,-0.5 0,-0.8 9.2,8.4 21.4,17 21.4,17 0,0 10,11.4 14,11 4,-0.4 6.6,1.7 6.6,1.7 l -4.4,1.6 -6.4,5 z"
   id="path68" />
			<path
   class="st2"
   d="m 171.9,189.4 c 1.1,-1.6 1.3,-3.3 3.9,-3.8 1.2,-0.2 4.5,0.5 7.4,1.1 -1.3,2.5 -3.2,5.2 -4.7,6.6 -2.6,-1.4 -7.3,-2.9 -6.6,-3.9 z"
   id="path69" />
			<path
   class="st0"
   d="m 165.9,337.3 c -2.4,-4.9 -12.1,-24.6 -12.7,-28.6 2,2.3 10.9,18.1 14.7,26.8 0.4,0.7 0.6,2 -0.1,2.3 -0.7,0.5 -1.6,0.2 -1.9,-0.5 z"
   id="path70" />
			<path
   class="st0"
   d="m 122.3,370.3 c 0.1,-2.4 -1.6,-7.2 -3.9,-16 9.6,0.5 30.1,-1 30.1,-1 0,0 0.4,6.4 -1.6,15.4 3.5,7.4 4,18.6 3,26.5 -0.2,1.7 -1.7,3 -3.4,3 H 63.8 c -2.9,-0.4 -3,-28.8 25.5,-30.4 8.1,-0.4 22.2,0.8 33,2.5 z"
   id="path71" />
			<path
   class="st5"
   d="m 65.7,395.2 h 80.9 c 0.2,0 0.4,-0.1 0.4,-0.3 0.9,-7.4 0.5,-18 -2.8,-24.9 -0.3,-0.6 -0.4,-1.3 -0.2,-1.9 0.8,-3.5 1.3,-7 1.5,-10.5 0,-0.3 0,-0.7 0.1,-1 -4.8,0.3 -9.6,0.6 -14.3,0.7 -2.9,0.1 -5.8,0.2 -8.7,0.2 0.9,3.4 3.2,13.3 1.8,15.5 -4.4,0.1 -11.4,-0.9 -14.2,-1.2 -3.7,-0.4 -7.5,-0.7 -11.3,-0.9 -3,-0.1 -6.2,-0.2 -9.2,-0.1 -8.9,0.5 -16.8,4 -21.1,12.1 -1.4,2.6 -2.3,5.6 -2.7,8.6 -0.3,0.8 -0.4,2.5 -0.2,3.7 z"
   id="path72" />
			<path
   class="st6"
   d="m 65.7,395.2 h 80.9 c 0.2,0 0.4,-0.1 0.4,-0.3 0.9,-7.4 0.5,-18 -2.8,-24.9 -0.3,-0.6 -0.4,-1.3 -0.2,-1.9 0.8,-3.5 1.3,-7 1.5,-10.5 0,-0.3 0,-0.7 0.1,-1 -2.6,0.2 -5.3,0.3 -7.9,0.5 0.3,10.8 -2,17 -2,17 0,0 2.9,6.1 3.1,10.8 0.2,4.7 -32.6,2.1 -32.6,2.1 0,0 -12,-0.7 -38.8,-1.3 -0.7,1.9 -1.2,3.9 -1.5,5.9 -0.3,0.7 -0.4,2.4 -0.2,3.6 z"
   id="path73" />
			<path
   class="st0"
   d="m 68.3,187.1 c 2.1,9.7 3,19.3 -1.4,28.6 -0.1,0.3 -0.6,0.5 -0.4,-0.3 0,-0.4 0.2,-1 0.2,-1.3 2.3,-10.5 0.8,-17.6 -1.1,-27.7 -0.2,-0.7 0.2,-0.1 1,-0.3 0.7,-0.2 1.5,0.2 1.7,1 z m -1.5,28.5 z"
   id="path74" />
			<path
   class="st0"
   d="m 68.9,190.5 c 2.6,4.2 4.1,7.4 4.6,12.4 -2.2,-3.5 -4,-7 -6.4,-10.3 -0.6,-0.5 -0.6,-1.4 -0.1,-1.9 0.5,-0.6 1.3,-0.7 1.9,-0.2 z"
   id="path75" />
			<path
   class="st0"
   d="m 236.8,301.4 c -0.8,1.2 -7.6,11.6 -9.9,10.8 L 227,312 c 3.1,-3.9 4.9,-7.1 7.3,-11.6 0.3,-0.7 1.1,-1.1 1.8,-0.8 0.7,0.3 1,1.1 0.7,1.8 z"
   id="path76" />
			<path
   class="st0"
   d="m 209.2,242.6 c 3.9,-9.2 11.6,-12.4 21.2,-12 4.8,0.2 5.5,0.6 9.6,2.4 -10.9,-1.8 -23.6,-1.8 -28.2,10.4 -0.2,0.7 -1,1.1 -1.7,0.9 -0.8,-0.2 -1.2,-1 -0.9,-1.7 z"
   id="path77" />
			<path
   class="st0"
   d="m 246.1,231.5 c -0.2,-0.3 -0.2,-0.7 0.1,-0.9 0.3,-0.2 0.7,-0.2 0.9,0.1 9.4,11.5 -3.4,33 -13.5,49.9 -1.2,2.1 -2.4,4.1 -3.6,6.2 -5,8.6 -8.4,16.1 -8.9,21.8 -0.5,5.3 1.9,8.9 8.5,10 0.4,0.1 0.6,0.4 0.5,0.7 -0.1,0.4 -0.4,0.6 -0.7,0.5 -7.4,-1.2 -10.1,-5.3 -9.6,-11.4 0.5,-5.8 4,-13.5 9.1,-22.3 1.1,-1.8 2.3,-4 3.6,-6.2 10,-16.6 22.5,-37.6 13.6,-48.4 z"
   id="path78" />
			<g
   id="g83">
				<path
   class="st0"
   d="m 252.3,245.7 c 2.2,3.8 1.2,9 -2.2,11.8 -3.4,2.7 -7.9,1.9 -10.1,-1.8 -2.2,-3.8 -1.2,-9 2.2,-11.8 3.4,-2.7 7.9,-1.9 10.1,1.8 z"
   id="path79" />
				<path
   class="st1"
   d="m 250.9,246.9 c -1.7,-2.9 -5.1,-3.5 -7.7,-1.4 -2.6,2.1 -3.3,6.1 -1.7,9 1.7,2.9 5.1,3.5 7.7,1.4 2.6,-2.1 3.3,-6.1 1.7,-9 z"
   id="path80" />
				<path
   class="st0"
   d="m 250.5,251.5 c -0.5,2.8 -2.8,4.6 -5.2,4.2 -2.4,-0.4 -3.9,-3 -3.3,-5.8 0.5,-2.8 2.8,-4.6 5.2,-4.2 2.3,0.4 3.8,3 3.3,5.8 z"
   id="path81" />
				<path
   class="st1"
   d="m 249.6,251.3 c 0.4,-2.2 -0.8,-4.3 -2.7,-4.6 -1.9,-0.3 -3.8,1.2 -4.2,3.4 -0.4,2.2 0.8,4.3 2.7,4.6 1.9,0.3 3.8,-1.2 4.2,-3.4 z"
   id="path82" />
				<path
   class="st0"
   d="m 249.6,251.3 c 0,-0.3 0.1,-0.5 0.1,-0.8 l -6.7,-1.2 c -0.1,0.2 -0.2,0.5 -0.2,0.8 0,0.3 -0.1,0.5 -0.1,0.8 l 6.7,1.2 c 0.1,-0.3 0.1,-0.5 0.2,-0.8 z"
   id="path83" />
			</g>
			<path
   class="st0"
   d="m 22.2,126.2 c -1.1,-6.4 -1.4,-13 -1,-19.5 0.3,-4.5 1.1,-10.6 3.1,-14.7 1.2,-2.4 2.6,-4.9 4.3,-7 1.4,-1.7 3.5,-3.5 6,-2.9 4.2,1.1 4,7.8 3.8,11.1 v 2.3 c 1.4,-3.4 3.1,-6.5 5.2,-8.9 1.1,-1.3 2.5,-2.5 4,-3.3 1.5,-0.8 3.3,-1.1 4.9,-0.4 4.3,1.9 3.3,8.3 2.4,11.8 l -12,48.8 c -0.3,1.1 -1.2,1.9 -2.3,2 -0.9,0.1 -2.6,0.3 -3.2,1.2 -0.6,1 -0.3,3.3 -0.1,4.4 0.5,3 1.3,5.9 1.8,8.8 0.1,0.7 0,1.3 -0.4,1.8 -1.2,1.8 -1.8,-0.2 -3.6,0.9 -3.1,1.9 -7,4.1 -10.3,5.1 -6.5,1.9 -12.1,0.5 -16.3,-7.5 -2.9,-5.5 -3.1,-13.4 -1.4,-19.3 0,-0.1 0.1,-0.2 0.1,-0.3 2.8,-6.2 8.9,-11.1 15,-14.4 z"
   id="path84" />
			<path
   class="st1"
   d="m 9.6,141.8 c -1.9,6.3 -1,23.2 10.8,26.5 11.8,3.3 16.1,-7.9 16.1,-7.9 -1.5,-9.3 -5.3,-16.6 3.8,-17.5 l 12,-48.8 c 2.5,-10.2 -2.1,-11.2 -6.7,-5.8 -4.3,5 -8.4,15.4 -9.8,29.6 l 0.1,-24.7 c 0.7,-13.2 -4.5,-9.4 -9.1,0 -2.5,5.2 -4.2,17.9 -2.1,31.7 0.1,0.9 -3.7,-0.1 -3.6,0.8 -4.3,2.1 -8.3,8.8 -11.5,16.1 z"
   id="path85" />
			<g
   id="g87">
				<path
   class="st9"
   d="m 35.1,85.8 c -1.5,-3.2 -5.1,0.6 -8.4,7.4 -2.3,4.8 -3.9,15.8 -2.5,28.1 0.7,-1.9 1.4,-5.2 1.9,-11.1 0.8,-11.6 1.5,-16.4 9,-24.4 z"
   id="path86" />
				<path
   class="st9"
   d="m 52.5,86.3 c -1.2,-2.3 -4,-1.4 -6.9,1.9 -4.2,4.9 -8.3,15.2 -9.8,29.1 l 1.2,1.2 c 0,0 0.5,-2.4 2.9,-11.7 2.2,-8.3 6.8,-15.6 12.6,-20.5 z M 35.8,117.4 V 113 c -0.2,2.5 -0.3,4.1 -0.3,4.1 z"
   id="path87" />
			</g>
			<path
   class="st0"
   d="m 1.6,130.9 c 1,-2.9 3.5,-5.6 6.7,-6 4.1,-0.4 6.8,2.9 8.2,6.3 1.7,4.1 2.2,10.2 2.1,14.6 0,0.1 0,0.2 0,0.2 -0.2,1.4 -0.5,3 -1,4.3 -0.7,1.9 -1.8,3.9 -3.8,4.5 -3.3,1.1 -5.9,-2.1 -7.5,-4.5 -3.5,-5.1 -6.9,-13.2 -4.7,-19.4 z"
   id="path88" />
			<path
   class="st1"
   d="m 4,131.7 c -1.5,4.1 0.1,10.7 4.3,17.3 6.1,9.5 7.6,-3.3 7.6,-3.3 0,0 0.2,-8.3 -1.9,-13.6 -3,-7.3 -8.4,-4.9 -10,-0.4 z"
   id="path89" />
			<path
   class="st9"
   d="m 4,131.7 c -1.5,4.1 0.1,10.7 4.3,17.3 1.8,2.8 3.2,3.6 4.2,3.5 -0.9,-0.9 -2.4,-3 -4.5,-7.5 -3.2,-7.1 -2.9,-13.6 0.4,-17.6 -1.9,0.4 -3.6,2.1 -4.4,4.3 z"
   id="path90" />
			<path
   class="st0"
   d="m 36.1,101.1 c 0,-0.5 0.4,-0.9 0.9,-0.8 0.5,0 0.9,0.4 0.8,0.9 -0.1,3.2 -0.3,5.3 -0.5,7.5 -0.2,2.7 -0.5,5.5 -0.5,10.1 0,0.5 -0.4,0.9 -0.9,0.8 -0.5,0 -0.9,-0.4 -0.8,-0.9 0.1,-4.8 0.3,-7.5 0.5,-10.2 0.2,-2.3 0.4,-4.4 0.5,-7.4 z"
   id="path91" />
			<path
   class="st0"
   d="m 25.1,96.4 c -0.3,0.2 -0.7,0.2 -0.9,-0.1 -0.2,-0.3 -0.2,-0.7 0.1,-1 0.1,-0.1 0.3,-0.2 0.4,-0.3 1.2,-0.7 3.6,-1 5.9,-0.8 2.4,0.2 4.8,0.9 6,2.4 0.1,0.2 0.3,0.4 0.4,0.5 0.2,0.3 0.1,0.7 -0.3,0.9 -0.3,0.2 -0.7,0.1 -0.9,-0.3 -0.1,-0.1 -0.1,-0.2 -0.2,-0.4 -0.9,-1.2 -3,-1.8 -5,-1.9 -2.1,-0.2 -4.2,0.1 -5.2,0.7 -0.1,0.1 -0.2,0.2 -0.3,0.3 z"
   id="path92" />
			<path
   class="st0"
   d="m 23.1,109.9 c -0.3,0.2 -0.7,0.2 -0.9,0 -0.2,-0.3 -0.2,-0.7 0,-0.9 0.1,-0.1 0.3,-0.2 0.5,-0.3 1.3,-0.8 3.9,-1.4 6.6,-1.3 2.7,0.1 5.4,0.7 6.8,2.3 0.2,0.2 0.3,0.4 0.4,0.6 0.2,0.3 0.1,0.7 -0.2,0.9 -0.3,0.2 -0.7,0.1 -0.9,-0.2 -0.1,-0.1 -0.2,-0.3 -0.3,-0.4 -1.2,-1.3 -3.5,-1.8 -5.8,-1.9 -2.4,0 -4.7,0.4 -5.9,1.1 -0.2,-0.1 -0.3,0 -0.3,0.1 z"
   id="path93" />
			<path
   class="st0"
   d="m 41.1,95.7 c -0.3,0.2 -0.7,0 -0.9,-0.3 -0.2,-0.3 0,-0.7 0.3,-0.9 0.1,-0.1 0.3,-0.1 0.5,-0.2 1.3,-0.4 3.7,-0.3 6,0.3 2.3,0.6 4.5,1.8 5.4,3.5 0.1,0.2 0.2,0.4 0.3,0.6 0.1,0.3 -0.1,0.7 -0.4,0.8 -0.3,0.1 -0.7,-0.1 -0.8,-0.4 0,-0.1 -0.1,-0.3 -0.2,-0.4 -0.7,-1.3 -2.6,-2.3 -4.6,-2.8 -2,-0.6 -4.1,-0.7 -5.3,-0.3 -0.2,0 -0.2,0.1 -0.3,0.1 z"
   id="path94" />
			<path
   class="st0"
   d="m 36.9,109 c -0.3,0.2 -0.7,0.1 -0.9,-0.2 -0.2,-0.3 -0.1,-0.7 0.2,-0.9 0.2,-0.1 0.3,-0.2 0.5,-0.2 1.4,-0.6 4.1,-0.6 6.7,-0.1 2.6,0.6 5.1,1.7 6.2,3.5 0.1,0.2 0.2,0.4 0.3,0.6 0.1,0.3 0,0.7 -0.4,0.8 -0.3,0.1 -0.7,0 -0.8,-0.4 -0.1,-0.2 -0.1,-0.3 -0.2,-0.4 -0.9,-1.5 -3.1,-2.4 -5.4,-2.9 -2.3,-0.5 -4.7,-0.5 -6,0 0,0.1 -0.1,0.2 -0.2,0.2 z"
   id="path95" />
			<path
   class="st0"
   d="m 10.6,127.4 c 1,-4 4.3,-7.2 8.3,-6.8 2.3,0.3 3.9,1.6 5.1,3.4 0.2,0.4 -0.1,0.2 0.1,0.6 0.7,1.4 -4.7,-1.6 -4.5,0 0.3,1.9 6.2,9.5 6.3,11.4 0.2,2.8 0.9,5 0.7,7.8 0,0.1 0,0.2 0,0.2 -0.3,1.4 -0.7,3.1 -1.3,4.4 -0.8,1.8 -2,3.6 -3.9,4.1 -1.4,0.3 -2.7,-0.1 -3.8,-1.1 -1.2,-1 -2.1,-2.4 -2.8,-3.8 -0.9,-1.6 -1.6,-3.4 -2.2,-5.1 -1.7,-4.2 -3.1,-10.6 -2,-15.1 z"
   id="path96" />
			<path
   class="st1"
   d="m 12.9,128.2 c -1.1,4.2 0.7,12.3 3.8,18.2 5.1,9.6 7.4,-2.9 7.4,-2.9 0.6,-6 -0.2,-10.5 -0.6,-13.5 -0.3,-2.2 0,-3.8 -0.9,-4.9 -0.6,-0.7 -2.1,-1.3 -2.9,-1.6 -2.6,-1 -5.8,0.9 -6.8,4.7 z"
   id="path97" />
			<path
   class="st9"
   d="m 12.9,128.2 c -1.1,4.2 0.7,12.3 3.8,18.2 0.9,1.7 1.7,2.7 2.5,3.2 -0.8,-1.9 -2.1,-5.5 -3.2,-11.7 -1.5,-8 -1.1,-12 1.6,-14.7 -2.1,0.5 -4,2.3 -4.7,5 z"
   id="path98" />
			<path
   class="st0"
   d="m 23.5,141.9 c -0.5,-1 -1.2,-1.6 -2,-1.8 -0.6,-0.2 -1.3,-0.3 -1.9,-0.2 -0.7,0.1 -1.4,0.4 -2,0.7 -1.2,0.7 -2.1,1.8 -2.4,3 L 14,143.2 c 0.4,-1.6 1.6,-2.9 3,-3.8 0.7,-0.4 1.6,-0.8 2.4,-0.9 0.8,-0.1 1.7,-0.1 2.5,0.2 1.1,0.4 2,1.2 2.7,2.5 z"
   id="path99" />
			<path
   class="st0"
   d="m 20.6,129.7 c -0.3,-0.3 -0.4,-0.9 0,-1.2 0.3,-0.3 0.9,-0.4 1.2,0 1.3,1.3 2.4,3.6 2.9,6.9 0.5,2.8 0.7,6.4 0.3,10.5 0,0.5 -0.5,0.8 -0.9,0.8 -0.5,0 -0.8,-0.5 -0.8,-0.9 0.4,-4 0.2,-7.4 -0.3,-10.1 -0.4,-2.9 -1.3,-5 -2.4,-6 z"
   id="path100" />
			<path
   class="st0"
   d="m 22.9,134.9 c -2.1,-4.1 -8.5,-3.6 -9.8,0.9 l -1.2,-0.4 c 1.6,-5.6 9.4,-6.3 12.1,-1.1 z"
   id="path101" />
			<path
   class="st0"
   d="m 14.3,143.8 c -0.7,-0.9 -1.5,-1.5 -2.3,-1.7 -0.7,-0.2 -1.4,-0.2 -2.1,0 -0.7,0.2 -1.4,0.5 -2,0.9 -1.2,0.8 -2,2 -2.3,3.2 l -1.3,-0.3 c 0.3,-1.6 1.4,-3.1 2.8,-4 0.7,-0.5 1.6,-0.9 2.5,-1.1 0.9,-0.2 1.8,-0.2 2.7,0 1.2,0.3 2.3,1 3.2,2.3 z"
   id="path102" />
			<path
   class="st0"
   d="m 11.5,136.8 c -0.4,-0.6 0.5,-0.9 -0.1,-1.2 -3.2,-2.2 -8.2,-0.8 -9,3.1 l -1.3,-0.3 c 0.9,-4.7 6.4,-6.4 10.4,-4.3 0.9,0.5 0.4,1.1 1.1,2 z"
   id="path103" />
			<path
   class="st0"
   d="m 24.6,124.9 c -0.3,0.2 -0.7,0.1 -0.9,-0.2 -0.2,-0.3 -0.1,-0.7 0.2,-0.9 1.8,-1.1 7,-1.7 11.8,-1.4 3.8,0.3 7.4,1.1 9.1,2.8 0.2,0.3 0.2,0.7 0,0.9 -0.3,0.2 -0.7,0.2 -0.9,0 -1.4,-1.5 -4.7,-2.2 -8.2,-2.4 -4.6,-0.3 -9.5,0.2 -11.1,1.2 z"
   id="path104" />
			<path
   class="st0"
   d="m 39.2,135.9 c -1.6,-0.9 -3.1,-1.8 -4.1,-2.5 -3.7,-2.6 -10,-9.2 -8.4,-14.3 1.1,-3.3 5.4,-2.4 8,-1.9 3.4,0.7 6.8,1.8 10.1,2.9 3.2,1.1 4.6,1.6 7.8,2.8 6.5,2.4 9.9,12.7 8,19.4 -4.6,16.6 -13.8,27 -32.2,22.4 -0.9,-0.3 1,1.2 0.8,0.3 -1.1,-3.9 -0.7,-3.9 -0.9,-7.1 -0.5,-7.7 1,-16.9 9.3,-21.2 0.4,-0.3 1,-0.6 1.6,-0.8 z"
   id="path105" />
			<path
   class="st1"
   d="m 25.6,166.3 c 18.1,2.7 28.3,-10.8 32.2,-22.4 0.8,-2.3 1.3,-4.5 1.6,-6.5 0.3,-1.9 -1.5,-6.2 -3.4,-8.6 -2.3,-2.9 -6.3,-4.9 -6.4,-4.9 -8.3,-3 -19.7,-6.3 -20.5,-4 -0.9,2.8 3.1,8.2 7.4,11.3 1.9,1.4 6.4,4 8.6,4.5 1.9,0.4 -2.3,1.1 -6.6,3.3 -6.8,3.5 -12.8,12.7 -10.8,25.3 0.2,1 -2.5,0.9 -2.1,2 z"
   id="path106" />
			<g
   id="g111">
				<path
   class="st0"
   d="m 58.5,132.7 c 2,3.8 0.8,9.1 -2.7,11.7 -3.5,2.6 -8,1.6 -10,-2.3 -2,-3.8 -0.8,-9.1 2.7,-11.7 3.5,-2.5 7.9,-1.5 10,2.3 z"
   id="path107" />
				<path
   class="st1"
   d="m 56.9,133.9 c -1.5,-2.9 -5,-3.7 -7.6,-1.7 -2.7,2 -3.6,6 -2.1,8.9 1.5,2.9 5,3.7 7.6,1.7 2.8,-2 3.7,-6 2.1,-8.9 z"
   id="path108" />
				<path
   class="st0"
   d="m 56.3,138.4 c -0.6,2.7 -3,4.5 -5.4,4 -2.3,-0.5 -3.7,-3.2 -3.1,-5.9 0.6,-2.7 3,-4.5 5.4,-4 2.4,0.5 3.8,3.2 3.1,5.9 z"
   id="path109" />
				<path
   class="st1"
   d="m 55.5,138.2 c 0.5,-2.2 -0.6,-4.3 -2.5,-4.7 -1.9,-0.4 -3.8,1 -4.3,3.2 -0.5,2.2 0.6,4.3 2.5,4.7 1.9,0.4 3.8,-1 4.3,-3.2 z"
   id="path110" />
				<path
   class="st0"
   d="m 55.5,138.2 c 0.1,-0.3 0.1,-0.5 0.1,-0.8 l -6.7,-1.5 c -0.1,0.2 -0.2,0.5 -0.2,0.8 -0.1,0.3 -0.1,0.5 -0.1,0.8 l 6.7,1.5 c 0.1,-0.3 0.1,-0.5 0.2,-0.8 z"
   id="path111" />
			</g>
			<path
   class="st0"
   d="m 49.8,123.8 c 0,-0.4 0.3,-0.7 0.6,-0.7 0.4,0 0.7,0.3 0.7,0.6 0.1,2.2 -0.2,5.1 -1.7,7.6 -1.1,1.9 -2.8,3.6 -5.3,4.6 -0.3,0.1 -0.7,0 -0.8,-0.4 -0.1,-0.3 0,-0.7 0.4,-0.8 2.2,-0.9 3.7,-2.4 4.7,-4.1 1.2,-2.1 1.5,-4.8 1.4,-6.8 z"
   id="path112" />
			<path
   class="st0"
   d="m 39.6,119.6 c 0,-0.4 0.3,-0.7 0.6,-0.7 0.4,0 0.7,0.3 0.7,0.6 0.1,2 -0.2,4.6 -1.5,6.9 -1,1.7 -2.5,3.3 -4.8,4.2 -0.3,0.1 -0.7,0 -0.8,-0.4 -0.1,-0.3 0,-0.7 0.4,-0.8 2,-0.8 3.3,-2.2 4.2,-3.7 1,-1.9 1.3,-4.3 1.2,-6.1 z"
   id="path113" />
			<path
   class="st0"
   d="m 196.7,93.6 c -13.4,29.5 -31.8,62.7 -30.3,91.9 0.6,11.7 -23,12.3 -31.7,8.6 -17.5,-7.4 11.4,-57.8 30.2,-81.6 5.3,-6.8 10.7,-11 12.9,-12 8.4,-3.7 18.9,-5.4 18.9,-6.9 z"
   id="path114" />
			<path
   class="st0"
   d="m 191.4,98.7 c -3.2,0.9 -6.5,1.9 -9.6,3 -1,0.4 -2,0.8 -2.9,1.2 -1.4,0.6 -3.4,2.3 -4.6,3.3 -2.7,2.4 -5.1,5 -7.3,7.8 -6.9,8.8 -13.3,18.5 -18.9,28.2 -2.9,5 -5.7,10.2 -8.1,15.4 -2.2,4.7 -4.2,9.5 -5.8,14.4 -1.4,4.4 -4,14.2 -0.4,18.2 0.5,0.6 1.2,1 2,1.4 3.7,1.6 9.5,1.9 13.5,1.7 4.3,-0.2 14.8,-1.6 14.5,-7.7 -0.5,-10.8 1.5,-21.7 4.6,-32 3.3,-11.1 7.8,-21.8 12.6,-32.4 3.3,-7.5 6.9,-14.9 10.4,-22.5 z"
   id="path115" />
			<path
   class="st0"
   d="m 133.6,171.7 c -0.4,0.8 -0.2,2.5 0.1,3.4 0.7,1 3.8,2.4 4.9,2.8 3.5,1.3 7.3,2.1 11,2.2 1.7,0.1 3.4,0 5.1,-0.2 2.2,-0.2 7.6,-1.1 8.7,-3.4 0.1,-0.2 0.1,-0.4 0.2,-0.6 0.1,-0.6 0.1,-1.2 0.2,-1.8 0,-0.3 0,-0.7 0.1,-1 0.2,-1.7 1.3,-3 3.1,-3.2 2.9,-0.2 5.7,0.7 7.9,2.7 2.5,2.4 3.6,5.9 3.3,9.3 -0.4,4 -2.6,7.4 -5.7,9.7 -6,4.6 -14.3,6.4 -21.8,6.5 -6.1,0.1 -12.8,-0.8 -18.6,-3.1 -4.9,-1.9 -10,-5.3 -11.6,-10.6 -0.4,-1.4 -0.6,-2.8 -0.4,-4.2 0.6,-7.1 2.6,-12.3 10.4,-13.6 1.3,-0.2 3.2,-0.3 3.9,0.8 0.6,1.3 -0.1,3.2 -0.8,4.3 z m 0,0.1"
   id="path116" />
			<path
   class="st1"
   d="m 130.9,170 c -6.2,1 -7.3,5 -7.8,10.6 -1.1,14.1 32.6,19.6 47.2,8.5 8,-6 4.5,-16.6 -3.3,-16 -0.3,0 0.1,2.9 -0.8,4.7 -2,4.5 -10.5,5.7 -16.8,5.5 -9.7,-0.4 -18.1,-4.4 -18.9,-7.2 -1,-4.1 0.4,-6.1 0.4,-6.1 z"
   id="path117" />
			
				<circle
   transform="matrix(0.07012321,-0.9975,0.9975,0.07012321,72.8782,236.8229)"
   class="st0"
   cx="163.5"
   cy="79.300003"
   id="ellipse117"
   r="39.700001" />
			
				<circle
   transform="matrix(0.9994,-0.0334362,0.0334362,0.9994,-2.5608,5.5101)"
   class="st2"
   cx="163.5"
   cy="79.300003"
   id="ellipse118"
   r="36.5" />
			<path
   class="st1"
   d="m 163.5,42.9 c -17.5,0 -32,12.3 -35.6,28.6 2.6,17.6 17.7,31.1 36.1,31.1 17.5,0 32,-12.3 35.6,-28.6 C 197,56.4 181.8,42.9 163.5,42.9 Z"
   id="path118" />
			<path
   class="st0"
   d="m 133.7,55.7 c -5.7,6.4 -7.8,18.6 -7.8,23.6 0,5.1 1.2,1.6 1.2,2.4 8,-7.9 10.4,-5.5 14.2,-3.3 3.8,2.3 4.5,9.7 14.9,11.3 C 166.6,91.3 180.4,75 173,66.6 167.1,60 150.8,54.5 138.4,54.9 c -0.7,0.1 -4,0.7 -4.7,0.8 z"
   id="path119" />
			<path
   class="st1"
   d="m 163.1,119.2 c 2.4,0.1 5.5,0.5 8.6,1.2 2.8,0.7 5.6,1.7 8.2,3.1 -0.3,0.7 -0.6,1.3 -0.9,2 -2.4,-1.4 -5.1,-2.3 -7.8,-3 -3.7,-0.9 -7.3,-1.2 -9.6,-1.2 0.5,-0.7 1,-1.4 1.5,-2.1 z m -7.3,10.5 c -0.5,0.7 -1,1.5 -1.4,2.2 2.8,-0.3 5.8,0 8.9,0.8 3.5,0.9 7.2,2.4 10.7,4.7 0.3,-0.7 0.5,-1.3 0.8,-2 -3.6,-2.3 -7.4,-3.8 -11,-4.7 -2.7,-0.7 -5.4,-1 -8,-1 z m -8.2,13.4 c -0.4,0.7 -0.8,1.4 -1.2,2.1 4.1,0.1 8.2,0.6 12.1,1.4 3.7,0.8 7.3,2 10.8,3.7 0.2,-0.7 0.4,-1.4 0.7,-2 -3.6,-1.7 -7.3,-2.9 -11.1,-3.7 -3.7,-0.9 -7.4,-1.3 -11.3,-1.5 z m -7.1,13.4 c -0.2,0.4 -0.4,0.8 -0.6,1.2 -0.1,0.2 -0.2,0.5 -0.3,0.7 2.1,0.7 5.2,1.4 8.6,2 6.1,1.1 13.3,2.1 17.7,2.6 0.2,-0.7 0.3,-1.4 0.5,-2.1 -4.3,-0.5 -11.6,-1.5 -17.8,-2.6 -3.3,-0.6 -6.2,-1.2 -8.1,-1.8 z m -5.4,12.7 c -0.2,0.7 -0.5,1.3 -0.7,2 3.2,1.8 8,3 13,3.6 5.9,0.7 12.1,0.7 16.6,-0.2 0.1,-0.7 0.2,-1.5 0.2,-2.2 -4.1,1 -10.5,1.1 -16.5,0.3 -5.1,-0.6 -9.8,-1.8 -12.6,-3.5 z"
   id="path120" />
			<circle
   class="st1"
   cx="163.3"
   cy="76.400002"
   r="5.9000001"
   id="circle120" />
			<path
   class="st0"
   d="m 163,95.7 c 1,0.3 3.6,0.3 4.7,0.4 3,0.2 8.1,0.3 9.1,3.8 0.2,0.8 0.2,1.7 -0.2,2.5 -1.4,3.5 -6.9,6.2 -10.1,7.7 -5.3,2.5 -11.1,4.6 -16.7,6.5 -3.7,1.3 -7.5,2.4 -11.3,3.5 -9.2,2.7 -18.2,5.1 -27.9,3.6 -2.8,-0.4 -6,-1.5 -7,-4.4 -0.9,-2.7 0.5,-5.2 2.1,-7.3 1.9,-2.4 4.5,-4.6 6.9,-6.6 4.4,-3.6 11.1,-9.3 13.6,-14.6 1.5,-3.1 3.3,-6.3 5.7,-8.8 2,-2.1 4.6,-3.8 7.7,-3.5 4.9,0.6 7.3,6 8.5,10.1 1.5,5.7 10.4,4.8 14.9,7.1 z"
   id="path121" />
			<path
   class="st3"
   d="m 144.9,89.7 c 2.3,7.9 12.7,6.7 16.6,8.9 2,1.1 13.1,0.2 12.1,2.7 -1.9,4.6 -21.4,11.6 -36,15.8 -8.7,2.5 -17.4,4.9 -26.6,3.5 -7.7,-1.2 -5.1,-5.5 3.5,-12.6 8.8,-7.3 12.6,-11.9 14.4,-15.7 5.8,-11.9 12.5,-14.8 16,-2.6 z"
   id="path122" />
			<path
   class="st0"
   d="m 163.7,99 c -0.4,1.7 -2,3 -3.4,4 -2.3,1.6 -4.8,3.1 -7.3,4.4 -7.3,3.9 -15.1,7.3 -22.8,10.2 -7.9,3 -17.6,6.1 -26.1,6.7 -4,0.3 -11.7,0.7 -13.3,-4.1 -1.2,-3.6 2.1,-7.1 4.5,-9.4 3.1,-3 6.6,-5.7 9.9,-8.4 0.8,-0.6 1.5,-1.2 2.3,-1.9 3.8,-3.1 14.5,-11.8 16.5,-16.2 1.3,-2.8 3.1,-5.7 5.5,-7.8 2,-1.8 4.6,-3 7.4,-2.8 1.4,0.1 2.7,0.7 3.9,1.4 2.2,1.5 4,3.2 5.9,5 1.3,1.4 2.7,2.8 4.1,4.1 1.7,1.4 3.3,2.2 5.5,2.6 3.5,0.6 7.5,0.1 11,-0.5 2.3,-0.4 5.2,-0.7 6.3,2 0.9,2.3 -0.8,4.1 -2.4,5.4 -1.2,0.9 -2.5,1.8 -3.8,2.7 -0.9,0.6 -1.9,1.2 -2.8,1.9 -0.3,0.3 -0.6,0.5 -0.9,0.7 z"
   id="path123" />
			<path
   class="st4"
   d="m 159.6,99.6 c -6,5.2 -37.9,20.4 -55.7,21.6 -20.1,1.4 -5.9,-8.6 5.7,-18.1 8.8,-7.3 15.6,-13.5 17.4,-17.3 3.7,-7.8 8.3,-10.4 12.1,-7.9 9.6,6.5 9.3,15.3 28.8,11.7 7.9,-1.5 -5.9,7.9 -8.3,10 z"
   id="path124" />
			<path
   class="st0"
   d="m 170.5,85.7 c 5.2,0 9.5,4.2 9.5,9.5 0,5.2 -4.2,9.5 -9.5,9.5 -5.2,0 -9.5,-4.2 -9.5,-9.5 0.1,-5.3 4.3,-9.5 9.5,-9.5 z"
   id="path125" />
			<g
   id="g129">
				<path
   class="st1"
   d="m 170.5,87.9 c -4,0 -7.2,3.2 -7.2,7.2 0,4 3.2,7.2 7.2,7.2 4,0 7.2,-3.2 7.2,-7.2 0.1,-3.9 -3.2,-7.2 -7.2,-7.2 z"
   id="path126" />
				<path
   class="st0"
   d="m 174.6,91.1 c 2.2,2.2 2.2,5.8 0,8 -2.2,2.2 -5.8,2.2 -8,0 -2.2,-2.2 -2.2,-5.8 0,-8 2.1,-2.2 5.7,-2.2 8,0 z"
   id="path127" />
				<path
   class="st1"
   d="m 173.8,91.9 c -1.8,-1.8 -4.7,-1.8 -6.4,0 -1.8,1.8 -1.8,4.7 0,6.4 1.8,1.8 4.7,1.8 6.4,0 1.7,-1.7 1.7,-4.6 0,-6.4 z"
   id="path128" />
				<path
   class="st0"
   d="m 173.8,91.9 c -0.2,-0.2 -0.4,-0.4 -0.7,-0.6 l -6.3,6.3 c 0.2,0.2 0.4,0.5 0.6,0.7 0.2,0.2 0.4,0.4 0.7,0.6 l 6.3,-6.3 c -0.2,-0.2 -0.4,-0.4 -0.6,-0.7 z"
   id="path129" />
			</g>
			<path
   class="st0"
   d="m 165.8,72.6 c -1.4,0 -2.5,1.1 -2.5,2.5 0,1.4 1.1,2.5 2.5,2.5 1.4,0 2.5,-1.1 2.5,-2.5 0,-1.4 -1.1,-2.5 -2.5,-2.5 z"
   id="path130" />
			<path
   class="st1"
   d="m 133.6,66.9 c -1.3,-0.4 -2.9,1.2 -3.7,3.7 -0.8,2.4 -0.4,4.8 0.9,5.2 1.3,0.4 2.9,-1.2 3.7,-3.7 0.8,-2.5 0.3,-4.8 -0.9,-5.2 z"
   id="path131" />
			<path
   class="st0"
   d="m 134,68.7 c -0.6,-0.2 -1.3,0.5 -1.6,1.6 -0.3,1.1 -0.2,2.1 0.4,2.2 0.6,0.2 1.3,-0.5 1.6,-1.6 0.4,-1 0.2,-2 -0.4,-2.2 z"
   id="path132" />
			<path
   class="st9"
   d="m 192.1,76.1 c 0,-12.3 -7.2,-20.2 -18.6,-24.1 -6.6,-2.2 1.6,0.8 -5.2,-1.8 3.8,-0.6 4.6,-0.7 8.5,0.3 12.7,3.1 20.1,12.8 21.1,25.6 0,1.6 -1.3,2.8 -2.9,2.8 -1.7,0 -2.9,-1.3 -2.9,-2.8 z"
   id="path133" />
			<path
   class="st12"
   d="m 136.5,83.7 c -5.5,10.6 -8.5,11.8 -18,18.5 -6.4,4.6 -13.1,9.7 -20.2,13.1 4.5,-6.7 11,-11.8 17.1,-17.1 7.7,-6.8 10.4,-7.8 14.5,-17.3 0.8,-1.8 2.9,-2.7 4.7,-1.9 1.8,0.8 2.7,2.9 1.9,4.7 z"
   id="path134" />
			<path
   class="st9"
   d="m 130.5,173.6 c -1.1,10.1 26.3,13.1 34.6,7.2 l 0.8,-0.6 c -3.9,8.6 -39.9,8.6 -38.9,-7.2 0.2,-1 1.1,-1.6 2,-1.4 1,0.1 1.6,1 1.5,2 z"
   id="path135" />
			<path
   class="st0"
   d="m 163.5,50.6 c -0.5,0.4 -1.2,0.6 -1.9,0.5 l -7,-0.9 c -1.2,-0.2 -2.1,-1.1 -2.2,-2.2 -1,-7.6 -4.6,-27.1 -10.5,-36.2 -1.3,-2.1 -6.8,-6.3 -6.6,-7.5 0.4,-1.6 17.2,-2.7 19.3,-2.9 2.9,-0.3 5.8,-0.5 8.7,-0.5 20.5,-0.1 39.3,7.5 50.1,25.6 2.5,4.2 4.4,8.8 5.8,13.6 4.4,15.9 5.6,33.1 -1.5,48.5 -0.8,1.6 -2.4,1.8 -3.7,1.2 -0.2,-0.1 -0.3,-0.2 -0.5,-0.2 -0.5,-0.3 -1,-0.5 -1.5,-0.8 -1.5,-0.8 -2.9,-1.6 -4.3,-2.4 -1.4,-0.8 -2.9,-1.6 -4.3,-2.4 -0.8,-0.5 -2.4,-1.2 -2.9,-2 -0.7,-1.2 -0.8,-3.8 -0.9,-5.2 -0.3,-2.6 -0.7,-5.2 -1.5,-7.7 -2.2,-7.5 -6.8,-13.3 -13.7,-17.2 -4.5,-2.5 -9.4,-3.7 -14.5,-3.1 -1.7,0 -4.8,0.8 -6.4,1.8 z"
   id="path136" />
			<path
   class="st13"
   d="m 139.6,5.5 c 10.8,6.9 15.3,42.1 15.3,42.1 l 7,0.9 c -0.2,0 10.6,-6.6 23.9,0.9 18.1,10.2 15.9,29.3 17,31 0,0 12.6,7.1 12.6,7 7.1,-15.3 5.4,-32.3 1.4,-46.7 C 211,19.8 193.6,3.3 163.5,3.4 c -2.7,0 -5.6,0.2 -8.5,0.5 z"
   id="path137" />
			<path
   class="st0"
   d="m 161.3,2.1 c 7.4,22.7 1,48.4 0.9,48.5 l -1.7,-0.4 c 0,-0.1 6.3,-25.4 -0.9,-47.6 z"
   id="path138" />
			<path
   class="st0"
   d="m 123.9,171.5 c 0.9,-0.1 1.8,0.1 2.6,0.7 2,1.4 2,4.2 1.5,6.4 -0.4,1.8 -1.3,4.5 -3.1,5.3 -2.3,0.9 -5.6,-1.2 -7.5,-2.4 -1.2,-0.8 -7.8,-4.7 -7.5,-6.1 0.2,-1.9 12.3,-3.8 14,-3.9 z"
   id="path139" />
			<path
   class="st14"
   d="m 124.1,174.1 c -4.2,0.4 -10,2 -10,2 0,0 8.2,6 9.8,5.3 1.3,-0.5 3.1,-7.6 0.2,-7.3 z"
   id="path140" />
			<path
   class="st0"
   d="m 128.3,181.1 c 3,-1.2 6.4,-0.8 8.2,2.2 1.1,1.9 1.1,4.4 0,6.3 -1.4,2.3 -3.9,3.3 -6.5,3.2 -1,0 -2.1,-0.1 -3.1,-0.2 -2,-0.2 -3.9,-0.6 -5.9,-1 -1.4,-0.3 -6.8,-1.5 -6.9,-2.4 -0.3,-1.8 13.8,-7.9 14.2,-8.1 z"
   id="path141" />
			<path
   class="st14"
   d="m 129.3,183.5 c -5.3,2.1 -10.3,5 -10.3,5 -0.1,0.1 6.2,1.6 11,1.8 7.1,0.1 5.8,-9.4 -0.7,-6.8 z"
   id="path142" />
			<path
   class="st0"
   d="m 185.6,179.3 c -1.5,1.1 -3.2,2.2 -4.8,3.2 -1.9,1.2 -5.2,3.3 -7.5,2.4 -1.9,-0.8 -2.8,-3.4 -3.1,-5.3 -0.4,-2.2 -0.4,-4.9 1.5,-6.4 0.8,-0.6 1.7,-0.8 2.6,-0.7 3.4,0.3 7.2,1.2 10.5,2.1 1,0.3 3.5,0.8 3.7,1.8 0.1,1.1 -2.1,2.3 -2.9,2.9 z"
   id="path143" />
			<path
   class="st14"
   d="m 174.1,175.2 c 4.2,0.4 10,2 10,2 0,0 -8.2,6 -9.8,5.3 -1.3,-0.5 -3.1,-7.5 -0.2,-7.3 z"
   id="path144" />
			<path
   class="st0"
   d="m 167.5,181.1 c 0.4,0.2 14.4,6.3 14.2,8 -0.2,1.7 -12.2,3.4 -12.7,3.5 -1,0.1 -2.1,0.2 -3.1,0.2 -2.6,0.1 -5.2,-0.9 -6.5,-3.2 -1.1,-1.9 -1.2,-4.4 0,-6.3 1.7,-3 5.1,-3.4 8.1,-2.2 z"
   id="path145" />
			<path
   class="st14"
   d="m 166.6,183.5 c 5.3,2.1 10.3,5 10.3,5 0.1,0.1 -6.2,1.6 -11,1.8 -7.1,0.1 -5.8,-9.4 0.7,-6.8 z"
   id="path146" />
			<path
   class="st0"
   d="m 143.1,195 c -0.7,-2.1 -2.2,-5.8 -0.8,-7.8 1.2,-1.7 3.9,-2 5.8,-2 2.2,0 4.9,0.6 5.9,2.8 0.4,0.9 0.4,1.8 0.1,2.7 -0.5,1.6 -4.9,13.1 -6.6,13 -1.4,0 -3.9,-7.4 -4.4,-8.7 z"
   id="path147" />
			<path
   class="st14"
   d="m 151.6,189.9 c -1.2,4 -4,9.3 -4,9.3 0,0 -4.2,-9.3 -3.2,-10.7 0.8,-1 8.1,-1.3 7.2,1.4 z"
   id="path148" />
			<path
   class="st0"
   d="m 174.7,3.9 c 0,-0.4 0.3,-0.7 0.6,-0.7 0.4,0 0.7,0.3 0.7,0.6 0.4,8.6 -0.7,17.2 -2.3,24.6 -2.5,11.9 -6.5,20.7 -7.7,21.1 -0.3,0.1 -0.7,-0.1 -0.8,-0.4 -0.1,-0.3 0.1,-0.7 0.4,-0.8 1,-0.4 4.5,-8.7 6.9,-20.2 1.5,-7.2 2.6,-15.7 2.2,-24.2 z"
   id="path149" />
			<path
   class="st0"
   d="m 174.8,48.3 c -0.3,0.2 -0.7,0.1 -0.9,-0.2 -0.2,-0.3 -0.1,-0.7 0.2,-0.9 4.5,-3.2 8.1,-9.5 10.8,-16.1 4.1,-10.3 6,-21.3 5,-23.1 -0.2,-0.3 0,-0.7 0.3,-0.9 0.3,-0.2 0.7,0 0.9,0.3 1,2 -0.7,13.6 -5,24.2 -2.8,6.8 -6.6,13.3 -11.3,16.7 z"
   id="path150" />
			<path
   class="st0"
   d="m 183.6,51 c -0.3,0.1 -0.7,0 -0.8,-0.4 -0.1,-0.3 0,-0.7 0.4,-0.8 3.4,-1.4 7.2,-6.2 10.6,-11.8 5.4,-8.8 9.6,-19.3 9.3,-20.8 -0.1,-0.3 0.1,-0.7 0.5,-0.8 0.3,-0.1 0.7,0.1 0.8,0.5 0.4,1.6 -3.9,12.7 -9.5,21.7 -3.6,5.8 -7.6,10.9 -11.3,12.4 z"
   id="path151" />
			<path
   class="st0"
   d="m 190.6,55 c -0.3,0.1 -0.7,0 -0.9,-0.3 -0.1,-0.3 0,-0.7 0.3,-0.9 4.7,-2.2 9.6,-6.3 13.7,-10.6 5.4,-5.7 9.4,-11.4 9.2,-13.1 0,-0.4 0.2,-0.7 0.6,-0.7 0.4,0 0.7,0.2 0.7,0.6 0.1,2 -3.9,8.2 -9.6,14.1 -4.1,4.4 -9.1,8.6 -14,10.9 z"
   id="path152" />
			<path
   class="st0"
   d="m 193.9,59.7 c -0.4,0 -0.7,-0.2 -0.7,-0.6 0,-0.4 0.2,-0.7 0.6,-0.7 2.7,-0.2 7.4,-2.5 11.9,-5.2 6.1,-3.6 11.9,-8 12.4,-9.2 0.1,-0.3 0.5,-0.5 0.8,-0.4 0.3,0.1 0.5,0.5 0.4,0.8 -0.6,1.4 -6.6,6.1 -12.9,9.8 -4.7,2.9 -9.5,5.3 -12.5,5.5 z"
   id="path153" />
			<path
   class="st0"
   d="m 197.6,64.6 c -0.4,0 -0.6,-0.4 -0.6,-0.7 0,-0.4 0.4,-0.6 0.7,-0.6 14,1.8 23.2,-3.2 23.2,-3.2 0.3,-0.2 0.7,-0.1 0.9,0.3 0.2,0.3 0.1,0.7 -0.3,0.9 0,0 -9.5,5.2 -23.9,3.3 z"
   id="path154" />
			<path
   class="st0"
   d="m 200.1,72.4 c -0.3,-0.1 -0.5,-0.5 -0.4,-0.8 0.1,-0.3 0.5,-0.5 0.8,-0.4 6.7,2.4 20,3.1 20.1,3.1 0.4,0 0.6,0.3 0.6,0.7 0,0.4 -0.3,0.6 -0.7,0.6 0,-0.1 -13.6,-0.8 -20.4,-3.2 z"
   id="path155" />
			<path
   class="st15"
   d="m 125.6,176.6 c 0,-1.2 -0.2,-2.2 -1,-2.5 -0.2,0 -0.3,-0.1 -0.5,0 -1,0.1 -2,0.2 -3.1,0.4 -3.5,0.6 -6.9,1.6 -6.9,1.6 0,0 0.1,0.1 0.2,0.2 1.8,0.3 4,0.6 6.1,0.7 1.1,0 2.3,0 3.3,0 0.7,-0.2 1.4,-0.3 1.9,-0.4 z"
   id="path156" />
			<path
   class="st15"
   d="m 130.3,183.2 c -0.3,0.1 -0.6,0.2 -1,0.3 0,0 0,0 0,0 0,0 0,0 0,0 -0.5,0.2 -1.1,0.4 -1.6,0.7 -1.2,0.5 -2.3,1 -3.3,1.5 -1.1,0.5 -2.1,1 -2.9,1.4 -1.5,0.8 -2.5,1.3 -2.5,1.3 0,0 0.4,0.1 1.2,0.3 0.7,-0.1 1.5,-0.1 2.2,-0.3 1.2,-0.2 2.4,-0.4 3.7,-0.7 1.2,-0.3 2.4,-0.5 3.5,-0.9 0,0 0,0 0,0 0.9,-0.3 1.7,-0.5 2.5,-0.8 0,0 0,0 0,0 1,-0.4 1.8,-0.7 2.4,-1 -0.4,-1 -1.3,-1.9 -2.6,-2.1 -0.3,0 -0.5,-0.1 -0.8,0 -0.2,0.2 -0.5,0.2 -0.8,0.3 z"
   id="path157" />
			<path
   class="st15"
   d="m 144.4,188.6 c -0.4,0.6 0.1,2.6 0.8,4.7 0.2,0.5 0.4,1.1 0.6,1.6 0.1,0.4 0.3,0.8 0.4,1.1 0.3,0.8 0.6,1.6 0.9,2.1 0.2,0.5 0.4,0.9 0.4,1 0,-0.3 0,-0.6 0,-1 0,-0.6 0.1,-1.3 0.1,-2.2 0,-0.3 0,-0.7 0,-1.1 0,-0.5 0,-1 0.1,-1.6 0.1,-1.5 0.2,-3.4 0.3,-5.6 -1.5,0.1 -3.2,0.5 -3.6,1 z"
   id="path158" />
			<path
   class="st15"
   d="m 163.7,185.7 c 0.9,0.3 1.8,0.5 2.7,0.7 2.2,0.6 4.1,1 5.6,1.3 0.3,0.1 0.5,0.1 0.8,0.2 1.1,0.2 2.1,0.4 2.9,0.5 0.4,0.1 0.7,0.1 1,0.1 0,0 0.1,0 0.1,0 0,0 0.1,0 0.1,0 0,0 0,0 -0.1,-0.1 -0.1,-0.1 -0.4,-0.2 -0.8,-0.5 -0.7,-0.4 -1.7,-0.9 -2.9,-1.5 -1.3,-0.6 -2.7,-1.3 -4.3,-2 -0.7,-0.3 -1.4,-0.6 -2.2,-0.9 -0.1,0 -0.2,-0.1 -0.2,-0.1 -1,-0.4 -1.9,-0.4 -2.7,-0.3 -1.1,0.2 -1.9,1 -2.3,1.9 0.8,0.3 1.6,0.5 2.3,0.7 z"
   id="path159" />
			<path
   class="st15"
   d="m 174.6,178.6 c 1.1,-0.1 2.2,-0.2 3.2,-0.4 2.4,-0.3 4.7,-0.8 6.1,-1.1 -0.6,-0.2 -3.9,-1.1 -7.1,-1.6 -0.9,-0.2 -1.9,-0.3 -2.8,-0.4 -0.5,0 -0.8,0.1 -1.1,0.4 -0.6,0.6 -0.6,1.9 -0.4,3.2 0.8,0 1.4,0 2.1,-0.1 z"
   id="path160" />
			<path
   class="st0"
   d="m 160.9,185.1 c -0.1,-0.1 -0.2,-0.2 -0.1,-0.3 0.1,-0.1 0.2,-0.2 0.3,-0.1 3.5,1.7 17.4,3.6 17.4,3.6 0.1,0 0.2,0.1 0.2,0.2 0,0.1 -0.1,0.2 -0.2,0.2 0,0 -14,-1.9 -17.6,-3.6 z"
   id="path161" />
			<path
   class="st0"
   d="m 170.7,179 c -0.1,0 -0.2,-0.1 -0.2,-0.2 0,-0.1 0.1,-0.2 0.2,-0.2 3.1,0.3 14.1,-2 14.2,-2 0.1,0 0.2,0.1 0.3,0.2 0,0.1 -0.1,0.2 -0.2,0.3 -0.1,-0.1 -11.2,2.2 -14.3,1.9 z"
   id="path162" />
			<path
   class="st0"
   d="m 126,176.5 c 0.1,0 0.2,0.1 0.3,0.2 0,0.1 -0.1,0.2 -0.2,0.3 -3.1,0.6 -14.4,-0.7 -14.4,-0.7 -0.1,0 -0.2,-0.1 -0.2,-0.2 0,-0.1 0.1,-0.2 0.2,-0.2 0.1,-0.1 11.2,1.3 14.3,0.6 z"
   id="path163" />
			<path
   class="st0"
   d="m 134.8,184.8 c 0.1,-0.1 0.2,0 0.3,0.1 0.1,0.1 0,0.2 -0.1,0.3 -6.8,3.2 -16,3.8 -16,3.8 -0.1,0 -0.2,-0.1 -0.2,-0.2 0,-0.1 0.1,-0.2 0.2,-0.2 -0.1,0 9.1,-0.6 15.8,-3.8 z"
   id="path164" />
			<path
   class="st0"
   d="m 148.1,186.1 c 0,-0.1 0.1,-0.2 0.3,-0.2 0.1,0 0.2,0.1 0.2,0.3 -0.8,3.6 -0.5,14.2 -0.5,14.2 0,0.1 -0.1,0.2 -0.2,0.2 -0.1,0 -0.2,-0.1 -0.2,-0.2 -0.1,0 -0.4,-10.7 0.4,-14.3 z"
   id="path165" />
			<path
   class="st0"
   d="m 120.2,370.1 c 8.4,0.9 14.9,5.8 17.7,13.2 v 0 c 0.1,0.3 0.1,0.1 0,0.4 -0.2,-0.1 -0.2,-0.1 -0.3,-0.2 -4.1,-5.7 -10.1,-10.5 -17.3,-11 -0.8,0 -1.4,-0.6 -1.4,-1.4 -0.1,-0.9 0.5,-1 1.3,-1 z"
   id="path166" />
			<path
   class="st0"
   d="m 147.7,362.5 c -1.3,4.5 -2.6,8.6 -5.3,12.4 0.6,-4.4 1.8,-8.2 2.6,-12.6 0,-0.8 0.7,-1.3 1.5,-1.3 0.7,0.1 1.2,0.7 1.2,1.5 z"
   id="path167" />
			<path
   class="st0"
   d="M 105.5,396.6 C 103.4,382 104.3,372.8 86.7,369.8 l -4.1,-0.6 c 3.8,-0.2 4.3,-0.5 7.9,0.1 15.3,2.5 15.5,14.6 17.7,26.8 0.1,0.8 -0.4,1.5 -1.1,1.6 -0.8,0.1 -1.5,-0.4 -1.6,-1.1 z"
   id="path168" />
			<path
   class="st0"
   d="m 213.7,381.7 c -1.7,3.6 -3.1,7.3 -4.9,10.8 -0.2,-4.4 1.1,-8.1 2.5,-12.2 0.4,-0.7 1.2,-0.9 1.9,-0.5 0.7,0.3 0.9,1.2 0.5,1.9 z"
   id="path169" />
			<path
   class="st0"
   d="m 186.3,380.2 c 2.3,3.1 6.7,10.9 7.4,13.9 -2.3,-2.3 -3.9,-4.6 -6.2,-6.7 -0.6,-0.5 -0.7,-1.3 -0.3,-1.9 0.4,-0.6 -1.5,-5.7 -0.9,-5.3 z"
   id="path170" />
			<path
   class="st0"
   d="m 204,433.4 c 0.6,-9.3 6.7,-16.4 14.8,-20.6 5.5,-2.8 12.8,-4.2 18.7,-1.8 l 3,1.6 -3.2,-0.9 c -13.6,-3.1 -30.1,7.6 -30.5,21.6 0,0.8 -0.6,1.4 -1.3,1.4 -0.8,0 -1.5,-0.6 -1.5,-1.3 z"
   id="path171" />
			<path
   class="st0"
   d="m 63.6,391.7 c -0.4,0 -0.6,-0.3 -0.6,-0.6 0,-0.4 0.3,-0.6 0.6,-0.6 h 84.5 c 0.4,0 0.6,0.3 0.6,0.6 0,0.4 -0.3,0.6 -0.6,0.6 z"
   id="path172" />
			<path
   class="st0"
   d="m 186.3,398.3 c -0.1,-0.3 0.1,-0.7 0.4,-0.8 0.3,-0.1 0.7,0.1 0.8,0.4 1.6,4.7 7.1,17 15.7,27.2 4.4,5.3 9.7,10 15.5,12.8 5.8,2.8 12.3,3.7 19.3,1.3 3.9,-1.3 8,-3.6 12.2,-7.1 0.3,-0.2 0.7,-0.2 0.9,0.1 0.2,0.3 0.2,0.7 -0.1,0.9 -4.3,3.6 -8.5,6 -12.6,7.4 -7.3,2.4 -14.1,1.5 -20.2,-1.4 -6.1,-2.9 -11.4,-7.7 -16,-13.1 -8.7,-10.5 -14.3,-23 -15.9,-27.7 z"
   id="path173" />
			<path
   class="st0"
   d="m 45.4,163.4 c -0.2,-0.3 0,-0.7 0.3,-0.9 0.3,-0.2 0.7,0 0.9,0.3 8.2,16 11.9,33 14.1,42.8 0.8,3.6 1.4,6.1 1.8,7.3 1.8,4.2 7.5,2.6 20.2,-0.9 3,-0.8 6.3,-1.8 10.1,-2.8 0.3,-0.1 0.7,0.1 0.8,0.5 0.1,0.3 -0.1,0.7 -0.5,0.8 -3.7,1 -7.1,1.9 -10.1,2.8 -13.4,3.8 -19.5,5.5 -21.8,0.2 -0.5,-1.2 -1.1,-3.9 -1.9,-7.5 -2.1,-9.8 -5.8,-26.6 -13.9,-42.6 z"
   id="path174" />
			<g
   id="g179">
				<path
   class="st0"
   d="m 65.5,210.6 c 3,3.1 3.3,8.5 0.6,12 -2.7,3.5 -7.2,3.7 -10.3,0.6 -3,-3.1 -3.3,-8.5 -0.6,-12 2.7,-3.5 7.3,-3.8 10.3,-0.6 z"
   id="path175" />
				<path
   class="st1"
   d="m 64.4,212.1 c -2.3,-2.4 -5.8,-2.2 -7.8,0.4 -2,2.6 -1.8,6.7 0.5,9.1 2.3,2.4 5.8,2.2 7.8,-0.4 2,-2.7 1.7,-6.7 -0.5,-9.1 z"
   id="path176" />
				<path
   class="st0"
   d="m 65,216.6 c 0.1,2.8 -1.7,5.2 -4.1,5.3 -2.4,0.1 -4.5,-2 -4.6,-4.8 -0.1,-2.8 1.7,-5.2 4.1,-5.3 2.4,-0.2 4.5,2 4.6,4.8 z"
   id="path177" />
				<path
   class="st1"
   d="m 64.2,216.6 c -0.1,-2.2 -1.8,-4 -3.7,-3.9 -1.9,0.1 -3.4,2 -3.3,4.3 0.1,2.3 1.8,4 3.7,3.9 1.9,-0.1 3.4,-2 3.3,-4.3 z"
   id="path178" />
				<path
   class="st0"
   d="m 64.2,216.6 c 0,-0.3 -0.1,-0.5 -0.1,-0.8 l -6.8,0.4 c 0,0.3 0,0.5 0,0.8 0,0.3 0.1,0.5 0.1,0.8 l 6.8,-0.4 c 0,-0.2 0,-0.5 0,-0.8 z"
   id="path179" />
			</g>
			<path
   class="st16"
   d="m 162.3,39.7 c 1.1,-9.2 1.6,-23.1 -2.4,-36.1 -1.6,0.1 -3.3,0.2 -5,0.4 l -15.3,1.6 c 7.8,5 12.3,24.7 14.2,35.3 0.2,1.2 0.4,2.3 0.5,3.2 0.4,2.3 0.5,3.6 0.5,3.6 l 6,0.8 c 0.2,-0.8 0.4,-2 0.6,-3.3 0,-0.3 0.1,-0.6 0.1,-0.9 0.1,-0.4 0.1,-0.8 0.2,-1.3 0.3,-1.1 0.5,-2.2 0.6,-3.3 z"
   id="path180" />
			<path
   class="st16"
   d="m 162.4,5.8 c 5.2,-0.3 9.6,2.1 10.1,10.7 0.4,6.4 -0.6,12.9 -1.3,16.9 0.4,-1.7 0.8,-3.4 1.2,-5.2 1.5,-7.2 2.6,-15.6 2.3,-23.9 -3.5,-0.5 -7.3,-0.8 -11.3,-0.8 -0.6,0 -1.1,0 -1.7,0 0.3,0.8 0.5,1.6 0.7,2.3 z"
   id="path181" />
			<path
   class="st16"
   d="m 176.1,8.2 c 5.8,0.9 10.5,3.9 9.6,13.4 -0.7,6.5 -2.1,11.6 -3.1,14.6 0.8,-1.7 1.6,-3.4 2.3,-5.1 3.7,-9.3 5.6,-19.1 5.2,-22.3 -4.2,-1.9 -8.9,-3.4 -14,-4.3 0,1.2 0,2.5 0,3.7 z"
   id="path182" />
			<path
   class="st16"
   d="m 190.9,14.1 c 7.1,3 9.1,7.3 5.1,17.7 -1.3,3.5 -2.5,6.1 -3.5,8.1 0.4,-0.6 0.8,-1.3 1.2,-1.9 5.1,-8.4 9.2,-18.4 9.3,-20.5 -3.4,-3.2 -7.2,-5.9 -11.7,-8.1 0,1.2 -0.1,2.8 -0.4,4.7 z"
   id="path183" />
			<path
   class="st16"
   d="m 201.9,24.7 c 4.5,5 6.1,8.7 5.3,12.8 -0.3,1.7 -2,4.1 -3.9,6.3 0.2,-0.2 0.4,-0.4 0.6,-0.6 4.8,-5 8.4,-10.1 9.1,-12.4 -2.3,-4.5 -5.2,-8.7 -8.9,-12.3 -0.4,1.4 -1.2,3.6 -2.2,6.2 z"
   id="path184" />
			<path
   class="st16"
   d="m 210.2,37.7 c 2.8,3.9 3.8,8.2 1.8,11.5 2.7,-1.9 4.9,-3.6 5.7,-4.6 -0.3,-1.3 -0.6,-2.6 -1,-3.8 -0.8,-2.9 -1.9,-5.8 -3.1,-8.5 -0.7,1.4 -1.9,3.3 -3.4,5.4 z"
   id="path185" />
			<path
   class="st16"
   d="m 215.2,48.4 c 2.3,4.8 2.9,10.3 2.1,13.2 1.3,-0.4 2.2,-0.8 2.8,-1.1 -0.3,-4.9 -1,-9.8 -2,-14.5 -0.7,0.7 -1.7,1.5 -2.9,2.4 z"
   id="path186" />
			<path
   class="st13"
   d="m 159.4,32.2 c -1.4,2.6 -4.9,2.7 -5.7,-0.5 -1,-4.3 -3.3,-9.8 -6.2,-14.4 3.1,7.7 5.2,17.3 6.3,23.6 0.2,1.2 0.4,2.3 0.5,3.2 0.4,2.3 0.5,3.6 0.5,3.6 l 6,0.8 c 0.2,-0.8 0.4,-2 0.6,-3.3 0,-0.3 0.1,-0.6 0.1,-0.9 0.1,-0.4 0.1,-0.8 0.2,-1.3 0.1,-1 0.3,-2.1 0.4,-3.2 1.1,-9.2 1.6,-23.1 -2.4,-36.1 -0.6,0 -1.3,0.1 -1.9,0.1 0.8,2.5 1.7,6.3 2.2,11.5 0.9,6.3 1.2,13.5 -0.6,16.9 z"
   id="path187" />
			<path
   class="st9"
   d="m 72.9,192.2 c 10.2,-3.6 26.9,-7.8 37.6,-8.5 -12.3,3.9 -24.3,6.2 -36.6,11 -0.7,0.3 -1.5,-0.1 -1.8,-0.8 -0.2,-0.6 0.1,-1.4 0.8,-1.7 z"
   id="path188" />
			<path
   class="st0"
   d="m 297.9,318 c -1.5,0.1 -3.3,-0.3 -4.6,-1 -3.6,-1.9 -3.7,-5.7 -2.2,-9.2 0.5,-1.2 1.4,-2.5 2.2,-3.5 0.7,-1 1.5,-2 2.2,-3 0.4,-0.6 0.8,-1.1 1.2,-1.6 1.9,-2.2 5.1,-2.9 7.7,-1.5 3,1.7 3.6,5.2 2.4,8.2 -0.2,0.6 -0.5,1.1 -0.8,1.7 -1.6,3.1 -3.9,6 -6,8.8 -0.7,0.7 -1.3,1.1 -2.1,1.1 z"
   id="path189" />
			<path
   class="st14"
   d="m 297.8,315.4 c 2.1,-2.8 4.4,-5.8 5.7,-8.4 0.3,-0.5 0.5,-1 0.7,-1.5 1.9,-4.8 -3.2,-7 -5.7,-4.1 -0.3,0.4 -0.7,0.8 -1,1.4 -0.7,1.1 -3.5,4.5 -4.1,6 -2.9,6.9 4.4,6.6 4.4,6.6 z"
   id="path190" />
			<path
   class="st0"
   d="m 292.1,271.8 c 0.5,-0.7 1.1,-1.4 1.8,-1.9 3.9,-3 9.6,-2.1 13.7,0.7 4.1,2.8 7.1,7.9 5.8,12.7 -0.2,0.9 -0.6,1.7 -1.1,2.4 -1.1,1.7 -3.2,5.6 -4.9,6.5 -1.7,0.8 -3.9,-0.4 -5.4,-1.2 -1.9,-1 -3.7,-2.2 -5.4,-3.5 -1.8,-1.2 -3.5,-2.5 -5.2,-3.8 -1.2,-0.9 -3.1,-2.3 -3.3,-3.9 -0.5,-2.9 2.6,-5.8 4,-8 z"
   id="path191" />
			<path
   class="st10"
   d="m 294.2,273.2 c 2.2,-3.4 7.6,-3.7 12,-0.6 4.4,3 6.2,8.2 4,11.6 -0.6,0.9 -3.1,5.2 -4,5.7 -1.5,0.8 -15.4,-9.3 -15.6,-10.3 -0.3,-1.6 2.8,-5.1 3.6,-6.4 z"
   id="path192" />
			<path
   class="st0"
   d="m 288.6,277 c 0.5,-0.7 1.1,-1.4 1.8,-1.9 3.9,-3 9.6,-2.1 13.7,0.7 4.1,2.8 7.1,7.9 5.8,12.7 -0.2,0.9 -0.6,1.7 -1.1,2.4 -0.5,0.7 -1.1,1.4 -1.8,1.9 -3.9,3 -9.6,2.1 -13.7,-0.7 -4.1,-2.8 -7.1,-7.9 -5.8,-12.7 0.3,-0.8 0.7,-1.6 1.1,-2.4 z"
   id="path193" />
			<path
   class="st10"
   d="m 290.8,278.5 c 2.2,-3.4 7.6,-3.7 12,-0.6 4.4,3 6.2,8.2 4,11.6 -2.2,3.4 -7.6,3.7 -12,0.6 -4.5,-3.1 -6.2,-8.2 -4,-11.6 z"
   id="path194" />
			<path
   class="st0"
   d="m 290.3,307.8 c -0.1,-0.2 -0.2,-0.3 -0.3,-0.4 -0.2,-0.4 -0.5,-0.7 -0.7,-1.1 -0.3,0.4 -0.5,0.7 -0.6,0.9 0,0.1 -0.1,0.1 -0.1,0.2 l -1.8,2.1 c -0.5,0.6 -1.1,0.9 -1.9,0.9 -0.7,0 -1.4,-0.2 -1.9,-0.8 l -3.1,-3.1 c -0.9,-0.9 -1,-2.3 -0.3,-3.3 l 13.8,-19.5 c 1.3,-1.9 3.7,-3.1 6,-2.4 1.4,0.4 2.6,1.5 3.1,3 0.6,1.9 -0.1,3.7 -1.2,5.2 -0.9,1.2 -3.9,4.8 -3.7,6.4 0.2,1.3 1.4,3 2.1,4 0.7,1 1.7,3.1 2.1,4.7 0.4,1.6 0.3,2.9 0.4,4.2 0.1,2.3 0.4,4 -0.7,6 -1.7,3.1 -4.6,6.2 -8.4,5.6 -6.1,-0.9 -7.2,-6.5 -3.7,-10.9 0.2,-0.5 0.6,-1.1 0.9,-1.7 z"
   id="path195" />
			<path
   class="st14"
   d="m 299.2,287.8 c -1.8,2.3 -4.6,5.8 -4.2,8.4 0.7,3.9 5.8,8.3 6,11.3 0,0.4 -0.3,-2.1 0.4,-2.3 0.7,-0.3 1.5,2.9 1.4,3.2 -1,1.7 -3.2,4.6 -3.8,5.5 -1.4,2.3 -3.3,4.2 -5.5,3.9 -4.3,-0.7 -4.2,-4.1 -2.1,-6.8 0.3,-0.4 1.9,-2.9 1.8,-3.2 -0.2,-0.8 -1.4,-2.4 -1.9,-3.3 -1.7,-3.2 -2.7,-1.5 -4.7,1.1 l -1.8,2.1 -3.1,-3.1 13.8,-19.5 c 0.7,-1 1.9,-1.8 3.1,-1.4 1.2,0.4 2.4,1.9 0.6,4.1 z"
   id="path196" />
			<path
   class="st0"
   d="m 271.6,301.2 c 0.5,-0.7 1.2,-1.4 2,-1.9 4.2,-3 10.1,-2 14.1,0.9 4,2.9 6.7,8.2 5,13.2 -0.3,0.9 -0.7,1.7 -1.3,2.4 -1.3,1.7 -3.8,5.8 -5.6,6.6 -1.8,0.8 -3.9,-0.4 -5.5,-1.4 -1.8,-1.1 -3.6,-2.4 -5.3,-3.6 -1.7,-1.3 -3.4,-2.6 -5,-4 -1.1,-1 -3,-2.4 -3.1,-4 -0.3,-3 3.1,-6 4.7,-8.2 z"
   id="path197" />
			<path
   class="st10"
   d="m 273.7,302.7 c 2.5,-3.4 8.1,-3.7 12.4,-0.5 4.3,3.2 5.7,8.5 3.2,12 -0.7,0.9 -3.6,5.3 -4.6,5.8 -1.6,0.8 -15.2,-9.9 -15.2,-10.9 -0.2,-1.6 3.2,-5.1 4.2,-6.4 z"
   id="path198" />
			<path
   class="st0"
   d="m 267.7,306.6 c 0.5,-0.7 1.2,-1.4 2,-1.9 4.2,-3.1 10.1,-2 14.1,0.9 4,2.9 6.7,8.2 5,13.2 -0.3,0.9 -0.7,1.7 -1.3,2.4 -0.5,0.7 -1.2,1.4 -2,1.9 -4.2,3.1 -10.1,2 -14.1,-0.9 -4,-2.9 -6.7,-8.2 -5,-13.2 0.3,-0.9 0.7,-1.7 1.3,-2.4 z"
   id="path199" />
			<path
   class="st10"
   d="m 269.7,308.1 c 2.5,-3.4 8.1,-3.7 12.4,-0.5 4.3,3.2 5.7,8.5 3.2,12 -2.5,3.4 -8.1,3.7 -12.4,0.5 -4.3,-3.2 -5.7,-8.6 -3.2,-12 z"
   id="path200" />
			<path
   class="st0"
   d="m 289,304.4 c -0.5,-0.4 -0.5,-1 -0.2,-1.5 0.3,-0.5 1,-0.5 1.5,-0.2 1.1,0.9 1.9,2.1 2.6,3.4 0.9,1.5 1.7,2.9 3.1,3.1 0.5,0.1 1,0.1 1.5,-0.1 0.6,-0.2 1.2,-0.5 1.6,-0.9 0.4,-0.4 0.7,-1 0.8,-1.7 0.1,-0.5 0.1,-1.1 -0.1,-1.7 -0.1,-0.6 0.2,-1.2 0.8,-1.3 0.6,-0.1 1.2,0.2 1.3,0.8 0.2,0.9 0.3,1.8 0.1,2.6 -0.2,1.1 -0.7,2.1 -1.4,2.8 -0.7,0.7 -1.6,1.3 -2.6,1.5 -0.7,0.2 -1.5,0.2 -2.4,0.1 -2.4,-0.4 -3.5,-2.2 -4.6,-4.2 -0.6,-1 -1.2,-2 -2,-2.7 z"
   id="path201" />
			<path
   class="st0"
   d="m 273.4,310.8 c 1.3,-1.8 4.3,-1.9 6.5,-0.3 2.3,1.7 3,4.5 1.7,6.3 -1.3,1.8 -4.3,1.9 -6.5,0.3 -2.3,-1.6 -3,-4.5 -1.7,-6.3 z"
   id="path202" />
			<path
   class="st0"
   d="m 295,289 c 0.1,-0.2 0.4,-0.3 0.6,-0.2 0.2,0.1 0.3,0.4 0.2,0.6 -0.8,1.7 -0.9,3.3 -0.6,4.7 0.3,1.5 1.1,2.9 1.9,4.4 0.1,0.2 0,0.5 -0.2,0.6 -0.2,0.1 -0.5,0 -0.6,-0.2 -0.9,-1.5 -1.7,-3 -2,-4.6 -0.4,-1.6 -0.3,-3.4 0.7,-5.3 z"
   id="path203" />
			<path
   class="st0"
   d="m 294.2,313.3 c -0.2,0 -0.4,-0.2 -0.5,-0.4 0,-0.2 0.2,-0.4 0.4,-0.5 2.1,-0.2 4.1,-1.5 5.6,-3.2 1.5,-1.8 2.4,-4.1 2.4,-6.3 0,-0.2 0.2,-0.4 0.4,-0.4 0.2,0 0.4,0.2 0.4,0.4 0.1,2.4 -0.9,5 -2.6,6.9 -1.5,1.9 -3.7,3.3 -6.1,3.5 z"
   id="path204" />
			<path
   class="st17"
   d="m 271.3,307.8 c 1.6,-0.7 3.4,-0.9 5.3,-0.5 1.5,0.3 3.1,1 4.5,2 3.6,2.7 5.2,6.9 4.1,10.2 0,0.1 -0.1,0.2 -0.1,0.2 0.1,-0.1 0.1,-0.1 0.2,-0.2 0.1,-0.1 0.2,-0.3 0.3,-0.4 1.6,-2.6 1.2,-6 -0.8,-8.9 -0.7,-1 -1.6,-1.9 -2.7,-2.7 -0.4,-0.3 -0.8,-0.5 -1.2,-0.8 -0.4,-0.3 -0.9,-0.5 -1.3,-0.7 -3.7,-1.5 -7.6,-0.9 -9.8,1.7 0,0.1 -0.1,0.1 -0.1,0.2 0,0 -0.1,0.1 -0.1,0.1 -0.3,0.4 -0.6,0.9 -0.7,1.4 0.2,-0.2 0.4,-0.4 0.5,-0.6 0.6,-0.3 1.2,-0.7 1.9,-1 z"
   id="path205" />
			<path
   class="st17"
   d="m 293.2,277.7 c 2,-0.6 4.4,-0.4 6.7,0.6 0.7,0.3 1.4,0.7 2,1.1 1.1,0.7 2,1.6 2.8,2.6 1.8,2.4 2.6,5.2 1.9,7.5 0,0.1 -0.1,0.2 -0.1,0.3 0.1,-0.1 0.2,-0.2 0.2,-0.3 0.1,-0.1 0.2,-0.3 0.2,-0.4 0.9,-1.7 0.9,-3.9 0.1,-5.9 -0.3,-0.8 -0.8,-1.6 -1.3,-2.4 -0.5,-0.7 -1,-1.3 -1.7,-1.8 -0.3,-0.3 -0.6,-0.5 -0.9,-0.7 -0.1,-0.1 -0.3,-0.2 -0.4,-0.3 -1.1,-0.7 -2.2,-1.3 -3.3,-1.6 -1.2,-0.4 -2.3,-0.5 -3.4,-0.5 -1.6,0.1 -3.1,0.6 -4.3,1.6 -0.4,0.3 -0.7,0.7 -1,1.1 0,0 -0.1,0.1 -0.1,0.1 -0.2,0.3 -0.4,0.7 -0.5,1.1 0.1,-0.2 0.2,-0.3 0.4,-0.4 0.8,-0.9 1.7,-1.4 2.7,-1.7 z"
   id="path206" />
			<path
   class="st18"
   d="m 295.9,287 1.2,-1.8 c 0.1,-0.1 0.1,-0.2 0.2,-0.2 0.4,-0.5 1,-0.9 1.6,-1.1 -0.1,0 -0.2,-0.1 -0.3,-0.1 -0.8,-0.2 -1.6,0 -2.3,0.5 -0.3,0.3 -0.6,0.6 -0.8,0.9 l -0.7,1 -1.7,2.5 -1.4,2 -5.9,8.3 c 0.4,0.2 0.8,0.5 1.2,0.7 l 5.7,-8.1 1.4,-2 z"
   id="path207" />
			<g
   id="g226">
				<path
   class="st0"
   d="m 191.3,262 c -1.5,0.1 -3.3,-0.1 -4.7,-0.8 -3.7,-1.8 -4,-5.5 -2.7,-9 0.4,-1.2 1.3,-2.5 2,-3.6 0.7,-1 1.4,-2 2,-3.1 0.3,-0.6 0.7,-1.1 1.1,-1.7 1.8,-2.3 4.9,-3.2 7.6,-1.9 3.1,1.5 3.9,5 2.8,8.1 -0.2,0.6 -0.4,1.2 -0.7,1.7 -1.4,3.1 -3.6,6.2 -5.5,9.1 -0.4,0.8 -1.1,1.1 -1.9,1.2 z"
   id="path208" />
				<path
   class="st14"
   d="m 191.1,259.4 c 2,-2.9 4.1,-6 5.3,-8.7 0.2,-0.5 0.4,-1 0.6,-1.5 1.7,-4.9 -3.5,-6.8 -5.9,-3.8 -0.3,0.4 -0.6,0.9 -0.9,1.4 -0.7,1.1 -3.2,4.7 -3.8,6.2 -2.6,7.1 4.7,6.4 4.7,6.4 z"
   id="path209" />
				<path
   class="st0"
   d="m 183.1,216.2 c 0.4,-0.8 1,-1.4 1.7,-2 3.7,-3.2 9.5,-2.6 13.7,0 4.2,2.6 7.5,7.5 6.5,12.4 -0.2,0.9 -0.5,1.7 -0.9,2.4 -1,1.8 -2.9,5.8 -4.6,6.7 -1.6,0.9 -3.9,-0.2 -5.5,-0.9 -1.9,-0.9 -3.8,-2.1 -5.6,-3.2 -1.8,-1.1 -3.6,-2.3 -5.4,-3.5 -1.2,-0.9 -3.2,-2.1 -3.5,-3.7 -0.6,-2.9 2.3,-6 3.6,-8.2 z"
   id="path210" />
				<path
   class="st10"
   d="m 185.3,217.5 c 2,-3.5 7.4,-4 11.9,-1.3 4.6,2.8 6.6,7.9 4.6,11.3 -0.5,0.9 -2.8,5.4 -3.7,5.9 -1.5,0.8 -15.9,-8.5 -16.1,-9.5 -0.3,-1.5 2.5,-5 3.3,-6.4 z"
   id="path211" />
				<path
   class="st0"
   d="m 179.9,221.6 c 0.4,-0.8 1,-1.4 1.7,-2 3.7,-3.2 9.5,-2.6 13.7,0 4.2,2.6 7.5,7.5 6.5,12.4 -0.2,0.9 -0.5,1.7 -0.9,2.4 -0.4,0.8 -1,1.4 -1.7,2 -3.7,3.2 -9.5,2.6 -13.7,0 -4.2,-2.6 -7.5,-7.5 -6.5,-12.4 0.2,-0.8 0.5,-1.6 0.9,-2.4 z"
   id="path212" />
				<path
   class="st10"
   d="m 182.1,223 c 2,-3.5 7.4,-4 11.9,-1.3 4.6,2.8 6.6,7.9 4.6,11.3 -2,3.5 -7.4,4 -11.9,1.3 -4.5,-2.8 -6.6,-7.9 -4.6,-11.3 z"
   id="path213" />
				<path
   class="st0"
   d="m 183.3,252.3 c -0.1,-0.1 -0.2,-0.3 -0.3,-0.4 -0.3,-0.4 -0.5,-0.7 -0.8,-1.1 -0.2,0.4 -0.5,0.7 -0.6,0.9 0,0.1 -0.1,0.1 -0.1,0.2 l -1.7,2.2 c -0.5,0.6 -1.1,0.9 -1.8,1 -0.7,0.1 -1.4,-0.2 -2,-0.7 l -3.2,-2.9 c -0.9,-0.9 -1.1,-2.2 -0.5,-3.3 L 185,228 c 1.2,-2 3.5,-3.3 5.9,-2.7 1.5,0.4 2.7,1.4 3.3,2.8 0.7,1.8 0.1,3.7 -1,5.3 -0.9,1.2 -3.7,5 -3.3,6.6 0.3,1.3 1.5,2.9 2.3,3.9 0.8,1 1.9,3 2.4,4.6 0.5,1.6 0.5,2.8 0.6,4.2 0.2,2.3 0.6,3.9 -0.4,6 -1.5,3.1 -4.3,6.4 -8.1,6 -6.1,-0.6 -7.5,-6.1 -4.3,-10.7 0.2,-0.5 0.6,-1.1 0.9,-1.7 z"
   id="path214" />
				<path
   class="st14"
   d="m 191.1,231.8 c -1.7,2.3 -4.3,6 -3.7,8.7 0.9,3.9 6.2,8 6.6,11 0,0.4 -0.4,-2.1 0.2,-2.3 0.7,-0.3 1.7,2.8 1.5,3.1 -0.9,1.7 -3,4.8 -3.5,5.7 -1.3,2.4 -3.1,4.4 -5.3,4.1 -4.3,-0.4 -4.4,-3.9 -2.4,-6.7 0.3,-0.5 1.7,-3 1.7,-3.3 -0.2,-0.8 -1.6,-2.3 -2.1,-3.2 -1.8,-3.1 -2.8,-1.4 -4.6,1.4 l -1.7,2.2 -3.2,-2.9 12.7,-20.2 c 0.6,-1 1.8,-1.9 3,-1.6 1.1,0.3 2.5,1.7 0.8,4 z"
   id="path215" />
				<path
   class="st0"
   d="m 164.2,246.6 c 0.5,-0.8 1.1,-1.5 1.9,-2 4.1,-3.3 10,-2.6 14.1,0.2 4.1,2.7 7.1,7.9 5.7,12.9 -0.2,0.9 -0.6,1.7 -1.1,2.5 -1.2,1.8 -3.5,5.9 -5.2,6.9 -1.8,0.9 -4,-0.2 -5.5,-1.1 -1.9,-1 -3.7,-2.2 -5.5,-3.4 -1.8,-1.2 -3.5,-2.4 -5.2,-3.7 -1.2,-0.9 -3.1,-2.3 -3.3,-3.9 -0.6,-2.9 2.6,-6.1 4.1,-8.4 z"
   id="path216" />
				<path
   class="st10"
   d="m 166.4,248.1 c 2.4,-3.6 7.9,-4.1 12.4,-1.1 4.5,3 6.2,8.2 3.8,11.8 -0.6,0.9 -3.3,5.5 -4.3,6 -1.6,0.8 -15.7,-9 -15.8,-10 -0.2,-1.7 3,-5.4 3.9,-6.7 z"
   id="path217" />
				<path
   class="st0"
   d="m 160.5,252.2 c 0.5,-0.8 1.1,-1.5 1.9,-2 4.1,-3.3 10,-2.6 14.1,0.2 4.1,2.7 7.1,7.9 5.7,12.9 -0.2,0.9 -0.6,1.7 -1.1,2.5 -0.5,0.8 -1.1,1.5 -1.9,2 -4.1,3.3 -10,2.6 -14.1,-0.2 -4.1,-2.7 -7.1,-7.9 -5.7,-12.9 0.2,-0.9 0.6,-1.7 1.1,-2.5 z"
   id="path218" />
				<path
   class="st10"
   d="m 162.7,253.6 c 2.4,-3.6 7.9,-4.1 12.4,-1.1 4.5,2.9 6.2,8.2 3.8,11.8 -2.4,3.6 -7.9,4.1 -12.4,1.1 -4.4,-2.9 -6.2,-8.2 -3.8,-11.8 z"
   id="path219" />
				<path
   class="st0"
   d="m 181.7,248.9 c -0.5,-0.3 -0.6,-1 -0.3,-1.5 0.3,-0.5 1,-0.6 1.5,-0.3 1.2,0.8 2,2 2.7,3.2 0.9,1.4 1.8,2.8 3.2,2.9 0.5,0.1 1,0 1.5,-0.1 0.6,-0.2 1.1,-0.5 1.5,-1 0.4,-0.5 0.6,-1 0.7,-1.7 0.1,-0.5 0,-1.1 -0.2,-1.7 -0.2,-0.6 0.2,-1.2 0.7,-1.3 0.6,-0.2 1.2,0.2 1.3,0.7 0.3,0.9 0.3,1.8 0.3,2.6 -0.1,1.1 -0.6,2.1 -1.2,2.9 -0.7,0.8 -1.5,1.3 -2.5,1.6 -0.7,0.2 -1.5,0.3 -2.4,0.2 -2.4,-0.3 -3.6,-2.1 -4.8,-3.9 -0.5,-0.9 -1.2,-2 -2,-2.6 z"
   id="path220" />
				<path
   class="st0"
   d="m 166.5,256.1 c 1.2,-1.9 4.2,-2.2 6.5,-0.6 2.4,1.6 3.3,4.3 2,6.2 -1.2,1.9 -4.2,2.2 -6.5,0.6 -2.3,-1.5 -3.2,-4.3 -2,-6.2 z"
   id="path221" />
				<path
   class="st0"
   d="m 186.9,233.2 c 0.1,-0.2 0.3,-0.3 0.6,-0.2 0.2,0.1 0.3,0.3 0.2,0.6 -0.7,1.7 -0.8,3.3 -0.4,4.8 0.4,1.5 1.2,2.9 2.2,4.3 0.1,0.2 0.1,0.5 -0.1,0.6 -0.2,0.1 -0.5,0.1 -0.6,-0.1 -1,-1.5 -1.8,-2.9 -2.3,-4.5 -0.5,-1.8 -0.5,-3.5 0.4,-5.5 z"
   id="path222" />
				<path
   class="st0"
   d="m 187.4,257.6 c -0.2,0 -0.5,-0.1 -0.5,-0.4 0,-0.2 0.1,-0.5 0.4,-0.5 2.1,-0.3 4,-1.7 5.4,-3.5 1.4,-1.9 2.2,-4.2 2,-6.5 0,-0.2 0.2,-0.4 0.4,-0.5 0.2,-0.1 0.4,0.2 0.5,0.4 0.2,2.4 -0.7,5 -2.2,7.1 -1.5,2 -3.6,3.5 -6,3.9 z"
   id="path223" />
				<path
   class="st17"
   d="m 164.2,253.3 c 1.5,-0.8 3.4,-1 5.3,-0.8 1.5,0.2 3.1,0.8 4.6,1.8 3.7,2.5 5.6,6.6 4.6,10 0,0.1 0,0.2 -0.1,0.2 0.1,-0.1 0.1,-0.1 0.2,-0.2 0.1,-0.1 0.2,-0.3 0.3,-0.4 1.5,-2.6 0.9,-6.1 -1.3,-8.8 -0.7,-1 -1.7,-1.8 -2.8,-2.6 -0.4,-0.3 -0.8,-0.5 -1.2,-0.7 -0.4,-0.2 -0.9,-0.4 -1.4,-0.6 -3.8,-1.3 -7.7,-0.5 -9.6,2.2 0,0.1 -0.1,0.1 -0.1,0.2 0,0 -0.1,0.1 -0.1,0.1 -0.3,0.5 -0.5,1 -0.7,1.5 0.2,-0.2 0.3,-0.4 0.5,-0.6 0.6,-0.5 1.2,-1 1.8,-1.3 z"
   id="path224" />
				<path
   class="st17"
   d="m 184.5,222 c 1.9,-0.7 4.4,-0.7 6.7,0.2 0.7,0.3 1.4,0.6 2.1,1 1.1,0.7 2.1,1.5 2.9,2.4 2,2.3 2.9,5 2.3,7.4 0,0.1 0,0.2 -0.1,0.3 0.1,-0.1 0.2,-0.2 0.2,-0.4 0.1,-0.1 0.2,-0.3 0.2,-0.4 0.8,-1.8 0.7,-3.9 -0.2,-5.9 -0.4,-0.8 -0.9,-1.6 -1.5,-2.3 -0.5,-0.6 -1.1,-1.2 -1.8,-1.8 -0.3,-0.2 -0.6,-0.5 -0.9,-0.7 -0.1,-0.1 -0.3,-0.2 -0.4,-0.3 -1.1,-0.7 -2.3,-1.2 -3.4,-1.4 -1.2,-0.3 -2.3,-0.4 -3.4,-0.3 -1.6,0.2 -3.1,0.8 -4.2,1.8 -0.4,0.3 -0.7,0.7 -0.9,1.2 0,0 -0.1,0.1 -0.1,0.1 -0.2,0.4 -0.3,0.7 -0.5,1.1 0.1,-0.2 0.2,-0.3 0.4,-0.5 0.7,-0.5 1.6,-1.1 2.6,-1.5 z"
   id="path225" />
				<path
   class="st18"
   d="m 187.5,231.1 1.2,-1.8 c 0,-0.1 0.1,-0.1 0.1,-0.2 0.4,-0.5 0.8,-0.9 1.4,-1.2 0,0 0,0 0,0 -0.8,-0.2 -1.6,0.1 -2.3,0.7 -0.3,0.3 -0.6,0.6 -0.8,0.9 l -0.7,1 -1.6,2.6 -1.3,2.1 -5.4,8.6 c 0.4,0.2 0.7,0.4 1.1,0.5 l 5.3,-8.4 1.3,-2.1 z"
   id="path226" />
			</g>
			<path
   class="st9"
   d="m 238.1,229.8 c -9.5,-18 -29.2,-33 -48,-40.1 l -3.1,-1.2 c 4.7,0.5 6.2,0.8 10.7,2.6 17.3,6.8 34.9,20.8 44,36.9 0.5,1 0.1,2.2 -0.9,2.7 -1,0.5 -2.2,0.1 -2.7,-0.9 z"
   id="path227" />
			<path
   class="st9"
   d="m 216.7,239.7 c 1.2,-1.5 2.3,-2.7 3.5,-3.6 0.9,-0.7 1.7,-1.2 2.6,-1.6 3.2,-1.5 6.8,-1.7 11.6,-2.1 -4.6,-0.4 -9.2,-0.1 -13.2,1.4 -1,0.4 -2,0.9 -3,1.5 -1.4,0.9 -2.7,2 -3.8,3.4 -1,1.3 -1.9,2.9 -2.6,4.8 -0.1,0.3 -0.3,0.6 -0.6,0.7 -2.8,6.5 -8.2,14.7 -12.7,23.3 -0.4,0.7 -0.8,1.5 -1.2,2.3 -0.3,0.5 -0.5,1 -0.8,1.5 -0.7,1.5 -1.4,3 -2,4.4 -0.2,0.5 -0.4,0.9 -0.6,1.4 -0.3,0.7 -0.6,1.4 -0.8,2.1 -0.2,0.5 -0.4,1 -0.5,1.5 -0.1,0.4 -0.3,0.8 -0.4,1.2 -0.3,1 -0.6,2 -0.8,3 0,0 0,0 0,0 0,0 0.1,0 0.1,0 0.8,-0.1 1.8,-0.8 2.8,-2.1 0.3,-0.3 0.5,-0.7 0.8,-1.1 0.7,-1 1.4,-2.2 2.1,-3.5 0,-0.1 0.1,-0.2 0.1,-0.2 0.2,-0.5 0.5,-0.9 0.7,-1.4 0.3,-0.5 0.6,-1.1 0.8,-1.7 0.1,-0.3 0.2,-0.5 0.4,-0.8 0.5,-1 1,-2.1 1.5,-3.2 3.3,-7.2 7,-15.9 10.9,-23.4 1.9,-3.2 3.5,-5.8 5.1,-7.8 z"
   id="path228" />
			<text
   transform="matrix(0.8887,-0.4585,0.4585,0.8887,253.6666,287.0956)"
   id="text230"><tspan
     x="0"
     y="0"
     class="st19 st20 st21"
     id="tspan228">D</tspan><tspan
     x="11.3"
     y="0"
     class="st19 st20 st22"
     id="tspan229">a </tspan><tspan
     x="-10.1"
     y="17.200001"
     class="st19 st20 st21"
     id="tspan230">BOM</tspan></text>
		</g><g
     id="g237"
     style="fill:#b3b3b3">
		<path
   class="st23"
   d="m 501.4,292.8 c 0,14.2 -7,21.3 -21.1,21.3 H 404.7 C 390.9,314.1 384,307 384,292.8 V 102.6 c 0,-14.3 6.9,-21.4 20.7,-21.4 h 75.6 c 14.1,0 21.1,7.1 21.1,21.4 z m -34.8,-8.6 V 111.1 h -47.8 v 173.1 z"
   id="path231"
   style="fill:#b3b3b3" />
		<path
   class="st23"
   d="m 627.9,283.9 c 0,12.2 -4.4,20.7 -13.1,25.6 -6.4,3.5 -16,5.2 -28.9,5.2 -3,0 -7.2,-0.1 -12.6,-0.3 -5.4,-0.2 -9.3,-0.3 -11.7,-0.3 V 369 H 527.5 V 163.8 h 34.1 v 5.5 c 7.9,-1.2 15.9,-2.4 23.8,-3.7 10,-1.6 18,-2.4 23.8,-2.4 12.4,0 18.6,6.1 18.6,18.3 v 102.4 z m -34.2,-9.4 v -82.3 l -32,0.6 v 93 h 21.1 c 7.3,0 10.9,-3.8 10.9,-11.3 z"
   id="path232"
   style="fill:#b3b3b3" />
		<path
   class="st23"
   d="m 749.2,295.5 c 0,12.4 -6.4,18.6 -19.2,18.6 h -58.8 c -12.8,0 -19.2,-6.2 -19.2,-18.6 V 182.4 c 0,-12.4 6.4,-18.6 19.2,-18.6 H 730 c 12.8,0 19.2,6.2 19.2,18.6 v 55.2 l -9.4,9.4 h -55.2 v 42.1 h 32 v -25 h 32.6 z m -32.6,-70.7 v -36 h -32 v 36 z"
   id="path233"
   style="fill:#b3b3b3" />
		<path
   class="st23"
   d="M 874.2,314.1 H 840 V 192.2 l -32,0.6 V 314.1 H 773.9 V 163.8 H 808 v 5.5 c 7.9,-1.3 15.8,-2.5 23.7,-3.7 9.7,-1.6 17.7,-2.4 24,-2.4 12.4,0 18.6,6.1 18.6,18.3 v 132.6 z"
   id="path234"
   style="fill:#b3b3b3" />
		<path
   class="st23"
   d="M 1016.3,81.2 971.7,314.4 H 937 L 892.5,81.2 h 35 l 26,159.7 c 0.2,4.6 0.5,11.2 0.9,19.9 -0.1,-4.6 0.2,-11.2 0.9,-19.9 L 981.5,81.2 Z"
   id="path235"
   style="fill:#b3b3b3" />
		<path
   class="st23"
   d="M 1132.5,314.1 H 1036 V 81.2 h 95.7 V 112 h -60.9 v 68 h 52.4 v 30.2 h -52.4 v 73.1 h 61.8 v 30.8 z"
   id="path236"
   style="fill:#b3b3b3" />
		<path
   class="st23"
   d="m 1272.4,314.1 h -37.7 l -25.6,-82 -25.7,82 h -37.1 v -1.2 l 43.5,-118 C 1162.5,119.5 1148.9,81.6 1149,81.2 h 37.2 l 23.2,75.9 23.4,-75.9 h 36.9 v 1.3 L 1229,194 Z"
   id="path237"
   style="fill:#b3b3b3" />
	</g></g>
</svg>
