<?xml version="1.0" encoding="UTF-8" standalone="no"?>
<!-- Generator: Adobe Illustrator 28.4.1, SVG Export Plug-In . SVG Version: 6.00 Build 0)  -->

<svg
   version="1.1"
   id="Layer_1"
   x="0px"
   y="0px"
   width="400"
   height="115"
   viewBox="0 0 400 115"
   xml:space="preserve"
   sodipodi:docname="protobom.svg"
   inkscape:version="1.4.2 (ebf0e940d0, 2025-05-08)"
   xmlns:inkscape="http://www.inkscape.org/namespaces/inkscape"
   xmlns:sodipodi="http://sodipodi.sourceforge.net/DTD/sodipodi-0.dtd"
   xmlns="http://www.w3.org/2000/svg"
   xmlns:svg="http://www.w3.org/2000/svg"><defs
   id="defs192" /><sodipodi:namedview
   id="namedview192"
   pagecolor="#ffffff"
   bordercolor="#000000"
   borderopacity="0.25"
   inkscape:showpageshadow="2"
   inkscape:pageopacity="0.0"
   inkscape:pagecheckerboard="0"
   inkscape:deskcolor="#d1d1d1"
   inkscape:zoom="5.4259622"
   inkscape:cx="176.18995"
   inkscape:cy="115.37124"
   inkscape:window-width="3840"
   inkscape:window-height="2091"
   inkscape:window-x="0"
   inkscape:window-y="0"
   inkscape:window-maximized="1"
   inkscape:current-layer="Layer_1" />
<style
   type="text/css"
   id="style1">
	.Drop_x0020_Shadow{fill:none;}
	.Round_x0020_Corners_x0020_2_x0020_pt{fill:#FFFFFF;stroke:#231F20;stroke-miterlimit:10;}
	.Live_x0020_Reflect_x0020_X{fill:none;}
	.Bevel_x0020_Soft{fill:url(#SVGID_1_);}
	.Dusk{fill:#FFFFFF;}
	.Foliage_GS{fill:#FFDD00;}
	.Pompadour_GS{fill-rule:evenodd;clip-rule:evenodd;fill:#44ADE2;}
	.st0{fill-rule:evenodd;clip-rule:evenodd;fill:#08314F;}
	.st1{fill-rule:evenodd;clip-rule:evenodd;fill:#D40E19;}
	.st2{fill-rule:evenodd;clip-rule:evenodd;fill:#FFFFFF;}
	.st3{fill-rule:evenodd;clip-rule:evenodd;fill:#A2C6D1;}
	.st4{fill-rule:evenodd;clip-rule:evenodd;fill:#6996B7;}
	.st5{fill-rule:evenodd;clip-rule:evenodd;fill:#F7C17B;}
	.st6{fill-rule:evenodd;clip-rule:evenodd;fill:#3E54A1;}
	.st7{fill-rule:evenodd;clip-rule:evenodd;fill:#FDE8AF;}
	.st8{fill-rule:evenodd;clip-rule:evenodd;fill:#D3E5E9;}
	.st9{fill-rule:evenodd;clip-rule:evenodd;fill:#FCE6AF;}
	.st10{fill-rule:evenodd;clip-rule:evenodd;fill:#75C3B0;}
	.st11{fill-rule:evenodd;clip-rule:evenodd;fill:#579792;}
	.st12{fill-rule:evenodd;clip-rule:evenodd;fill:#A6D6C9;}
	.st13{fill-rule:evenodd;clip-rule:evenodd;fill:#B64721;}
	.st14{fill-rule:evenodd;clip-rule:evenodd;fill:#A0121C;}
	.st15{fill-rule:evenodd;clip-rule:evenodd;fill:#8C3622;}
	.st16{fill-rule:evenodd;clip-rule:evenodd;fill:#294585;}
	.st17{fill-rule:evenodd;clip-rule:evenodd;fill:#FDF3D5;}
	.st18{fill:#04335F;}
</style>
<linearGradient
   id="SVGID_1_"
   gradientUnits="userSpaceOnUse"
   x1="0"
   y1="0"
   x2="0.70709997"
   y2="0.70709997">
	<stop
   offset="0"
   style="stop-color:#DEDFE3"
   id="stop1" />
	<stop
   offset="0.1783"
   style="stop-color:#DADBDF"
   id="stop2" />
	<stop
   offset="0.3611"
   style="stop-color:#CECFD3"
   id="stop3" />
	<stop
   offset="0.546"
   style="stop-color:#B9BCBF"
   id="stop4" />
	<stop
   offset="0.7324"
   style="stop-color:#9CA0A2"
   id="stop5" />
	<stop
   offset="0.9181"
   style="stop-color:#787D7E"
   id="stop6" />
	<stop
   offset="1"
   style="stop-color:#656B6C"
   id="stop7" />
</linearGradient>
<g
   id="g184"
   transform="translate(0,-54)">
	<path
   class="st0"
   d="m 62,153.5 c 1.9,1.3 3.7,3.1 4.5,5.2 0.4,0.9 0.5,2 0.4,3 -0.1,0.7 -0.4,1.3 -0.8,1.9 -0.6,0.9 -1.5,1.5 -2.6,1.7 -1.9,0.5 -3.9,0.3 -5.7,-0.4 -2.9,-1.3 -5.2,-3.8 -6.9,-6.4 -0.1,-0.1 -0.1,-0.2 -0.2,-0.4 -0.3,-0.5 -0.7,-1 -1,-1.4 -0.7,-1.1 -1.5,-2.6 -1.3,-3.9 0,-0.2 0.1,-0.5 0.2,-0.7 0,0 0,-0.1 0,-0.1 0,-0.8 0.4,-1.6 1.1,-2.1 0.1,-0.1 0.2,-0.3 0.3,-0.4 -0.1,-0.5 -0.2,-1 -0.3,-1.6 -0.2,-0.7 -0.3,-1.5 0.2,-2.1 0.1,-0.1 0.2,-0.2 0.4,-0.3 -0.1,-0.4 -0.2,-0.7 -0.3,-1.1 -0.2,-0.8 -0.4,-1.7 -0.7,-2.5 -0.2,-0.6 -0.3,-1.1 -0.5,-1.7 l -0.5,0.8 -1.1,-1.5 -0.5,0.6 -0.9,-1.2 -0.9,0.6 -0.4,-1.2 c -0.1,-0.2 -0.1,-0.5 -0.2,-0.7 v 0 -0.1 c -0.2,-0.4 -0.3,-0.8 -0.5,-1.2 -0.1,-0.1 -0.1,-0.3 -0.2,-0.4 -0.1,-0.2 -0.2,-0.5 -0.3,-0.7 -0.3,-0.6 -0.6,-1.2 -0.9,-1.8 -0.4,0 -0.7,0 -1.1,0 -0.2,0 -0.4,0 -0.5,0 -1.1,0 -2.1,-0.1 -3.2,-0.3 l 0.1,0.6 0.1,0.3 c 0.1,0.2 0.1,0.4 0.2,0.7 l 0.3,0.9 v 0 c 0.1,0.4 0.2,0.7 0.2,1.1 l 0.1,0.4 -1.7,-0.7 -0.3,0.9 1.1,4.4 c 0.1,0.1 0.3,0.2 0.4,0.3 1.2,1 1.8,2.5 2,4 0.2,0.8 0.2,1.7 0.3,2.5 0,0.7 -0.1,2 -0.1,2.7 l -24.2,-0.1 c 0,-0.1 0.1,-0.6 0.1,-0.6 0.2,-0.6 0.3,-1.3 0.5,-1.9 0,0 0,-0.1 0,-0.1 0,0 0,-0.1 0,-0.1 0,0 0,-0.1 0,-0.1 0,0 0,-0.1 0,-0.1 0,0 0,-0.1 0,-0.1 0,0 0,-0.1 0,-0.1 0,0 0,-0.1 0.1,-0.1 0,0 0,-0.1 0.1,-0.1 0,0 0,-0.1 0.1,-0.1 0,0 0,-0.1 0.1,-0.1 0,0 0,-0.1 0.1,-0.1 0,0 0,-0.1 0.1,-0.1 0,0 0,-0.1 0.1,-0.1 0,0 0,-0.1 0.1,-0.1 0,0 0,-0.1 0.1,-0.1 0,0 0,-0.1 0.1,-0.1 0,0 0,-0.1 0.1,-0.1 0,0 0.1,-0.1 0.1,-0.1 0,0 0.1,-0.1 0.1,-0.1 0,0 0.1,-0.1 0.1,-0.1 0,0 0.1,-0.1 0.1,-0.1 0,0 0.1,-0.1 0.1,-0.1 0,0 0.1,-0.1 0.1,-0.1 0,0 0.1,-0.1 0.1,-0.1 0,0 0.1,-0.1 0.1,-0.1 0,0 0.1,-0.1 0.1,-0.1 0,0 0.1,-0.1 0.1,-0.1 0,0 0.1,0 0.1,-0.1 0,0 0.1,0 0.1,-0.1 0,0 0.1,0 0.1,-0.1 0,0 0.1,0 0.1,-0.1 0,0 0.1,0 0.1,-0.1 0,0 0.1,0 0.1,-0.1 0,0 0.1,0 0.1,-0.1 0,0 0.1,0 0.1,-0.1 0,0 0.1,0 0.1,-0.1 0,0 0.1,0 0.1,-0.1 0,0 0.1,0 0.1,-0.1 0,0 0.1,0 0.1,-0.1 0,0 0.1,0 0.1,-0.1 0,0 0.1,0 0.1,-0.1 0,0 0.1,0 0.1,-0.1 0,-0.1 0.1,0 0.1,-0.1 0,0 0.1,0 0.1,-0.1 0,0 0.1,0 0.1,-0.1 0,0 0.1,0 0.1,0 0,0 0.1,0 0.1,0 0,0 0.1,0 0.1,0 0,0 0.1,0 0.1,0 0,0 0.1,0 0.1,0 0,0 0.1,0 0.1,0 0,0 0.1,0 0.1,0 0,0 0.1,0 0.1,0 0,0 0.1,0 0.1,0 0,0 0.1,0 0.1,0 0,0 0.1,0 0.1,0 0,0 0.1,0 0.1,0 0,0 0.1,0 0.1,0 0,0 0.1,0 0.1,0 0,0 0.1,0 0.1,0 0,0 0.1,0 0.1,0 0,0 0.1,0 0.1,0 0,0 0.1,0 0.1,0 0,0 0.1,0 0.1,0 0,0 0,0 0.1,0 h 0.1 v 0 0 0 0 0 0 h 0.1 c 0.7,-0.1 1.4,-0.2 2.1,-0.2 0.8,0 1.5,0 2.3,0 0.9,0 1.8,0.1 2.7,0.1 0.8,0 1.7,0.1 2.5,0.2 0,0 0,-0.1 0,-0.1 0.2,-0.6 0.4,-1.2 0.8,-1.7 -0.5,-1.7 -1,-3.3 -1.5,-5 l -0.6,0.9 -0.9,-1.3 -0.5,0.5 -0.8,-1 -0.8,0.5 -0.1,-1 c 0,-0.1 -0.1,-0.2 -0.1,-0.3 v 0 -0.1 c -0.1,-0.4 -0.2,-0.8 -0.4,-1.2 -0.1,-0.3 -0.2,-0.6 -0.3,-0.9 -0.2,-0.5 -0.3,-1 -0.5,-1.5 -0.4,-1.4 -0.9,-2.8 -1.3,-4.1 -0.3,-0.1 -0.5,-0.3 -0.6,-0.6 -0.1,-0.4 -0.2,-0.8 -0.3,-1.3 -0.1,-0.7 -0.3,-1.4 -0.4,-2.2 -0.1,-0.4 -0.2,-0.7 -0.3,-1.1 -0.2,-0.4 -0.4,-0.8 -0.6,-1.2 -0.3,-0.7 -0.6,-1.3 -0.9,-2 -0.1,-0.3 -0.2,-0.6 -0.3,-0.9 -0.1,-0.2 -0.1,-0.4 -0.2,-0.7 -0.3,-1 -0.4,-2.1 -0.4,-3.2 -0.1,-1.5 0,-3.1 0.2,-4.6 0,-0.1 0,-0.1 0,-0.2 0,-0.2 0,-0.4 0.1,-0.6 -1.2,0.5 -2.4,0.9 -3.7,1.3 -0.4,0.1 -0.8,0 -1.1,-0.4 -0.1,-0.1 -0.1,-0.2 -0.2,-0.4 -0.1,-0.2 -0.2,-0.4 -0.2,-0.5 -0.1,-0.2 -0.2,-0.4 -0.2,-0.6 -1.1,0 -2.2,-0.1 -3.2,-0.5 -0.5,-0.1 -1,-0.3 -1.5,-0.6 -1.9,-0.9 -3.4,-2.4 -4.7,-4 C 3.7,99.4 2.2,93.8 1.9,88.6 1.6,87.9 1.4,87.1 1.4,86.3 0.5,84.9 -0.4,82.7 0.2,81 c 0.3,-0.9 1,-1.6 2,-1.7 0.3,0 0.5,0 0.7,0.1 0.4,-0.7 1.2,-1.3 2.1,-1.2 0.1,0 0.3,0 0.4,0.1 C 5.3,77.1 5.3,75.9 5.3,74.7 5.4,73.5 5.6,71.9 6.1,70.7 6.4,70 6.8,69.4 7.3,68.8 7.4,68.7 7.6,68.5 7.7,68.4 8.1,68.1 8.6,67.8 9.1,68 c 1.1,0.3 1.2,1.7 1.2,2.7 0.3,-0.5 0.6,-1 1,-1.4 0.3,-0.4 0.7,-0.7 1.1,-0.9 0.5,-0.2 1,-0.3 1.5,-0.1 1.3,0.6 1,2.3 0.8,3.4 L 13,78.6 c 0.3,0.1 0.6,0.2 0.9,0.3 1.2,0.4 1.9,1.7 2.2,2.8 0.2,0.8 0.3,1.8 0.1,2.6 -0.2,0.8 -0.5,1.7 -0.9,2.5 0,0 0,0.1 0.1,0.1 0.8,2.1 1.5,4.2 2.1,6.3 0.2,0.9 0.5,1.7 0.7,2.6 0,0.1 0.1,0.1 0.1,0.2 v 0 0 c 0,0.2 0.1,0.4 0.1,0.6 l 0.3,-0.1 c 0.9,-0.3 1.8,-0.6 2.7,-0.8 1.1,-0.3 2.2,-0.6 3.3,-0.8 0.4,-0.1 0.8,-0.2 1.3,-0.3 1.3,-0.3 2.5,-0.6 3.8,-0.9 0,0 0.1,-0.1 0.1,-0.1 0.5,-0.4 1.1,-0.7 1.8,-0.8 0.4,-1.4 1.3,-2.1 2.7,-2.3 0.2,0 0.4,-0.1 0.6,0 0.4,-1.1 0.9,-2.2 1.4,-3.2 0.6,-1.2 1.2,-2.4 1.9,-3.5 1.1,-1.9 2.3,-3.8 3.6,-5.5 -0.8,-0.1 -1.5,-0.3 -2.3,-0.5 -1,0.3 -2,0.6 -3,0.9 -2.5,0.7 -4.9,1.4 -7.5,1 -0.1,0 -0.1,0 -0.2,0 -0.5,0.1 -1,0.1 -1.5,0.2 -1.2,0.1 -3.3,0.2 -3.7,-1.2 -0.1,-0.2 -0.1,-0.4 -0.1,-0.6 0.1,-0.8 0.7,-1.6 1.3,-2.1 0.8,-0.8 1.7,-1.5 2.6,-2.2 0.2,-0.2 0.4,-0.3 0.6,-0.5 0.8,-0.6 1.5,-1.3 2.3,-1.9 0.4,-0.4 0.9,-0.8 1.3,-1.2 0.3,-0.3 0.6,-0.6 0.7,-1 0,-0.4 -0.1,-0.8 -0.1,-1.3 0,-1.8 0.4,-3.5 1.3,-5.1 -0.1,-0.1 -0.3,-0.3 -0.3,-0.5 -0.2,-0.6 0.1,-1.3 0.5,-1.8 0.2,-0.3 0.7,-0.5 1,-0.7 0.2,-0.1 0.5,-0.3 0.7,-0.5 0.2,-0.2 0.3,-0.4 0.5,-0.6 0.1,-0.2 0.2,-0.3 0.4,-0.5 0.2,-0.2 0.5,-0.4 0.8,-0.6 1.1,-0.6 2.8,-0.5 4,-0.3 0.7,-0.1 1.4,-0.2 2.1,-0.2 3.8,0 7.4,2.1 9.3,5.4 0.3,0.2 0.6,0.4 0.8,0.7 0.7,0.6 1.4,1.2 1.5,2.1 0.1,0.5 -0.1,1 -0.1,1.6 0,0.1 0.1,0.2 0.1,0.3 0.1,0.3 0.3,0.5 0.4,0.8 0.2,0.4 0.3,0.9 0.3,1.4 0,0.4 -0.2,0.7 -0.4,1 -0.2,0.3 -0.5,0.6 -0.9,0.7 0,0.1 0,0.2 0,0.2 0,0.1 0,0.2 0,0.3 1,0.4 2.2,1.1 2.9,1.9 0.6,0.7 0.8,1.5 1,2.4 0.1,0.5 0.1,1.1 0.1,1.7 0,0.5 0,1.1 -0.1,1.6 0,0.4 -0.1,1.2 -0.5,1.3 C 57.4,80.6 57.1,80.3 57,80.1 56.9,80 56.9,80 56.8,79.9 c 0,0 -0.1,-0.1 -0.1,-0.1 -0.5,-0.5 -1.1,-0.8 -1.8,-1.1 -0.3,-0.1 -0.6,-0.3 -0.9,-0.4 -0.2,0.2 -0.3,0.4 -0.5,0.6 -0.4,0.5 -0.7,1 -1,1.6 -0.2,0.3 -0.3,1.1 -0.8,1.1 -0.5,0 -0.7,-0.8 -0.9,-1.1 -0.5,-1 -0.8,-2.1 -1,-3.2 0,-0.1 0,-0.3 -0.1,-0.4 -0.4,0.8 -0.8,1.6 -1.1,2.5 -0.9,2.1 -1.8,4.2 -2.6,6.3 -0.7,1.9 -1.3,3.9 -1.6,6 0.7,0 1.3,0.3 1.9,0.8 0.3,0.3 0.6,0.7 0.7,1.1 0.3,0 0.5,0.1 0.8,0.1 0.3,0.1 0.6,0.1 0.8,0.2 0.7,0.2 1.6,0.6 2.1,1.2 0.2,0 0.5,0 0.7,0 0.3,0 0.6,0.1 1,0.1 0.6,0.1 1.2,0.3 1.8,0.4 0.2,0 0.4,0.1 0.5,0.2 1.4,-0.3 2.8,-0.4 4.2,-0.4 12.5,0 22.7,10.2 22.7,22.7 0,12.5 -10.2,22.7 -22.7,22.7 -1.6,0 -3.1,-0.2 -4.7,-0.5 l -0.1,0.4 -0.9,-0.5 1,5 c 0.5,0.1 0.9,0.5 1.2,0.9 0.5,0.7 0.7,2.1 0.8,3 2.1,1.1 4,2.7 5.8,4.4 z"
   id="path7" />
	<path
   class="st0"
   d="m 54.1,72 c 0.7,1.6 1.2,3.3 0.4,4.9 -0.3,0.6 -0.7,1.1 -1.1,1.6 -0.4,0.5 -0.8,1 -1,1.7 -0.1,0.3 -0.3,1 -0.6,1 -0.3,0 -0.5,-0.7 -0.7,-1 -0.4,-0.9 -0.8,-2.1 -1,-3.1 -0.1,-0.7 -0.1,-1.5 0.1,-2.2 0.3,-1.1 1.2,-2.3 1.9,-3.1 0.3,-0.4 0.7,-0.8 1.2,-0.7 0.4,0.1 0.6,0.5 0.8,0.9 z"
   id="path8" />
	<path
   class="st1"
   d="m 53.5,72.3 c 2,4.5 -0.5,4.7 -1.8,7.6 0,0 -1.4,-3 -0.9,-4.8 0.3,-1 1.1,-2.2 1.7,-2.9 0.6,-0.6 0.7,-0.6 1,0.1 z"
   id="path9" />
	<path
   class="st0"
   d="m 51.9,72.5 c 0,-0.4 0.1,-0.9 0.5,-1.2 0.5,-0.3 1,-0.1 1.4,0.1 1,0.4 2.4,1.2 3.2,2 0.5,0.6 0.8,1.5 0.9,2.3 0.2,1 0.2,2.2 0,3.2 0,0.3 -0.1,1 -0.3,1.1 -0.2,0.1 -0.6,-0.5 -0.8,-0.7 -0.6,-0.5 -1.2,-0.8 -1.8,-1.1 -0.6,-0.3 -1.3,-0.6 -1.9,-1 -1.3,-1.1 -1.4,-3 -1.2,-4.7 z"
   id="path10" />
	<path
   class="st1"
   d="m 52.6,72.6 c -0.6,5.3 2.2,4.2 4.7,6.3 0,0 0.4,-3.5 -0.8,-5 -0.7,-0.8 -2,-1.5 -2.9,-1.8 -0.8,-0.4 -1,-0.3 -1,0.5 z"
   id="path11" />
	<path
   class="st2"
   d="m 50.8,75.5 c 0.4,0.2 0.6,0.7 0.6,1.4 0,0.5 -0.2,0.8 -0.4,1 0,0.2 0.1,0.4 0.1,0.5 0.3,-0.2 0.5,-0.5 0.7,-0.9 L 51.9,77 c 0.2,-1 -0.3,-1.7 -1,-2 0,0.1 0,0.1 0,0.2 -0.1,0 -0.1,0.1 -0.1,0.3 z"
   id="path12" />
	<path
   class="st0"
   d="m 50.8,75.4 c 0.2,0.1 0.4,0.3 0.5,0.5 0.1,0.2 0.2,0.5 0.1,0.9 0,0.2 -0.1,0.4 -0.1,0.6 -0.1,0.2 -0.2,0.3 -0.3,0.4 0,0.1 0,0.1 0.1,0.2 0,0 0,0.1 0,0.1 0.1,-0.1 0.2,-0.2 0.3,-0.3 0.1,-0.1 0.2,-0.3 0.3,-0.5 l 0.1,-0.4 c 0.1,-0.4 0,-0.8 -0.1,-1.2 -0.2,-0.3 -0.4,-0.6 -0.8,-0.7 v 0.1 c 0,0.1 0,0.1 0,0.2 0,0 0,0.1 -0.1,0.1 z M 51.1,76 C 51,75.8 50.9,75.6 50.7,75.5 h -0.1 v -0.1 c 0,-0.1 0,-0.1 0,-0.2 0,-0.1 0,-0.1 0,-0.2 0,0 0,0 0,-0.1 v 0 c 0,0 0,-0.1 0,-0.1 v -0.1 h 0.1 c 0.4,0.2 0.7,0.4 0.9,0.8 0.2,0.4 0.3,0.8 0.2,1.3 l -0.1,0.5 v 0 c -0.1,0.2 -0.2,0.4 -0.3,0.5 v 0 C 51.3,78 51.1,78.1 51,78.2 l -0.1,0.1 v -0.1 c 0,-0.1 0,-0.2 -0.1,-0.3 0,-0.1 0,-0.2 -0.1,-0.3 v 0 0 c 0.1,-0.1 0.2,-0.2 0.3,-0.4 0.1,-0.1 0.1,-0.3 0.1,-0.5 0.2,-0.2 0.1,-0.4 0,-0.7 z"
   id="path13" />
	<path
   class="st2"
   d="m 53.7,74.1 c 0.1,0.1 0.3,0.3 0.4,0.4 0.6,-1 2.4,-1.4 2.6,0.6 -0.1,0.5 -0.3,1 -0.7,1.2 0.1,0.1 0.3,0.3 0.4,0.4 0.4,-0.3 0.6,-0.8 0.7,-1.2 -0.1,-0.6 -0.3,-1.2 -0.7,-1.7 -0.2,-0.3 -0.5,-0.5 -0.8,-0.7 -0.7,0 -1.5,0.3 -1.9,1 z"
   id="path14" />
	<path
   class="st0"
   d="m 53.8,74.1 c 0.1,0 0.1,0.1 0.2,0.2 l 0.1,0.1 c 0.2,-0.3 0.5,-0.5 0.8,-0.7 0.2,-0.1 0.5,-0.1 0.7,-0.1 0.2,0 0.5,0.2 0.7,0.4 0.2,0.2 0.4,0.6 0.4,1.2 v 0 0 c -0.1,0.3 -0.1,0.5 -0.3,0.7 -0.1,0.2 -0.2,0.3 -0.4,0.5 l 0.1,0.1 0.1,0.1 c 0.1,-0.1 0.3,-0.3 0.4,-0.5 0.1,-0.2 0.2,-0.4 0.3,-0.6 -0.1,-0.3 -0.1,-0.6 -0.3,-0.9 -0.1,-0.3 -0.3,-0.5 -0.4,-0.7 -0.1,-0.1 -0.2,-0.2 -0.3,-0.3 -0.1,-0.1 -0.3,-0.2 -0.4,-0.3 -0.4,0 -0.8,0 -1.1,0.2 -0.2,0.1 -0.4,0.3 -0.6,0.6 z m 0,0.3 c -0.1,-0.1 -0.1,-0.1 -0.2,-0.2 h -0.1 v -0.1 c 0.2,-0.4 0.5,-0.6 0.9,-0.8 0.4,-0.2 0.8,-0.3 1.2,-0.2 v 0 0 c 0.2,0.1 0.3,0.2 0.5,0.4 0.1,0.1 0.3,0.2 0.4,0.4 0.2,0.2 0.3,0.5 0.5,0.8 0.1,0.3 0.2,0.6 0.3,0.9 v 0 0 c -0.1,0.2 -0.2,0.5 -0.3,0.7 -0.1,0.2 -0.3,0.4 -0.5,0.6 l -0.1,0.1 -0.3,-0.3 -0.3,-0.3 0.1,-0.1 c 0.1,-0.1 0.3,-0.3 0.4,-0.5 0.1,-0.2 0.2,-0.4 0.2,-0.7 -0.1,-0.5 -0.2,-0.9 -0.4,-1.1 -0.2,-0.2 -0.4,-0.3 -0.6,-0.3 -0.2,0 -0.4,0 -0.7,0.1 -0.3,0.1 -0.6,0.4 -0.8,0.7 l -0.1,0.1 -0.1,-0.1 c 0.2,0 0.1,0 0,-0.1 z"
   id="path15" />
	<path
   class="st0"
   d="M 52.5,73.9 C 52.3,75.8 52,77 51.9,79 c 0,0.7 -0.1,1.4 -0.1,2.1 -0.5,-2 -0.1,-5.2 0.1,-7.2 0,-0.2 0.2,-0.3 0.3,-0.3 0.2,-0.1 0.4,0.1 0.3,0.3 z"
   id="path16" />
	<path
   class="st0"
   d="m 53.1,72.2 c 1.1,3.2 3.9,4.1 4.1,6.6 -1.5,-3 -3.3,-3 -4.7,-6.3 -0.1,-0.2 0,-0.4 0.2,-0.4 0.2,-0.1 0.4,0 0.4,0.1 z"
   id="path17" />
	<path
   class="st0"
   d="m 54,71.1 c 0.1,1.1 -0.4,2.1 -1.5,2.4 -0.8,0.2 -1.7,0.2 -2.2,-0.5 -0.5,-0.7 -0.2,-1.8 0.1,-2.5 0.4,-0.7 1.2,-1.6 2.1,-1.5 1.1,0.2 1.4,1.3 1.5,2.1 z"
   id="path18" />
	<path
   class="st1"
   d="m 53.4,71.2 c 0.1,0.7 -0.2,1.4 -1,1.7 -3.9,0.9 0.4,-6.2 1,-1.7 z"
   id="path19" />
	<path
   class="st0"
   d="m 2.4,85.2 9.3,-4.1 c 0.2,-0.1 0.3,-0.1 0.5,0 0.5,0.1 0.7,0.6 0.8,1.1 0,0.1 0.1,0.2 0.1,0.2 0.8,1.5 1.5,3.1 2.1,4.7 0.8,2.1 1.5,4.2 2.1,6.3 0.9,3.2 3.6,13.3 -1.1,14.9 -1.5,0.5 -3.1,0.1 -4.5,-0.5 -1.8,-0.9 -3.4,-2.4 -4.6,-4 C 3.3,98.7 2,91.9 2,85.9 2,85.6 2.1,85.3 2.4,85.2 Z"
   id="path20" />
	<path
   class="st0"
   d="m 32.9,103.2 c -0.1,0 -0.3,0.1 -0.4,0.1 -0.3,0.1 -0.5,0.2 -0.8,0.3 -0.8,0.3 -1.5,0.7 -2.3,1 -2.2,1 -4.3,1.9 -6.6,2.6 -2,0.6 -4.1,1.2 -6.2,1.3 -2.1,0.1 -4.7,-0.3 -5.8,-2.2 -0.9,-1.4 -0.5,-3.1 0.2,-4.5 1.2,-2.4 4.8,-4 7.1,-4.9 2.9,-1.1 10.2,-2.7 13.3,-3 0,0 0.1,0 0.1,0 1.3,0.1 2.5,0.5 3.1,1.6 0.6,1.1 0.5,2.5 0.2,3.7 -0.3,1.2 -0.9,2.6 -1.5,3.7 0,0.2 -0.2,0.3 -0.4,0.3 z"
   id="path21" />
	<path
   class="st3"
   d="m 31.6,94.6 c -10.1,1.2 -18.2,4.3 -19.9,7.6 -1.9,3.9 0.9,6 5,5.8 6.2,-0.4 14.9,-5.2 16.1,-5.4 0,-0.1 4.5,-7.7 -1.2,-8 z"
   id="path22" />
	<path
   class="st4"
   d="m 11.3,105.6 c 0.6,1.7 2.7,2.5 5.4,2.3 3.2,-0.2 7,-1.5 10.1,-2.8 -0.2,-1.2 -0.4,-2.4 -0.4,-2.4 0,0 -2.4,2 -7,3.5 -3.4,1.1 -6.3,0.8 -8.1,-0.6 z"
   id="path23" />
	<path
   class="st3"
   d="m 2.7,85.9 c 0,16 8.8,23.1 13.3,21.7 2.5,-0.8 2.7,-4.9 1.8,-9.6 -1.1,-5.7 -3.7,-12.3 -5.2,-15.3 -0.2,-0.4 -0.3,-1.1 -0.5,-0.9 z"
   id="path24" />
	<path
   class="st4"
   d="m 10.2,105.9 c 2.1,1.6 4.2,2.1 5.7,1.6 0.4,-0.1 0.8,-0.4 1.1,-0.7 -3.4,0.5 -6,-0.6 -7.3,-2.9 0.2,0.7 0.3,1.4 0.5,2 z"
   id="path25" />
	<path
   class="st4"
   d="m 2.7,87.6 c 0.6,13.5 7.5,20.1 12.1,20.1 C 9.5,105.1 5.3,97.4 5.9,88.7 4.3,87.9 3.9,88.2 2.7,87.6 Z"
   id="path26" />
	<path
   class="st0"
   d="m 52.4,151.3 c 0,0 -0.1,0 -0.1,0 -0.5,0 -0.8,-0.4 -0.8,-0.9 0,-0.1 0,-0.2 0.1,-0.3 0,-0.2 -0.1,-0.5 -0.1,-0.6 -0.2,-0.8 -0.4,-1.7 -0.6,-2.5 -0.4,-1.7 -0.9,-3.3 -1.3,-5 -0.8,-2.7 -1.6,-5.5 -2.4,-8.2 -0.1,-0.3 0,-0.6 0.2,-0.9 0.2,-0.2 0.6,-0.3 0.9,-0.2 l 3.2,1.1 c 0.3,0.1 0.5,0.3 0.6,0.6 l 3.2,15.8 c 0.1,0.3 0,0.5 -0.2,0.7 -0.2,0.2 -0.4,0.3 -0.7,0.3 h -2 z"
   id="path27" />
	<path
   class="st3"
   d="m 52.4,151.3 c 0,0 0,0 0,0 -0.1,0 -0.1,0 -0.1,0 -0.2,0 -0.4,-0.1 -0.6,-0.3 -0.1,-0.2 -0.2,-0.4 -0.2,-0.6 0,0 0,-0.1 0,-0.1 0,0 0,-0.1 0,-0.1 0,-0.2 -0.1,-0.4 -0.1,-0.6 v -0.1 c -0.1,-0.4 -0.2,-0.8 -0.3,-1.3 -0.1,-0.4 -0.2,-0.8 -0.3,-1.3 -0.2,-0.8 -0.4,-1.7 -0.6,-2.5 -0.2,-0.8 -0.5,-1.7 -0.7,-2.5 -0.4,-1.4 -0.8,-2.7 -1.2,-4.1 -0.4,-1.4 -0.8,-2.7 -1.2,-4.1 0,-0.2 0,-0.3 0,-0.5 0,-0.1 0.1,-0.3 0.2,-0.4 0.1,-0.1 0.3,-0.2 0.4,-0.2 0.1,0 0.3,0 0.5,0 l 3.2,1.1 c 0.1,0.1 0.3,0.1 0.4,0.2 0.1,0.1 0.2,0.2 0.2,0.4 l 3.2,15.8 c 0,0.1 0,0.3 0,0.4 0,0.1 -0.1,0.2 -0.2,0.3 -0.1,0.1 -0.2,0.2 -0.3,0.2 -0.1,0.1 -0.2,0.1 -0.4,0.1 h -1.9 z m 0,0 c 0,0 0,0 0,0 h 2.1 c 0.1,0 0.3,0 0.4,-0.1 0.1,-0.1 0.2,-0.1 0.3,-0.2 0.1,-0.1 0.1,-0.2 0.2,-0.3 0,-0.1 0,-0.2 0,-0.4 l -3.2,-15.8 c 0,-0.2 -0.1,-0.3 -0.2,-0.4 -0.1,-0.1 -0.2,-0.2 -0.4,-0.2 l -3.2,-1.1 c -0.2,-0.1 -0.3,-0.1 -0.5,0 -0.1,0 -0.3,0.1 -0.4,0.2 -0.1,0.1 -0.2,0.2 -0.2,0.4 0,0.1 0,0.3 0,0.5 0.4,1.4 0.8,2.7 1.2,4.1 0.4,1.4 0.8,2.7 1.2,4.1 0.2,0.8 0.5,1.7 0.7,2.5 0.2,0.8 0.4,1.7 0.6,2.5 0.1,0.4 0.2,0.8 0.3,1.3 0.1,0.4 0.2,0.8 0.3,1.3 v 0.1 c 0,0.2 0.1,0.4 0.1,0.6 v 0 0 c 0,0 0,0.1 0,0.1 0,0 0,0.1 0,0.1 0,0.2 0.1,0.4 0.2,0.6 0,0 0.2,0.1 0.5,0.1 -0.1,0 -0.1,0 0,0 z"
   id="path28" />
	<path
   class="st5"
   d="m 48,133.6 c 5,16.9 4.4,16.9 4.4,16.9 h 2.1 l -3.2,-15.8 z"
   id="path29" />
	<path
   class="st3"
   d="m 48,133.6 c 4.5,15.2 4.4,16.7 4.4,16.9 h 2 l -3.2,-15.8 z m 4.4,16.8 c 0,0 0.6,0.1 -4.4,-16.9 v 0 c 1.1,0.4 2.2,0.7 3.3,1.1 1.1,5.3 2.1,10.5 3.2,15.8 z"
   id="path30" />
	<path
   class="st0"
   d="m 62.6,151.2 h 6.8 c 0.3,0 0.5,0.2 0.5,0.5 v 0 c 0,0.3 -0.2,0.5 -0.5,0.5 h -6.8 c -0.3,0 -0.5,-0.2 -0.5,-0.5 v 0 c 0,-0.2 0.3,-0.5 0.5,-0.5 z"
   id="path31" />
	<path
   class="st0"
   d="m 41.8,124.1 c 0.1,-0.2 0.1,-0.4 0.2,-0.6 0.3,-0.7 0.8,0.1 1.4,1 2,0.4 4.1,0.5 5.9,0.5 1.3,-1.3 2.3,-4 3.3,-2.8 0.6,0.7 1,1.5 1.4,2.4 1.2,-0.2 1,1.3 1,1.3 0.2,3.7 0.3,7 0.5,11.5 0.2,0.7 0.3,1.5 0.5,2 l -1.6,-0.5 -0.3,1.1 -1.3,-0.8 -0.8,1 -1,-0.7 -0.8,1 -1.1,-0.9 -0.8,1.2 -1,-1.4 -0.5,0.6 -0.9,-1.1 -0.8,0.5 -0.3,-0.9 c -0.1,-0.3 -0.2,-0.5 -0.2,-0.8 v 0 c 0,0 0,0 -0.5,-1.2 -0.5,-1.2 -4.3,-8.7 -5.6,-12.5 1,0.6 1.6,-0.4 2.7,0 0.2,0 0.4,0.1 0.6,0.1 z"
   id="path32" />
	<path
   class="st0"
   d="m 30.6,127.5 3.2,1.1 c 0.3,0.1 0.5,0.3 0.6,0.6 l 3.8,15.8 c 0.1,0.3 0,0.5 -0.2,0.7 -0.2,0.2 -0.4,0.3 -0.7,0.3 h -2.1 c -0.4,0 -0.7,-0.2 -0.8,-0.6 -1.7,-5.6 -3.3,-11.3 -5,-16.9 -0.1,-0.3 0,-0.6 0.2,-0.9 0.4,-0.2 0.7,-0.2 1,-0.1 z"
   id="path33" />
	<path
   class="st5"
   d="m 30.3,128.3 c 5,16.9 5,16.9 5,16.9 h 2.1 l -3.8,-15.8 z"
   id="path34" />
	<path
   class="st0"
   d="m 33.2,130.4 c 2.1,0 3.8,1.2 3.8,2.6 0,1.4 -1.7,2.6 -3.8,2.6 -2.1,0 -3.8,-1.2 -3.8,-2.6 0,-0.4 0.1,-0.7 0.3,-1 v 0 c -1.5,-1.2 -2.7,-3.1 -3.2,-5.4 0.8,1 1.8,1.8 2.8,2.6 0.2,0.5 0.5,0.9 0.7,1.3 0.1,0.2 0.3,0.4 0.5,0.6 v 0 c 0.7,-0.4 1.7,-0.7 2.7,-0.7 z"
   id="path35" />
	<path
   class="st6"
   d="m 33.2,130.4 c 1,0 2,0.3 2.7,0.8 0.7,0.5 1.1,1.1 1.1,1.8 0,0.7 -0.4,1.4 -1.1,1.8 -0.7,0.5 -1.6,0.8 -2.7,0.8 -1,0 -2,-0.3 -2.7,-0.8 -0.7,-0.5 -1.1,-1.1 -1.1,-1.8 0,-0.2 0,-0.3 0.1,-0.5 0,-0.2 0.1,-0.3 0.2,-0.5 -0.8,-0.6 -1.4,-1.4 -2,-2.3 -0.5,-0.9 -0.9,-1.9 -1.2,-3 v 0 0 c 0.4,0.5 0.9,0.9 1.3,1.4 0.5,0.4 1,0.8 1.5,1.2 v 0 0 c 0.1,0.2 0.2,0.4 0.3,0.7 0.1,0.2 0.3,0.4 0.4,0.6 0.1,0.1 0.2,0.2 0.2,0.3 0.1,0.1 0.2,0.2 0.2,0.3 0.3,-0.2 0.8,-0.4 1.2,-0.6 0.6,-0.2 1.1,-0.2 1.6,-0.2 z m 2.7,0.7 c -0.7,-0.5 -1.6,-0.8 -2.7,-0.8 -0.5,0 -1,0.1 -1.4,0.2 -0.5,0.1 -0.9,0.3 -1.2,0.6 v 0 0 c -0.1,-0.1 -0.2,-0.2 -0.2,-0.3 -0.1,-0.1 -0.2,-0.2 -0.2,-0.3 -0.1,-0.2 -0.3,-0.4 -0.4,-0.6 -0.1,-0.2 -0.2,-0.4 -0.3,-0.7 -0.5,-0.4 -1,-0.8 -1.5,-1.2 -0.5,-0.4 -0.9,-0.9 -1.3,-1.3 0.2,1.1 0.6,2.1 1.2,3 0.5,0.9 1.2,1.7 2,2.3 v 0 0 c -0.1,0.2 -0.2,0.3 -0.2,0.5 0,0.2 -0.1,0.3 -0.1,0.5 0,0.7 0.4,1.4 1.1,1.8 0.7,0.5 1.6,0.8 2.7,0.8 1,0 2,-0.3 2.7,-0.8 0.7,-0.5 1.1,-1.1 1.1,-1.8 0,-0.7 -0.6,-1.4 -1.3,-1.9 z"
   id="path36" />
	<path
   class="st0"
   d="m 31.7,116.8 c 0.2,0 0.5,0 0.7,0 1.9,0.2 3.6,1.4 4.8,2.8 1.3,1.6 2.1,3.7 2.3,5.7 0.2,1.7 0,3.4 -0.7,5 -0.6,1.4 -1.7,2.6 -3,3.2 -0.8,0.4 -1.6,0.5 -2.4,0.5 -0.2,0 -0.5,0 -0.7,0 -1.9,-0.2 -3.6,-1.4 -4.8,-2.8 -1.3,-1.6 -2.1,-3.7 -2.3,-5.7 -0.2,-1.7 0,-3.4 0.7,-5 0.6,-1.4 1.7,-2.6 3,-3.2 0.8,-0.3 1.6,-0.5 2.4,-0.5 z"
   id="path37" />
	<path
   class="st0"
   d="m 37.9,93.2 c -9.2,0 -15.8,9.1 -15.2,20.3 0.7,12.3 10.1,19.2 18.7,19.1 5.1,-0.1 9.5,-1.7 10.9,-7 0.4,-1.6 -0.9,-3.8 0.1,-5.9 1,-2 1.3,-7.9 1.2,-9.9 C 52.9,98.6 47.1,93.2 37.9,93.2 Z"
   id="path38" />
	<path
   class="st0"
   d="m 24.3,117.5 c 5.9,4.9 18.3,3.6 25,1.2 1.4,-0.5 2.2,-2.2 3.2,-1.4 1.6,1.1 2,8.2 1.2,9.5 -1.6,2.5 -3.8,4.6 -6.8,5.7 -4.3,1.6 -9.2,1.1 -13.4,-0.8 -3.9,-1.8 -6.8,-4.1 -8.8,-7.6 -1,-1.7 -0.3,-2.7 -1.1,-4.5 -0.1,-0.2 -0.2,-0.4 -0.2,-0.6 0,-0.4 -1.6,-1.5 -1.4,-1.8 0.4,-0.6 1.1,-0.9 1.7,-0.5 0.4,0.1 0.4,0.4 0.6,0.8 z"
   id="path39" />
	<path
   class="st0"
   d="m 34.6,127.4 c -2.9,0 -7.1,-7.3 -7.9,-4.8 -1.1,-0.6 -2.3,-1.3 -3.3,-2.2 1,3.8 3.9,12.6 4.3,13.9 0.4,1.2 0.4,1.2 0.4,1.2 v 0 c 0,0.1 0.1,0.3 0.1,0.4 l 0.3,0.9 0.7,-0.5 0.8,1 0.5,-0.5 0.9,1.2 0.7,-1.1 0.9,0.8 0.7,-0.9 0.9,0.6 0.7,-0.9 1.2,0.7 0.3,-1 1.5,0.6 c -0.1,-0.5 -0.2,-0.9 -0.3,-1.3 0,0 0,0 0,0 l -0.2,-0.7 c -0.1,-0.2 -0.1,-0.4 -0.2,-0.7 l -0.1,-0.3 -0.2,-1.9 c 1.1,-1.4 1.7,-2.5 1.4,-5.8 -0.3,-3.1 -1.2,1.3 -4.1,1.3 z"
   id="path40" />
	<path
   class="st6"
   d="m 27.4,122.8 c -0.1,0.2 -0.2,0.3 -0.4,0.4 -0.2,0.1 -0.4,0.1 -0.6,0 -0.6,-0.3 -1.2,-0.7 -1.8,-1.1 0.4,1.4 0.9,2.8 1.3,4.2 0.5,1.6 1,3.2 1.5,4.9 0.3,0.9 0.6,1.9 0.9,2.8 0.1,0.3 0.2,0.6 0.3,0.9 v 0 l 0.2,0.8 0.5,-0.3 0.7,0.9 0.5,-0.5 0.8,1.1 0.6,-0.9 1,0.8 0.7,-0.8 0.9,0.6 0.7,-0.8 0.9,0.6 0.2,-0.8 1.1,0.4 c 0,0 -0.1,-0.1 -0.4,-1.4 v 0 -0.1 c 0,0 0,-0.1 0,-0.1 l -0.2,-2.1 c 0,-0.2 0,-0.3 0.1,-0.5 0.3,-0.3 0.5,-0.7 0.7,-1.1 0.3,-0.5 0.5,-1 0.5,-1.6 0.1,-0.9 0.1,-1.8 0,-2.7 0,0 0,-0.1 0,-0.2 -0.2,0.2 -0.4,0.5 -0.7,0.7 -0.8,0.7 -1.6,1.2 -2.7,1.2 -1.5,0 -3.2,-1.5 -4.2,-2.5 -0.7,-0.6 -1.3,-1.3 -2,-2 -0.3,-0.2 -0.8,-0.6 -1.1,-0.8 z"
   id="path41" />
	<path
   class="st7"
   d="m 23.9,120.9 c 0.9,2.1 2.6,2.5 4.1,4.1 1.5,1.6 2.8,4.3 4.8,5.4 2.8,1.5 5.9,2.3 8.8,2.2 12.8,-0.2 12.1,-13.9 10.6,-14.2 -0.7,-0.1 -0.7,0.4 -2.7,1.1 -6.5,2.3 -19.6,3.9 -25.9,-1.5 -0.1,-0.1 -0.3,-0.7 -0.4,-0.8 -0.3,-0.2 -0.8,0.5 -0.8,0.8 0.1,0.1 1.3,2.5 1.5,2.9 z"
   id="path42" />
	<path
   class="st0"
   d="m 27.7,121.1 c 6.5,2.3 16,1.1 21.6,-0.9 1.4,-0.5 3.9,-1.4 5.2,-0.4 0.4,0.3 -0.3,0.6 -0.1,1.1 0,0.2 0.1,0.3 0.1,0.5 0,0.1 0,0.1 0,0.2 0.1,0.2 0.6,3.5 0.6,3.7 -0.3,1.1 -0.2,-0.8 -0.6,0.1 -2.5,5.2 -7.3,8.1 -13.5,8.1 -1.4,0 -2.8,-0.2 -4.1,-0.6 -2.1,-0.6 -5.7,-2.6 -7.7,-5.3 -1.7,-1.1 -2.7,-3.1 -4,-5.2 -0.1,-0.1 -0.6,-0.9 -0.5,-0.5 0.2,0.9 0.9,3.4 0.7,3 -0.1,-0.1 -4.5,-7.9 -2.9,-7.5 0,0.1 0.1,0.2 0.1,0.2 0.3,0.6 1.1,1.4 2.4,2.1 0.8,0.7 2.1,1.2 2.7,1.4 z"
   id="path43" />
	<path
   class="st6"
   d="m 23.9,120.9 c 3.2,7.2 10.7,11.7 17,11.7 0.7,0 1.4,0 2.1,-0.1 0.2,0.3 0.3,0.7 0.5,1 0.6,1.2 1.1,2.3 1.6,3.6 v 0 l 0.3,1.1 0.6,-0.4 0.8,1 0.6,-0.6 0.9,1.3 0.7,-1 1.1,1 0.8,-1 1,0.7 0.8,-1 1.1,0.7 0.3,-1 1.3,0.5 c 0,0 -0.1,-0.1 -0.4,-1.2 v 0 c -0.1,-1.5 -0.8,-17 -2,-17 -0.7,0 -1.8,0.2 -3.3,0.8 -6.4,2.3 -19.2,3.8 -25.7,-1.1 -0.8,-0.6 -0.8,-0.8 -0.2,0.3 -0.1,0.3 0.1,0.6 0.1,0.7 z"
   id="path44" />
	<path
   class="st0"
   d="m 52.7,109.8 c 0,0 0,0.1 0,0 -1.5,1.4 -1.5,2.2 -3.4,2.7 -1.5,0.4 -3,0.7 -4.4,0.9 -0.6,0.1 -1.1,0.2 -1.7,0.2 -0.4,0 -0.8,0.1 -1.1,0.1 -1.2,0 -2.4,-1.4 -3,-2.3 -0.6,-0.7 -1.1,-1.6 -1.6,-2.4 l -7.4,-0.6 -2.9,3.3 c -0.2,0.2 -0.4,0.3 -0.6,0.3 -0.4,0 -0.9,-0.1 -1.3,-0.1 -1,-0.2 -2,-0.5 -3,-0.9 -0.3,-0.1 -0.5,-0.5 -0.5,-0.9 0.3,-3.2 1.2,-6.2 2.7,-9 2.1,-3.8 5.5,-6.2 9.9,-5.8 1.9,-1 1.2,-2.8 3.4,-2.8 1.8,0 3.6,0.3 5.3,0.9 6.6,2.4 8.3,8.9 9.9,15.7 0.1,0.2 0,0.5 -0.3,0.7 z"
   id="path45" />
	<path
   class="st3"
   d="m 37.8,93.2 c -8.2,0 -14.4,7.3 -15.2,16.9 2.3,1 4,1 4,1 l 3.2,-3.6 8.2,0.7 c 0,0 2.6,4.7 4.1,4.7 1.5,0 11.2,-2.4 12.6,-3.7 0.6,-0.5 -0.7,0.5 -0.8,0.5 -0.1,0.1 0.8,-0.6 0.8,-0.6 -2.2,-9 -8.7,-15.9 -16.9,-15.9 z"
   id="path46" />
	<path
   class="st0"
   d="m 22.8,108.9 c 1.9,0.8 3.1,0.9 3.6,1 l 3.3,-3.6 8.7,0.7 0.1,0.1 c 0,0 1,1.7 2,3.1 l -0.3,0.3 c -0.9,-1.2 -1.8,-2.8 -2,-3.2 l -8.4,-0.7 -3.2,3.5 h -0.1 c 0,0 -1.5,0.2 -3.9,-0.8 z"
   id="path47" />
	<path
   class="st7"
   d="m 35.4,107.1 -5.7,-0.5 v 0 l -1.4,1.6 -1.8,2 h -0.1 c 0,0 -1.4,0.2 -3.6,-0.7 0,0 -0.1,0 -0.1,0 0,0.1 0,0.2 0,0.3 0,0.1 0,0.3 0,0.4 0,0 0.1,0 0.1,0 0.1,0 0.2,0.1 0.3,0.1 2.1,0.8 3.5,0.8 3.5,0.8 l 1.2,-1.3 1.5,-1.7 0.5,-0.6 5.6,0.5 v 0 l 2.6,0.2 c 0,0 0.3,0.5 0.7,1.2 0.1,-0.1 0.1,-0.2 0.2,-0.3 -0.5,-0.8 -0.8,-1.6 -1,-1.9 z"
   id="path48" />
	<path
   class="st8"
   d="M 23.3,108.3 C 23.8,105 25.7,100.4 28,98 l 1,-0.9 c -1.8,4 -3.6,6.7 -3.9,11.3 0,0.5 -0.5,0.9 -1,0.8 -0.5,0 -0.9,-0.4 -0.8,-0.9 z"
   id="path49" />
	<path
   class="st9"
   d="m 35.1,141.7 -1.4,-4.8 -0.6,0.7 1.3,4.4 c 0.2,-0.1 0.5,-0.2 0.7,-0.3 z"
   id="path50" />
	<path
   class="st0"
   d="m 7.3,151.2 h 39.2 c 0.3,0 0.5,0.2 0.5,0.5 v 0 c 0,0.3 -0.2,0.5 -0.5,0.5 H 7.3 C 7,152.2 6.8,152 6.8,151.7 v 0 c 0,-0.2 0.2,-0.5 0.5,-0.5 z"
   id="path51" />
	<path
   class="st0"
   d="m 43.9,135.9 c -0.6,-1.3 -3.2,-6.5 -3.4,-7.6 0.5,0.6 2.9,4.8 3.9,7.1 0.1,0.2 0.1,0.5 0,0.6 -0.2,0.1 -0.4,0 -0.5,-0.1 z"
   id="path52" />
	<path
   class="st0"
   d="m 18.1,96.1 c 0.4,1.5 0.6,4.9 -0.1,6.3 0,0.1 -0.2,0.1 -0.1,-0.1 0,-0.1 0,-0.2 0.1,-0.3 0.4,-2.5 -0.2,-3.7 -0.6,-6 -0.1,-0.2 0.1,0 0.3,-0.1 0.1,-0.1 0.3,0 0.4,0.2 z m -0.2,6.2 z"
   id="path53" />
	<path
   class="st0"
   d="m 18.2,97 c 0.7,1.1 1.1,2 1.2,3.3 -0.6,-0.9 -1,-1.8 -1.7,-2.7 -0.2,-0.1 -0.2,-0.4 0,-0.5 0.1,-0.2 0.4,-0.2 0.5,-0.1 z"
   id="path54" />
	<path
   class="st7"
   d="m 40.1,110.1 c -0.2,-0.2 -0.3,-0.4 -0.5,-0.6 -0.4,-0.6 -1.2,-1.8 -1.4,-2.3 0,-0.1 -0.3,0 -0.3,-0.1 0.2,0.3 0.6,1.1 1,1.9 -0.1,0.1 -0.1,0.2 -0.2,0.3 0.9,1.4 2.3,3.4 3.4,3.4 1.3,0 8,-1 11.5,-2.8 0.5,-0.3 0.9,-0.7 1.1,-0.8 0.2,-0.2 0,0 0,0 0,-0.2 -0.1,-0.3 -0.1,-0.5 -0.4,0.2 -0.6,0.4 -1,0.6 -1.4,0.7 -2.9,1.2 -4.3,1.6 -3.8,1.1 -7.1,1.4 -7.3,1.4 -0.2,0 -0.6,-0.3 -0.9,-0.7 -0.7,-0.4 -0.6,-0.8 -1,-1.4 z"
   id="path55" />
	<path
   class="st0"
   d="m 39.5,109.9 c -0.1,-0.1 -0.2,-0.2 -0.1,-0.3 0.1,-0.1 0.2,-0.1 0.3,0 0.4,0.5 1,1.2 1.5,1.8 0.3,0.3 0.6,0.6 0.6,0.6 0.2,0 3.4,-0.3 7.2,-1.4 2,-0.6 3.3,-1.1 5.2,-2.2 0.1,-0.1 0.2,0 0.3,0.1 0.1,0.1 0,0.2 -0.1,0.3 -1.9,1.1 -3.3,1.6 -5.3,2.2 -3.8,1.1 -7.1,1.4 -7.3,1.4 -0.2,0 -0.6,-0.3 -0.9,-0.7 -0.5,-0.6 -1,-1.3 -1.4,-1.8 z"
   id="path56" />
	<path
   class="st0"
   d="M 5.9,80 C 5.6,78.3 5.5,76.5 5.6,74.8 5.7,73.6 5.9,72 6.4,70.9 c 0.3,-0.6 0.7,-1.3 1.1,-1.8 0.4,-0.5 0.9,-0.9 1.6,-0.8 1.1,0.3 1,2.1 1,2.9 v 0.6 c 0.4,-0.9 0.8,-1.7 1.4,-2.3 0.3,-0.3 0.6,-0.7 1.1,-0.9 0.4,-0.2 0.9,-0.3 1.3,-0.1 1.1,0.5 0.9,2.2 0.6,3.1 L 11.3,84.5 C 11.2,84.8 11,85 10.7,85 c -0.2,0 -0.7,0.1 -0.8,0.3 -0.2,0.3 -0.1,0.9 0,1.2 0.1,0.8 0.3,1.6 0.5,2.3 0,0.2 0,0.3 -0.1,0.5 -0.3,0.5 -0.5,0 -1,0.2 -0.8,0.5 -1.9,1.1 -2.7,1.3 -1.7,0.5 -3.2,0.1 -4.3,-2 -0.8,-1.5 -0.8,-3.5 -0.4,-5.1 0,0 0,-0.1 0,-0.1 0.8,-1.4 2.4,-2.7 4,-3.6 z"
   id="path57" />
	<path
   class="st3"
   d="m 2.5,84.2 c -0.5,1.7 -0.3,6.1 2.8,7 3.1,0.9 4.3,-2.1 4.3,-2.1 -0.4,-2.5 -1.4,-4.4 1,-4.6 l 3.2,-12.9 c 0.7,-2.7 -0.6,-3 -1.8,-1.5 -1.1,1.3 -2.2,4.1 -2.6,7.8 V 71.4 C 9.6,67.9 8.2,68.9 7,71.4 6.4,72.7 6,76 6.5,79.7 c 0,0.2 -1,0 -0.9,0.2 -1.2,0.6 -2.2,2.3 -3.1,4.3 z"
   id="path58" />
	<g
   id="g60">
		<path
   class="st8"
   d="m 9.3,69.3 c -0.4,-0.9 -1.4,0.2 -2.2,1.9 -0.6,1.3 -1,4.2 -0.7,7.4 0.2,-0.5 0.4,-1.4 0.5,-2.9 0.2,-3 0.4,-4.2 2.4,-6.4 z"
   id="path59" />
		<path
   class="st8"
   d="M 13.9,69.5 C 13.6,68.9 12.8,69.1 12.1,70 11,71.3 9.9,74 9.5,77.7 L 9.8,78 c 0,0 0.1,-0.6 0.8,-3.1 0.5,-2.2 1.8,-4.1 3.3,-5.4 z m -4.4,8.2 v -1.2 c -0.1,0.7 -0.1,1.1 0,1.2 z"
   id="path60" />
	</g>
	<path
   class="st0"
   d="m 0.4,81.3 c 0.3,-0.8 0.9,-1.5 1.8,-1.6 1.1,-0.1 1.8,0.8 2.2,1.7 0.4,1.1 0.6,2.7 0.6,3.9 0,0 0,0 0,0.1 0,0.4 -0.1,0.8 -0.3,1.1 -0.2,0.5 -0.5,1 -1,1.2 -0.9,0.3 -1.6,-0.5 -2,-1.2 -1,-1.4 -1.9,-3.6 -1.3,-5.2 z"
   id="path61" />
	<path
   class="st3"
   d="m 1.1,81.5 c -0.4,1.1 0,2.8 1.1,4.6 1.6,2.5 2,-0.9 2,-0.9 0,0 0.1,-2.2 -0.5,-3.6 C 2.9,79.7 1.5,80.3 1.1,81.5 Z"
   id="path62" />
	<path
   class="st8"
   d="m 1.1,81.5 c -0.4,1.1 0,2.8 1.1,4.6 C 2.7,86.8 3,87 3.3,87 3.1,86.8 2.7,86.2 2.1,85 1.3,83.1 1.3,81.4 2.2,80.4 c -0.5,0 -0.9,0.5 -1.1,1.1 z"
   id="path63" />
	<path
   class="st0"
   d="m 9.5,73.4 c 0,-0.1 0.1,-0.2 0.2,-0.2 0.1,0 0.2,0.1 0.2,0.2 0,0.8 -0.1,1.4 -0.1,2 -0.1,0.7 -0.1,1.4 -0.1,2.7 0,0.1 -0.1,0.2 -0.2,0.2 -0.1,0 -0.2,-0.1 -0.2,-0.2 0,-1.3 0.1,-2 0.1,-2.7 0.1,-0.7 0.1,-1.2 0.1,-2 z"
   id="path64" />
	<path
   class="st0"
   d="m 6.6,72.1 c -0.1,0.1 -0.2,0 -0.2,0 -0.1,-0.1 0,-0.2 0,-0.2 0,0 0.1,-0.1 0.1,-0.1 0.3,-0.2 1,-0.3 1.6,-0.2 0.6,0.1 1.3,0.2 1.6,0.6 0,0 0.1,0.1 0.1,0.1 0,0.1 0,0.2 -0.1,0.2 -0.1,0 -0.2,0 -0.2,-0.1 0,0 0,-0.1 -0.1,-0.1 C 9.2,72 8.6,71.8 8.1,71.8 7.5,71.9 7,71.9 6.6,72.1 c 0.1,0 0.1,0 0,0 z"
   id="path65" />
	<path
   class="st0"
   d="M 6.1,75.7 C 6,75.8 5.9,75.8 5.9,75.7 5.8,75.6 5.8,75.5 5.9,75.5 5.9,75.5 6,75.4 6,75.4 6.3,75.1 7,75 7.7,75 c 0.7,0 1.4,0.2 1.8,0.6 0,0 0.1,0.1 0.1,0.2 0.1,0.1 0,0.2 -0.1,0.2 -0.1,0.1 -0.2,0 -0.2,-0.1 0,0 -0.1,-0.1 -0.1,-0.1 -0.3,-0.3 -0.9,-0.5 -1.5,-0.5 -0.6,0 -1.2,0.2 -1.6,0.4 z"
   id="path66" />
	<path
   class="st0"
   d="m 10.9,72 c -0.1,0 -0.2,0 -0.2,-0.1 0,-0.1 0,-0.2 0.1,-0.2 0,0 0.1,0 0.1,-0.1 0.4,-0.1 1,-0.1 1.6,0.1 0.6,0.2 1.2,0.5 1.4,0.9 0,0.1 0,0.1 0.1,0.2 0,0.1 0,0.2 -0.1,0.2 -0.1,0 -0.2,0 -0.2,-0.1 0,0 0,-0.1 0,-0.1 -0.2,-0.4 -0.7,-0.6 -1.2,-0.8 -0.7,-0.1 -1.3,-0.2 -1.6,0 0,-0.1 0,-0.1 0,0 z"
   id="path67" />
	<path
   class="st0"
   d="m 9.8,75.5 c -0.1,0 -0.2,0 -0.2,-0.1 0,-0.1 0,-0.2 0.1,-0.2 0,0 0.1,0 0.1,-0.1 0.4,-0.1 1.1,-0.2 1.8,0 0.7,0.1 1.4,0.5 1.6,0.9 0,0.1 0.1,0.1 0.1,0.2 0,0.1 0,0.2 -0.1,0.2 -0.1,0 -0.2,0 -0.2,-0.1 0,0 0,-0.1 -0.1,-0.1 -0.2,-0.4 -0.8,-0.6 -1.4,-0.8 -0.7,-0.1 -1.3,-0.1 -1.7,0.1 z"
   id="path68" />
	<path
   class="st0"
   d="m 24.1,121.9 c -1,-6.1 -1,-12.5 1.1,-18.4 0.6,-1.7 1.3,-3.3 2.2,-4.8 0.3,-0.5 0.6,-0.9 0.9,-1.4 0.1,-0.2 0.3,-0.4 0.4,-0.6 0.2,-0.5 0.9,-0.9 1.4,-1.1 0.8,-0.4 1.7,-0.6 2.5,-0.9 2.4,-0.7 5,-1.2 7.5,-1.3 1.9,-0.1 3.8,-0.1 5.6,0.3 3,0.7 5.1,2.3 6.5,5.1 0.5,1.1 0.9,2.3 1.2,3.5 0.3,1.1 0.5,2.1 0.8,3.2 0.2,0.5 0.3,1.1 0.3,1.7 0.1,0.7 0.2,1.5 0.2,2.2 0.1,1.8 0.2,3.5 0.2,5.3 0,2.3 0,4.6 0,6.8 0,1 -0.1,2.1 -0.1,3.2 0,0.1 0,0.2 -0.1,0.3 -0.1,0.2 -0.6,0.4 -0.8,0.9 -0.5,1.1 -0.7,2.9 -1.2,2.9 -0.6,0.1 -2,-1.7 -2.4,-2.2 0,0.7 0,2.6 -0.4,2.7 -0.5,0.2 -2.4,-1.9 -2.7,-2.3 -0.1,0.3 -0.7,1.9 -0.9,2 -0.4,0.1 -1.8,-1.5 -2,-1.9 -0.1,0.2 -1.4,2.3 -1.6,2.3 -0.4,0 -2,-2.1 -2.2,-2.4 -0.1,0.3 -1.1,2.6 -1.4,2.6 -0.3,0 -2,-2.5 -2.2,-2.8 -0.2,0.4 -1.1,2.6 -1.4,2.7 -0.4,0.1 -1.8,-2.1 -2,-2.5 -0.2,0.3 -1.2,2.2 -1.4,2.2 -0.4,0 -1.9,-2.4 -2.1,-2.8 -0.2,0.3 -1.1,2.1 -1.4,2.1 -0.4,0 -1.5,-1.8 -1.7,-2.2 -0.3,0.3 -0.7,0.6 -1,0.9 -0.2,0.2 -0.4,0.2 -0.7,0.2 -0.2,-0.1 -0.4,-0.2 -0.5,-0.5 -0.1,-0.4 -0.2,-0.8 -0.3,-1.3 0.1,-1.1 -0.2,-2.4 -0.3,-3.7 z"
   id="path69" />
	<path
   class="st10"
   d="m 24.7,121.8 c 0.5,3.7 0.9,5.2 0.9,5.2 0.6,-0.6 1.2,-1.1 1.8,-1.7 0.2,1.1 0.7,1.9 1.3,2.5 0.6,-0.8 1.1,-1.9 1.6,-2.7 0.4,1.1 0.9,2.2 1.8,3.3 0.5,-0.9 1,-1.7 1.5,-2.6 0.4,1.1 1.1,2 1.8,2.9 0.5,-1.1 1,-2.1 1.4,-3.2 0.5,1.2 1.3,2.2 2.1,3.3 0.7,-1.1 1.1,-2.3 1.3,-3.6 0.5,1.3 1.2,2.5 2.3,3.5 0.8,-1 1.4,-2 1.4,-3 0.5,0.9 1,1.7 2,2.6 0.5,-1 0.8,-2 0.7,-3 0.7,1.4 1.7,2.5 2.8,3.6 0,-1.1 0,-2.3 0.1,-3.4 1,0.9 1.8,1.8 2.8,2.6 0.3,-0.5 0.5,-2 0.8,-2.5 0.2,-0.5 0.6,-0.1 0.9,-0.6 0,0 0.6,-15.1 -0.6,-19 -1.2,-3.9 -1.5,-9.9 -8,-11.3 C 39,93 29.5,96.1 29.2,96.9 29,97.8 22,105.3 24.7,121.8 Z"
   id="path70" />
	<path
   class="st11"
   d="m 48.3,95.5 c -0.8,-0.4 -1.7,-0.8 -2.7,-1 -4.6,-1 -10.7,0.2 -14,1.3 -2,2 -3.3,5.1 -2.1,9.7 0,-4 2.7,-7.7 2.7,-7.7 0,0 0.6,1.5 5.1,2.2 4.5,0.7 7.1,-0.8 7.1,-0.8 0,0 -0.7,8.4 -1.2,10.2 -0.4,1.4 4.1,-10.9 5.1,-13.9 z"
   id="path71" />
	<path
   class="st0"
   d="m 2.8,80.4 c 0.3,-1 1.1,-1.9 2.2,-1.8 0.6,0.1 1,0.4 1.3,0.9 0.1,0.1 0,0 0,0.1 0.2,0.4 -1.3,-0.4 -1.2,0 0.1,0.5 1.6,2.5 1.7,3 0.1,0.8 0.3,1.4 0.2,2.1 0,0 0,0 0,0.1 -0.1,0.4 -0.2,0.8 -0.3,1.2 -0.2,0.5 -0.5,1 -1,1.1 -0.4,0.1 -0.7,0 -1,-0.3 C 4.4,86.5 4.1,86.2 4,85.8 3.8,85.4 3.6,84.9 3.4,84.4 2.9,83.2 2.5,81.5 2.8,80.4 Z"
   id="path72" />
	<path
   class="st3"
   d="m 3.4,80.6 c -0.3,1.1 0.2,3.3 1,4.8 1.3,2.5 2,-0.8 2,-0.8 C 6.5,83 6.3,81.8 6.2,81 6.1,80.4 6.2,80 6,79.7 5.8,79.5 5.4,79.4 5.2,79.3 4.5,79 3.7,79.6 3.4,80.6 Z"
   id="path73" />
	<path
   class="st8"
   d="m 3.4,80.6 c -0.3,1.1 0.2,3.3 1,4.8 0.2,0.5 0.5,0.7 0.7,0.9 C 4.9,85.8 4.5,84.8 4.2,83.2 3.8,81 3.9,80 4.6,79.3 c -0.5,0.1 -1,0.5 -1.2,1.3 z"
   id="path74" />
	<path
   class="st0"
   d="M 6.2,84.2 C 6.1,83.9 5.9,83.8 5.7,83.7 5.5,83.6 5.4,83.6 5.2,83.7 5,83.7 4.8,83.8 4.7,83.9 4.3,84 4.1,84.3 4,84.6 L 3.7,84.5 c 0.1,-0.4 0.4,-0.8 0.8,-1 0.2,-0.1 0.4,-0.2 0.6,-0.2 0.2,0 0.5,0 0.7,0.1 0.3,0.1 0.5,0.3 0.7,0.7 z"
   id="path75" />
	<path
   class="st0"
   d="m 5.5,81 c -0.1,-0.1 -0.1,-0.2 0,-0.3 0.1,-0.1 0.2,-0.1 0.3,0 0.3,0.3 0.6,1 0.8,1.8 0.1,0.8 0.2,1.7 0.1,2.8 0,0.1 -0.1,0.2 -0.2,0.2 -0.1,0 -0.2,-0.1 -0.2,-0.2 0.1,-1 0.1,-1.9 -0.1,-2.7 C 6,81.8 5.7,81.2 5.5,81 Z"
   id="path76" />
	<path
   class="st0"
   d="M 6.1,82.3 C 5.5,81.2 3.9,81.4 3.5,82.5 L 3.2,82.4 c 0.4,-1.5 2.5,-1.7 3.2,-0.3 z"
   id="path77" />
	<path
   class="st0"
   d="M 3.8,84.7 C 3.6,84.5 3.4,84.3 3.2,84.3 c -0.2,0 -0.4,0 -0.6,0 -0.2,0 -0.4,0.1 -0.5,0.2 C 1.8,84.7 1.6,85 1.5,85.3 L 1.1,85.2 C 1.2,84.8 1.5,84.4 1.8,84.1 2,84 2.3,83.9 2.5,83.9 2.7,83.8 3,83.8 3.2,83.9 3.5,84 3.8,84.2 4,84.5 Z"
   id="path78" />
	<path
   class="st0"
   d="M 3,82.8 C 2.9,82.6 3.1,82.6 3,82.5 2.2,81.9 0.8,82.3 0.6,83.3 L 0.2,83.2 C 0.5,82 2,81.5 3.1,82.1 c 0.2,0.1 0.1,0.3 0.3,0.5 z"
   id="path79" />
	<path
   class="st0"
   d="m 6.5,79.7 c -0.1,0 -0.2,0 -0.2,-0.1 0,-0.1 0,-0.2 0.1,-0.2 0.5,-0.3 1.8,-0.4 3.1,-0.4 1,0.1 2,0.3 2.4,0.8 0.1,0.1 0.1,0.2 0,0.2 -0.1,0.1 -0.2,0.1 -0.2,0 -0.4,-0.4 -1.2,-0.6 -2.2,-0.6 -1.3,-0.1 -2.6,0 -3,0.3 z"
   id="path80" />
	<path
   class="st0"
   d="M 10.4,82.6 C 10,82.4 9.6,82.1 9.3,81.9 8.3,81.2 6.6,79.5 7.1,78.1 c 0.3,-0.9 1.4,-0.6 2.1,-0.5 0.9,0.2 1.8,0.5 2.7,0.8 0.9,0.3 1.2,0.4 2.1,0.7 1.7,0.6 2.6,3.4 2.1,5.1 -1.2,4.4 -3.6,7.1 -8.5,5.9 -0.2,-0.1 0.3,0.3 0.2,0.1 -0.3,-1 -0.2,-1 -0.2,-1.9 -0.1,-2 0.3,-4.5 2.5,-5.6 0,0 0.1,-0.1 0.3,-0.1 z"
   id="path81" />
	<path
   class="st3"
   d="m 6.8,90.6 c 4.8,0.7 7.5,-2.9 8.5,-5.9 0.2,-0.6 0.4,-1.2 0.4,-1.7 0.1,-0.5 -0.4,-1.6 -0.9,-2.3 -0.6,-0.8 -1.7,-1.3 -1.7,-1.3 -2.2,-0.8 -5.2,-1.7 -5.4,-1.1 -0.2,0.7 0.8,2.2 2,3 0.5,0.4 1.7,1 2.3,1.2 0.5,0.1 -0.6,0.3 -1.7,0.9 -1.8,0.9 -3.4,3.4 -2.9,6.7 0,0.3 -0.7,0.2 -0.6,0.5 z"
   id="path82" />
	<path
   class="st0"
   d="m 12,89.9 c 0,-0.1 0,-0.2 0.1,-0.2 0.1,0 0.2,0 0.2,0.1 2.2,4.2 3.2,8.7 3.7,11.3 0.2,0.9 0.4,1.6 0.5,1.9 0.5,1.1 2,0.7 5.3,-0.2 0.8,-0.2 1.7,-0.5 2.7,-0.7 0.1,0 0.2,0 0.2,0.1 0,0.1 0,0.2 -0.1,0.2 -1,0.3 -1.9,0.5 -2.7,0.7 -3.5,1 -5.2,1.5 -5.8,0.1 -0.1,-0.3 -0.3,-1 -0.5,-2 C 15.1,98.5 14.1,94.1 12,89.9 Z"
   id="path83" />
	<g
   id="g88">
		<path
   class="st0"
   d="m 15.5,81.8 c 0.5,1 0.2,2.4 -0.7,3.1 -0.9,0.7 -2.1,0.4 -2.6,-0.6 -0.5,-1 -0.2,-2.4 0.7,-3.1 0.8,-0.7 2,-0.5 2.6,0.6 z"
   id="path84" />
		<path
   class="st3"
   d="m 15.1,82.1 c -0.4,-0.8 -1.3,-1 -2,-0.5 -0.7,0.5 -1,1.6 -0.5,2.3 0.4,0.8 1.3,1 2,0.5 0.6,-0.5 0.9,-1.6 0.5,-2.3 z"
   id="path85" />
		<path
   class="st0"
   d="m 14.9,83.3 c -0.2,0.7 -0.8,1.2 -1.4,1.1 -0.6,-0.1 -1,-0.8 -0.8,-1.6 0.2,-0.7 0.8,-1.2 1.4,-1.1 0.6,0.1 1,0.8 0.8,1.6 z"
   id="path86" />
		<path
   class="st3"
   d="m 14.7,83.2 c 0.1,-0.6 -0.2,-1.1 -0.7,-1.3 -0.5,-0.1 -1,0.3 -1.1,0.8 -0.1,0.6 0.2,1.1 0.7,1.3 0.4,0.2 0.9,-0.2 1.1,-0.8 z"
   id="path87" />
		<path
   class="st0"
   d="m 14.7,83.2 c 0,-0.1 0,-0.1 0,-0.2 l -1.8,-0.4 c 0,0.1 0,0.1 -0.1,0.2 0,0.1 0,0.1 0,0.2 l 1.8,0.4 c 0,-0.1 0.1,-0.1 0.1,-0.2 z"
   id="path88" />
	</g>
	<path
   class="st0"
   d="m 13.2,79.4 c 0,-0.1 0.1,-0.2 0.2,-0.2 0.1,0 0.2,0.1 0.2,0.2 0,0.6 -0.1,1.3 -0.4,2 -0.3,0.5 -0.7,1 -1.4,1.2 -0.1,0 -0.2,0 -0.2,-0.1 0,-0.1 0,-0.2 0.1,-0.2 0.6,-0.2 1,-0.6 1.2,-1.1 0.2,-0.6 0.3,-1.3 0.3,-1.8 z"
   id="path89" />
	<path
   class="st0"
   d="m 10.5,78.3 c 0,-0.1 0.1,-0.2 0.2,-0.2 0.1,0 0.2,0.1 0.2,0.2 0,0.5 -0.1,1.2 -0.4,1.8 -0.3,0.5 -0.7,0.9 -1.3,1.1 -0.1,0 -0.2,0 -0.2,-0.1 0,-0.1 0,-0.2 0.1,-0.2 0.5,-0.2 0.9,-0.6 1.1,-1 0.2,-0.5 0.3,-1.1 0.3,-1.6 z"
   id="path90" />
	<path
   class="st0"
   d="m 18.4,96.9 c 4.7,-1.2 9.3,-2.4 14,-3.6 0.3,-0.1 0.7,0.1 0.8,0.4 0.1,0.3 0,0.7 -0.2,0.8 -0.4,0.3 -0.8,0.6 -1.2,0.9 -0.8,0.7 -1.6,1.4 -2.2,2.3 -0.3,0.4 -0.6,0.9 -0.8,1.4 -0.6,1.3 -0.6,2.7 -0.8,4.1 -0.1,1.1 -0.2,2.7 -1.2,3.4 -1.1,0.7 -2.4,1.4 -3.6,1.9 -1.7,0.7 -3.5,1.4 -5.3,2 -0.3,0.1 -0.6,0 -0.8,-0.3 -0.2,-0.3 -0.8,-1.6 -0.6,-1.9 0.3,-0.3 1.2,0.2 1.4,-0.4 0.4,-1.5 0.5,-3.5 0.6,-4.5 0,-1.1 0,-2.2 -0.1,-3.3 -0.1,-0.8 -0.2,-1.7 -0.5,-2.4 -0.1,-0.2 0,-0.4 0,-0.5 0.1,-0.2 0.3,-0.3 0.5,-0.3 z"
   id="path91" />
	<path
   class="st10"
   d="m 18.5,97.5 c 0.9,2.7 1,10.5 -0.8,12.4 0,0 6.1,-2 8.7,-3.8 1.4,-0.9 0.5,-4.3 1.7,-7.2 1.1,-2.7 4.4,-4.9 4.4,-4.9 0,0 -8.4,2.1 -14,3.5 z"
   id="path92" />
	<path
   class="st12"
   d="m 18.5,97.5 c 0.1,0.3 0.2,0.7 0.3,1.2 3.8,-1.1 10.7,-3.5 11.8,-4.1 0.1,-0.1 0.2,-0.2 0.3,-0.2 -2.7,0.7 -8.3,2.1 -12.4,3.1 z"
   id="path93" />
	<path
   class="st11"
   d="m 19.1,105 c -0.2,2.1 -0.6,4.1 -1.4,4.9 0,0 5.8,-1.9 8.5,-3.6 0.5,-2.2 0.7,-4.8 -0.3,-3.6 -1.3,1.5 -4.2,2.3 -6.8,2.3 z"
   id="path94" />
	<g
   id="g99">
		<path
   class="st0"
   d="m 17.3,102.3 c 0.8,0.8 0.9,2.2 0.2,3.2 -0.7,0.9 -1.9,1 -2.7,0.2 -0.8,-0.8 -0.9,-2.2 -0.2,-3.2 0.7,-0.9 1.9,-1 2.7,-0.2 z"
   id="path95" />
		<path
   class="st3"
   d="m 17,102.7 c -0.6,-0.6 -1.5,-0.6 -2.1,0.1 -0.5,0.7 -0.5,1.8 0.1,2.4 0.6,0.6 1.5,0.6 2.1,-0.1 0.6,-0.7 0.5,-1.7 -0.1,-2.4 z"
   id="path96" />
		<path
   class="st0"
   d="m 17.2,103.9 c 0,0.7 -0.4,1.4 -1.1,1.4 -0.6,0 -1.2,-0.5 -1.2,-1.3 0,-0.7 0.4,-1.4 1.1,-1.4 0.6,0 1.2,0.6 1.2,1.3 z"
   id="path97" />
		<path
   class="st3"
   d="m 17,103.9 c 0,-0.6 -0.5,-1 -1,-1 -0.5,0 -0.9,0.5 -0.9,1.1 0,0.6 0.5,1 1,1 0.5,0 0.9,-0.5 0.9,-1.1 z"
   id="path98" />
		<path
   class="st0"
   d="m 17,103.9 c 0,-0.1 0,-0.1 0,-0.2 l -1.8,0.1 c 0,0.1 0,0.1 0,0.2 0,0.1 0,0.1 0,0.2 l 1.8,-0.1 c 0,0 0,-0.1 0,-0.2 z"
   id="path99" />
	</g>
	<path
   class="st0"
   d="m 27.7,124.9 c -0.3,0.3 -2.1,-1.2 -2.3,-1.5 -1,-1 -1.9,-2.3 -2.6,-3.5 -0.8,-1.5 -1.1,-3.5 -1.2,-5.2 -0.1,-2.3 0.1,-4.8 0.6,-7 1.1,-5.2 3.7,-10.5 7.8,-13.9 0.7,-0.6 1.6,-0.8 2.4,-0.7 0.4,0 0.9,0.1 1.2,0.3 0.2,0.1 0.4,0.3 0.4,0.5 0,0.2 0,0.5 -0.2,0.6 -2.1,2 -3.8,4.5 -4.2,7.4 -0.1,0.9 -0.1,1.8 0,2.7 0.1,0.7 0.2,1.4 0.2,2 0,0.5 -0.4,0.9 -0.7,1.2 -0.4,0.5 -0.8,1 -1.1,1.5 -1.2,2.2 -1.3,4.9 -1.1,7.4 0.2,1.8 0.3,3.7 0.5,5.5 0.2,0.5 0.4,2.3 0.3,2.7 z"
   id="path100" />
	<path
   class="st13"
   d="m 33.5,94 c -6.1,5.9 -4.3,10.6 -4.3,12.6 0,0.6 -3.6,2.5 -2.9,10.2 0.6,7.3 0.8,7.2 0.8,7.2 0,0 -1.8,-0.9 -3.7,-4.4 -2.5,-4.5 -1.2,-18.4 7.1,-25.3 1.3,-1 3,-0.3 3,-0.3 z"
   id="path101" />
	<path
   class="st0"
   d="m 44.8,124.6 c -0.1,0 -0.2,0 -0.3,0 -0.6,-0.1 -0.8,-0.8 -0.9,-1.3 -0.1,-0.6 -0.1,-1.3 -0.2,-1.9 -0.2,-2.1 -0.3,-4.1 -0.6,-6.2 -0.3,-2.1 -1.1,-5.8 -3,-7.1 -0.1,0 -0.1,-0.1 -0.2,-0.2 -0.2,-0.3 -0.1,-0.7 0.1,-0.9 0.1,-0.1 0.1,-0.1 0.2,-0.2 0.2,-0.2 0.4,-0.4 0.6,-0.5 0.7,-0.7 1.3,-1.4 1.9,-2.2 2.1,-2.9 3.4,-6.4 4.1,-9.9 0.1,-0.3 0,-0.7 0.3,-0.7 0.5,0 1.3,0.2 1.7,0.3 0.9,0.2 2.4,0.9 2.4,2 0,0.1 0,0.2 0,0.4 -0.2,0.8 -0.4,1.7 -0.6,2.5 -0.5,2.5 -1.1,6.6 1,8.6 0.7,0.7 1.5,1.2 2.4,1.5 0.3,0.1 0.5,0.2 0.8,0.3 0.4,0.1 0.7,0.4 0.7,0.8 0.4,3.4 0.7,6.9 0.8,10.4 0,0.4 0,0.7 -0.2,1 -0.8,1.9 -3.7,2.6 -5.5,3 -1.3,0.2 -2.6,0.3 -3.9,0.4 -0.4,-0.1 -1,-0.1 -1.6,-0.1 z"
   id="path102" />
	<path
   class="st13"
   d="m 47.3,94.2 c 0,0.2 -0.1,0.5 -0.1,0.7 -2,9.2 -7,12.6 -6.9,12.7 4.5,3.1 3.4,17 4.4,16.4 0,0 11,0.1 10.8,-3.7 -0.1,-2.8 -0.3,-5.8 -0.8,-10.3 0,-0.3 -1.7,-0.3 -3.7,-2.2 -2.6,-2.4 -1.7,-7.5 -0.6,-11.7 0.2,-1 -1.8,-1.9 -3.1,-1.9 z"
   id="path103" />
	<path
   class="st2"
   d="m 31.4,111.2 c -3.8,-5.6 4.2,-10.6 7.6,-5.3 3.1,4.8 -3.5,10.2 -7.6,5.3 z m 2.8,-1.4 c -0.2,0.1 -1.9,1 -1.8,1.1 0,0 0.6,0.9 2.1,1.2 0,-0.6 0.2,-1.9 0.1,-2.4 z m 0.4,-5.1 c -1.8,0.3 -3,1.6 -3.2,3.5 0,0 -0.1,0.8 0.4,1.8 1,-0.5 1.9,-1.1 2.9,-1.6 0,-0.9 0.2,-2.8 0.1,-3.6 z m 1.4,4 c 0.7,0.6 1.4,1.3 2.2,1.9 1.5,-2.3 0.4,-5.2 -2.4,-5.8 0,0.6 -0.2,3.3 -0.1,3.6 z m -0.3,3.4 c 0.8,-0.1 1.2,-0.3 1.9,-0.8 -0.7,-0.6 -1.3,-1.1 -2,-1.7 0,0.7 -0.2,1.8 -0.1,2.5 z"
   id="path104" />
	<path
   class="st0"
   d="m 35.3,92.1 c -0.1,0.2 0,0.7 0,0.9 0.2,0.3 1,0.6 1.3,0.8 0.9,0.4 1.9,0.5 2.9,0.6 0.4,0 0.9,0 1.3,0 0.6,-0.1 2,-0.3 2.3,-0.9 0,0 0,-0.1 0,-0.2 0,-0.2 0,-0.3 0,-0.5 0,-0.1 0,-0.2 0,-0.3 0,-0.4 0.3,-0.8 0.8,-0.8 0.8,-0.1 1.5,0.2 2.1,0.7 0.7,0.6 1,1.6 0.9,2.5 -0.1,1 -0.7,1.9 -1.5,2.6 -1.6,1.2 -3.8,1.7 -5.8,1.7 -1.6,0 -3.4,-0.2 -4.9,-0.8 -1.3,-0.5 -2.6,-1.4 -3.1,-2.8 -0.1,-0.4 -0.1,-0.7 -0.1,-1.1 0.2,-1.9 0.7,-3.2 2.8,-3.6 0.3,-0.1 0.8,-0.1 1,0.2 0.4,0.2 0.2,0.7 0,1 z m 0,0"
   id="path105" />
	<path
   class="st0"
   d="m 52,71.4 c -3.5,7.8 -8.4,16.6 -8,24.3 0.2,3.1 -6.1,3.2 -8.4,2.3 -4.6,-1.9 3,-15.3 8,-21.6 1.4,-1.8 2.8,-2.9 3.4,-3.2 2.2,-0.9 5,-1.4 5,-1.8 z"
   id="path106" />
	<path
   class="st0"
   d="m 50.6,72.8 c -0.9,0.2 -1.7,0.5 -2.6,0.8 -0.3,0.1 -0.5,0.2 -0.8,0.3 -0.4,0.2 -0.9,0.6 -1.2,0.9 -0.7,0.6 -1.4,1.3 -1.9,2.1 -1.8,2.3 -3.5,4.9 -5,7.4 -0.8,1.3 -1.5,2.7 -2.2,4.1 -0.6,1.2 -1.1,2.5 -1.5,3.8 -0.4,1.2 -1,3.7 -0.1,4.8 0.1,0.2 0.3,0.3 0.5,0.4 1,0.4 2.5,0.5 3.6,0.5 1.1,-0.1 3.9,-0.4 3.8,-2 -0.1,-2.9 0.4,-5.7 1.2,-8.5 0.9,-2.9 2.1,-5.8 3.3,-8.6 1.1,-2.1 2,-4 2.9,-6 z"
   id="path107" />
	<path
   class="st3"
   d="m 34.6,91.6 c -1.6,0.3 -1.9,1.3 -2.1,2.8 -0.3,3.7 8.6,5.2 12.5,2.3 2.1,-1.6 1.2,-4.4 -0.9,-4.2 -0.1,0 0,0.8 -0.2,1.2 -0.5,1.2 -2.8,1.5 -4.4,1.4 -2.6,-0.1 -4.8,-1.2 -5,-1.9 -0.2,-1.1 0.1,-1.6 0.1,-1.6 z"
   id="path108" />
	<path
   class="st0"
   d="m 43.2,57.1 c 5.8,0 10.5,4.7 10.5,10.5 0,5.8 -4.7,10.5 -10.5,10.5 -5.8,0 -10.5,-4.7 -10.5,-10.5 0,-5.8 4.7,-10.5 10.5,-10.5 z"
   id="path109" />
	<path
   class="st4"
   d="m 43.2,58 c -5.3,0 -9.6,4.3 -9.6,9.6 0,5.3 4.3,9.6 9.6,9.6 5.3,0 9.6,-4.3 9.6,-9.6 C 52.9,62.3 48.6,58 43.2,58 Z"
   id="path110" />
	<path
   class="st3"
   d="m 43.2,58 c -4.6,0 -8.5,3.2 -9.4,7.6 0.7,4.7 4.7,8.2 9.5,8.2 4.6,0 8.5,-3.2 9.4,-7.6 C 52.1,61.6 48.1,58 43.2,58 Z"
   id="path111" />
	<path
   class="st0"
   d="m 35.4,61.4 c -1.5,1.7 -2.1,4.9 -2.1,6.2 0,1.3 0.3,0.4 0.3,0.6 2.1,-2.1 2.8,-1.5 3.7,-0.9 1,0.6 1.2,2.6 4,3 2.8,0.4 6.4,-3.9 4.4,-6.1 -1.6,-1.7 -5.9,-3.2 -9.1,-3.1 -0.2,0.1 -1,0.3 -1.2,0.3 z"
   id="path112" />
	<path
   class="st3"
   d="m 43.1,78.2 c 0.6,0 1.4,0.1 2.3,0.3 0.7,0.2 1.5,0.4 2.2,0.8 -0.1,0.2 -0.2,0.3 -0.2,0.5 -0.6,-0.4 -1.4,-0.6 -2.1,-0.8 -1,-0.2 -1.9,-0.3 -2.5,-0.3 0.1,-0.2 0.2,-0.3 0.3,-0.5 z M 41.2,81 c -0.1,0.2 -0.3,0.4 -0.4,0.6 0.7,-0.1 1.5,0 2.4,0.2 0.9,0.2 1.9,0.6 2.8,1.2 0.1,-0.2 0.1,-0.4 0.2,-0.5 -1,-0.6 -2,-1 -2.9,-1.3 C 42.6,81 41.9,80.9 41.2,81 Z M 39,84.5 c -0.1,0.2 -0.2,0.4 -0.3,0.6 1.1,0 2.2,0.1 3.2,0.4 1,0.2 1.9,0.5 2.9,1 0.1,-0.2 0.1,-0.4 0.2,-0.5 -1,-0.4 -1.9,-0.8 -2.9,-1 -1,-0.3 -2,-0.5 -3.1,-0.5 z M 37.2,88 c -0.1,0.1 -0.1,0.2 -0.2,0.3 0,0.1 -0.1,0.1 -0.1,0.2 0.6,0.2 1.4,0.4 2.3,0.5 1.6,0.3 3.5,0.6 4.7,0.7 0,-0.2 0.1,-0.4 0.1,-0.6 -1.1,-0.1 -3.1,-0.4 -4.7,-0.7 -0.9,0 -1.6,-0.2 -2.1,-0.4 z m -1.5,3.4 c -0.1,0.2 -0.1,0.4 -0.2,0.5 0.8,0.5 2.1,0.8 3.4,1 1.6,0.2 3.2,0.2 4.4,-0.1 0,-0.2 0,-0.4 0.1,-0.6 -1.1,0.3 -2.8,0.3 -4.4,0.1 -1.3,-0.1 -2.5,-0.5 -3.3,-0.9 z"
   id="path113" />
	<path
   class="st3"
   d="m 43.2,65.3 c -0.9,0 -1.6,0.7 -1.6,1.6 0,0.9 0.7,1.6 1.6,1.6 0.9,0 1.6,-0.7 1.6,-1.6 0,-0.9 -0.7,-1.6 -1.6,-1.6 z"
   id="path114" />
	<path
   class="st0"
   d="m 43.1,72 c 0.3,0.1 1,0.1 1.3,0.1 0.8,0.1 2.1,0.1 2.4,1 0.1,0.2 0,0.5 0,0.7 -0.4,0.9 -1.8,1.6 -2.7,2 -1.4,0.7 -2.9,1.2 -4.4,1.7 -1,0.3 -2,0.6 -3,0.9 -2.4,0.7 -4.8,1.3 -7.4,1 -0.7,-0.1 -1.6,-0.4 -1.8,-1.2 -0.2,-0.7 0.1,-1.4 0.6,-1.9 0.5,-0.6 1.2,-1.2 1.8,-1.7 1.2,-1 2.9,-2.5 3.6,-3.9 0.4,-0.8 0.9,-1.7 1.5,-2.3 0.5,-0.6 1.2,-1 2,-0.9 1.3,0.1 1.9,1.6 2.3,2.7 0.3,1.4 2.6,1.1 3.8,1.8 z"
   id="path115" />
	<path
   class="st5"
   d="m 38.3,70.4 c 0.6,2.1 3.3,1.8 4.4,2.4 0.5,0.3 3.5,0.1 3.2,0.7 -0.5,1.2 -5.7,3.1 -9.5,4.2 -2.3,0.7 -4.6,1.3 -7,0.9 -2,-0.3 -1.3,-1.5 0.9,-3.3 2.3,-1.9 3.3,-3.1 3.8,-4.2 1.5,-3.2 3.3,-4 4.2,-0.7 z"
   id="path116" />
	<path
   class="st0"
   d="m 43.3,72.8 c -0.1,0.4 -0.5,0.8 -0.9,1.1 -0.6,0.4 -1.3,0.8 -1.9,1.2 -1.9,1 -4,1.9 -6,2.7 -2.1,0.8 -4.7,1.6 -6.9,1.8 -1,0.1 -3.1,0.2 -3.5,-1.1 -0.3,-1 0.6,-1.9 1.2,-2.5 0.8,-0.8 1.7,-1.5 2.6,-2.2 0.2,-0.2 0.4,-0.3 0.6,-0.5 1,-0.8 3.8,-3.1 4.4,-4.3 0.4,-0.7 0.8,-1.5 1.4,-2.1 0.5,-0.5 1.2,-0.8 1.9,-0.7 0.4,0 0.7,0.2 1,0.4 0.6,0.4 1.1,0.8 1.6,1.3 0.4,0.4 0.7,0.8 1.1,1.1 0.4,0.4 0.9,0.6 1.4,0.7 0.9,0.2 2,0 2.9,-0.1 0.6,-0.1 1.4,-0.2 1.7,0.5 0.2,0.6 -0.2,1.1 -0.6,1.4 -0.3,0.3 -0.7,0.5 -1,0.7 -0.2,0.2 -0.5,0.3 -0.7,0.5 -0.1,0 -0.2,0.1 -0.3,0.1 z"
   id="path117" />
	<path
   class="st9"
   d="m 42.2,73 c -1.6,1.4 -10,5.4 -14.7,5.7 -5.3,0.4 -1.6,-2.3 1.5,-4.8 2.3,-1.9 4.1,-3.6 4.6,-4.6 1,-2.1 2.2,-2.7 3.2,-2.1 2.5,1.7 2.5,4 7.6,3.1 2.1,-0.4 -1.6,2.1 -2.2,2.7 z"
   id="path118" />
	<path
   class="st0"
   d="m 45.1,69.3 c 1.4,0 2.5,1.1 2.5,2.5 0,1.4 -1.1,2.5 -2.5,2.5 -1.4,0 -2.5,-1.1 -2.5,-2.5 0,-1.4 1.1,-2.5 2.5,-2.5 z"
   id="path119" />
	<g
   id="g123">
		<path
   class="st3"
   d="m 45.1,69.9 c -1.1,0 -1.9,0.9 -1.9,1.9 0,1.1 0.9,1.9 1.9,1.9 1.1,0 1.9,-0.9 1.9,-1.9 0,-1 -0.8,-1.9 -1.9,-1.9 z"
   id="path120" />
		<path
   class="st0"
   d="m 46.2,70.8 c 0.6,0.6 0.6,1.5 0,2.1 -0.6,0.6 -1.5,0.6 -2.1,0 -0.6,-0.6 -0.6,-1.5 0,-2.1 0.5,-0.6 1.5,-0.6 2.1,0 z"
   id="path121" />
		<path
   class="st3"
   d="m 46,71 c -0.5,-0.5 -1.2,-0.5 -1.7,0 -0.5,0.5 -0.5,1.2 0,1.7 0.5,0.5 1.2,0.5 1.7,0 0.4,-0.5 0.4,-1.3 0,-1.7 z"
   id="path122" />
		<path
   class="st0"
   d="m 46,71 c -0.1,-0.1 -0.1,-0.1 -0.2,-0.1 l -1.7,1.7 c 0,0.1 0.1,0.1 0.1,0.2 0.1,0.1 0.1,0.1 0.2,0.1 l 1.7,-1.7 C 46.1,71.1 46,71 46,71 Z"
   id="path123" />
	</g>
	<path
   class="st0"
   d="m 43.8,65.8 c -0.4,0 -0.7,0.3 -0.7,0.7 0,0.4 0.3,0.7 0.7,0.7 0.4,0 0.7,-0.3 0.7,-0.7 0,-0.4 -0.3,-0.7 -0.7,-0.7 z"
   id="path124" />
	<path
   class="st3"
   d="m 35.3,64.3 c -0.3,-0.1 -0.8,0.3 -1,1 -0.2,0.6 -0.1,1.3 0.2,1.4 0.3,0.1 0.8,-0.3 1,-1 0.3,-0.6 0.2,-1.2 -0.2,-1.4 z"
   id="path125" />
	<path
   class="st0"
   d="m 35.4,64.8 c -0.1,0 -0.3,0.1 -0.4,0.4 -0.1,0.3 0,0.5 0.1,0.6 0.1,0 0.3,-0.1 0.4,-0.4 0.1,-0.3 0.1,-0.5 -0.1,-0.6 z"
   id="path126" />
	<path
   class="st2"
   d="m 36.1,68.8 c -1.5,2.8 -2.2,3.1 -4.8,4.9 -1.7,1.2 -3.5,2.6 -5.4,3.5 1.2,-1.8 2.9,-3.1 4.5,-4.5 2,-1.8 2.8,-2.1 3.8,-4.6 0.2,-0.5 0.8,-0.7 1.3,-0.5 0.6,0.1 0.8,0.7 0.6,1.2 z"
   id="path127" />
	<path
   class="st8"
   d="m 34.5,92.6 c -0.3,2.7 7,3.5 9.2,1.9 l 0.2,-0.1 c -1,2.3 -10.5,2.3 -10.3,-1.9 0,-0.3 0.3,-0.4 0.5,-0.4 0.3,0 0.4,0.2 0.4,0.5 z"
   id="path128" />
	<path
   class="st0"
   d="m 34,94.3 c 0.3,0 0.5,0.3 0.5,0.6 0,0.3 -0.3,0.5 -0.6,0.5 -0.3,0 -0.5,-0.3 -0.5,-0.6 0,-0.3 0.3,-0.5 0.6,-0.5 z m 11,0.4 c 0.3,0 0.5,0.3 0.5,0.6 0,0.3 -0.3,0.5 -0.6,0.5 -0.3,0 -0.5,-0.3 -0.5,-0.6 0,-0.2 0.3,-0.5 0.6,-0.5 z m -2,1.2 c 0.3,0 0.5,0.3 0.5,0.6 0,0.3 -0.3,0.5 -0.6,0.5 -0.3,0 -0.5,-0.3 -0.5,-0.6 0.1,-0.3 0.3,-0.5 0.6,-0.5 z m -2.4,0.5 c 0.3,0 0.5,0.3 0.5,0.6 0,0.3 -0.3,0.5 -0.6,0.5 -0.3,0 -0.5,-0.3 -0.5,-0.6 0.1,-0.3 0.3,-0.5 0.6,-0.5 z m -2.5,-0.2 c 0.3,0 0.5,0.3 0.5,0.6 0,0.3 -0.3,0.5 -0.6,0.5 -0.3,0 -0.5,-0.3 -0.5,-0.6 0,-0.3 0.3,-0.5 0.6,-0.5 z m -2.3,-0.8 c 0.3,0 0.5,0.3 0.5,0.6 0,0.3 -0.3,0.5 -0.6,0.5 -0.3,0 -0.5,-0.3 -0.5,-0.6 0,-0.2 0.3,-0.5 0.6,-0.5 z"
   id="path129" />
	<path
   class="st0"
   d="m 54.5,110.3 c -0.1,-0.2 -0.6,-0.7 -0.8,-0.9 -0.5,-0.5 -1.1,-1.1 -1.6,-1.6 -0.7,-0.7 -1.7,-5.4 -1.9,-7.8 -0.5,-1 -0.7,1.5 -0.6,0.4 0.1,-1.4 1.4,-4.1 0.9,-5.4 0.9,-0.2 2.8,0.3 3.8,0.5 2.5,0.7 5.1,2.6 6.8,4.1 0.7,0.6 5.7,6 5.5,6.6 -0.1,0.5 -0.6,0.6 -1.2,1.1 -0.4,0.4 -0.2,-0.5 -0.5,-0.6 -3.6,-0.8 -6.8,2.2 -9.4,4.1 -0.2,0.1 -0.4,0.2 -0.7,0.1 -0.2,-0.2 -0.3,-0.3 -0.3,-0.6 z"
   id="path130" />
	<path
   class="st10"
   d="m 55.1,110.2 c 2.1,-2.1 7.1,-4.9 10,-4 1.2,0.4 -0.3,-1.2 -1.6,-2.9 -2.1,-2.6 -5.4,-6 -9.3,-7 -0.9,-0.2 -2.6,-0.6 -3,-0.4 -0.2,0.1 -0.4,1.3 -0.6,2.5 -0.5,2.3 -0.4,5.6 0,6.4 0.7,1.6 4.4,4.6 4.5,5.4 z"
   id="path131" />
	<g
   id="g161">
		<path
   class="st0"
   d="m 32.8,144.6 c 0,-0.1 0,-0.2 0.1,-0.3 0.7,-2.6 3.1,-3.5 5.1,-1.9 1.1,0.9 1.7,2.4 1.9,3.8 0.3,1.5 0.3,3.4 0.1,4.9 -0.1,0.5 -0.4,0.8 -0.9,0.8 H 17.3 c -0.3,0 -0.5,-0.1 -0.7,-0.4 -0.2,-0.2 -0.2,-0.5 -0.2,-0.8 0.2,-0.6 0.3,-1.3 0.5,-1.9 0.7,-2.6 3.3,-3.8 5.7,-4.4 1.4,-0.4 3.3,-0.3 4.7,-0.2 1.6,0.2 3.9,0.2 5.5,0.4 z"
   id="path132" />
		<path
   class="st3"
   d="m 33.7,144.6 c -0.3,1 -0.3,1 -0.3,1 0,0 -1.5,0 -2.5,-0.1 -2.3,-0.2 -6.3,-0.6 -8.1,-0.1 -2.6,0.7 -4.5,1.8 -5,3.8 -0.5,1.9 -0.5,1.9 -0.5,1.9 H 39.2 C 40,143.7 35,139.7 33.7,144.6 Z"
   id="path133" />
		<path
   class="st0"
   d="m 27,144.3 c 1.2,0.4 2.4,0.8 3.4,1.6 1.5,1.2 2.1,2.9 2.4,4.8 0,0.1 0,0.3 0,0.4 0,0.5 -0.4,0.9 -0.9,0.9 H 17.3 c -0.3,0 -0.5,-0.1 -0.7,-0.4 -0.2,-0.2 -0.2,-0.5 -0.2,-0.8 0.2,-0.6 0.3,-1.3 0.5,-1.9 0.7,-2.6 3.3,-3.8 5.7,-4.4 1.2,-0.3 2.8,-0.3 4.1,-0.3 0.1,0.1 0.2,0.1 0.3,0.1 z"
   id="path134" />
		<path
   class="st9"
   d="m 26.7,145.2 c -1.5,0 -2.9,0 -3.8,0.2 -2.6,0.7 -4.5,1.8 -5,3.8 -0.5,1.9 -0.5,1.9 -0.5,1.9 H 32 c 0,-0.1 0,-0.1 0,-0.2 -0.7,-3.9 -2.6,-4.8 -5.3,-5.7 z"
   id="path135" />
		<path
   class="st5"
   d="m 25.5,151.1 h 6.4 c 0,-0.1 0,-0.1 0,-0.2 -0.1,-0.9 -0.3,-1.7 -0.6,-2.3 -0.9,-0.2 -2,-0.1 -3,0.2 -1.1,0.4 -2.1,1 -2.7,2.1 -0.1,0.1 -0.1,0.1 -0.1,0.2 z"
   id="path136" />
		<path
   class="st0"
   d="m 50.3,149.7 c -0.1,-0.6 -0.2,-1.1 -0.4,-1.7 -0.1,-0.6 -0.3,-1.4 0.2,-1.9 0.3,-0.4 0.7,-0.5 1.2,-0.5 1,0 1.4,1.4 1.6,2.2 0.1,0.3 0.2,0.6 0.2,0.9 l 0.4,-0.1 -0.5,-2.3 c 0,-0.2 0,-0.3 0,-0.5 0.1,-0.3 0.4,-0.6 0.7,-0.7 0.7,-0.3 1.2,0.2 1.6,0.7 0.5,0.7 0.7,2 0.7,3 2,1.5 3.9,3.1 5.7,4.8 1.9,1.8 5.4,5.5 4.5,8.4 -0.4,1.4 -1.6,2.1 -2.9,2.6 -1.9,0.7 -3.9,0.8 -5.8,-0.1 -2.4,-1.1 -4.3,-3.7 -6.1,-5.7 0,0 -0.1,-0.1 -0.1,-0.1 -0.4,-0.7 -1,-1.5 -1.5,-2.2 -0.6,-1 -1.5,-2.5 -1.2,-3.7 0.4,-1.1 0.9,-2.2 1.7,-3.1 z"
   id="path137" />
		<path
   class="st3"
   d="m 51.2,150 c -1,1 -1.5,2.3 -1.6,3.1 -0.3,1.4 1.8,3.9 2.6,5.3 3.3,3.6 5.5,7.4 11,5.6 7.7,-2.6 -4.6,-12.2 -7.8,-14.6 0,0 -0.1,-2.2 -0.6,-3 -0.5,-0.8 -0.7,-0.2 -0.7,-0.2 l 0.6,3.1 -2.1,0.5 c 0,0 -0.7,-3.3 -1.2,-3.3 -1.3,0 -0.5,1.3 -0.2,3.5 z"
   id="path138" />
		<path
   class="st0"
   d="m 61.7,153.6 c 1.9,1.3 3.7,3.1 4.6,5.2 0.6,1.6 0.6,3.3 -0.4,4.7 -0.6,0.8 -1.5,1.4 -2.5,1.7 -1.9,0.5 -3.8,0.3 -5.6,-0.4 -2.9,-1.2 -5.1,-3.8 -6.8,-6.4 -0.2,-0.3 -0.2,-0.7 0.1,-1 2.6,-3 6.3,-5 10.3,-3.9 0.2,0 0.2,0.1 0.3,0.1 z"
   id="path139" />
		<path
   class="st5"
   d="m 51.8,157.9 c 4.5,6.8 8.8,7.2 11.4,6.4 3.5,-1 4.1,-5.8 -2,-10.1 -3.6,-0.9 -7,0.9 -9.4,3.7 z"
   id="path140" />
		<path
   class="st0"
   d="m 23.3,151.3 c 0.1,-0.6 0.3,-1.1 0.5,-1.6 0.7,-1.3 1.9,-2.1 3.1,-2.5 1.2,-0.4 2.6,-0.4 3.5,-0.2 0.5,0.1 0.9,0.3 1.2,0.4 l -0.4,0.8 c -0.2,-0.1 -0.5,-0.3 -0.9,-0.3 -0.9,-0.2 -2.1,-0.2 -3.2,0.2 -1.1,0.4 -2.1,1 -2.7,2.1 -0.2,0.4 -0.3,0.8 -0.4,1.3 z"
   id="path141" />
		<path
   class="st0"
   d="m 18.7,151.4 c 0,-0.1 0,-0.3 0,-0.4 0.2,-1.6 1.2,-3.1 2.9,-4.2 1.6,-1 3.9,-1.7 6.6,-1.5 0.5,0 0.9,0.1 1.4,0.1 l -0.1,0.9 c -0.5,-0.1 -0.9,-0.1 -1.3,-0.1 -2.6,-0.1 -4.6,0.5 -6.1,1.4 -1.4,0.9 -2.3,2.2 -2.4,3.5 0,0.1 0,0.2 0,0.3 z"
   id="path142" />
		<path
   class="st0"
   d="m 59.4,164.5 c 0.5,-1.4 0.1,-2.9 -0.6,-4.3 -1.2,-2.3 -3.2,-4.3 -4,-4.9 l 0.4,-0.7 c 0.9,0.6 3.1,2.7 4.3,5.2 0.8,1.6 1.2,3.4 0.7,5 z"
   id="path143" />
		<path
   class="st0"
   d="m 63.5,164.3 c 0.5,-1.7 0.1,-3.5 -0.7,-5.1 -1.2,-2.5 -3.7,-4.9 -4.7,-5.3 l 0.6,-0.4 c 1.1,0.5 3.4,2.7 4.8,5.4 0.9,1.8 1.4,3.8 0.7,5.7 z"
   id="path144" />
		<path
   class="st0"
   d="m 38.3,147.3 c 0.1,1.3 -0.8,2.5 -2.1,2.6 -1.3,0.1 -2.5,-0.8 -2.6,-2.1 -0.1,-1.3 0.8,-2.5 2.1,-2.6 1.3,-0.1 2.5,0.8 2.6,2.1 z"
   id="path145" />
		<path
   class="st3"
   d="m 37.8,147.4 c -0.1,-1 -1,-1.7 -2,-1.6 -1,0.1 -1.7,1 -1.6,2 0.1,1 1,1.7 2,1.6 1,-0.1 1.7,-1 1.6,-2 z"
   id="path146" />
		<path
   class="st0"
   d="m 37.1,148.5 c -0.5,0.6 -1.4,0.7 -2,0.2 -0.6,-0.5 -0.7,-1.4 -0.2,-2 0.5,-0.6 1.4,-0.7 2,-0.2 0.6,0.5 0.7,1.3 0.2,2 z"
   id="path147" />
		<path
   class="st3"
   d="m 36.9,148.3 c 0.4,-0.5 0.3,-1.2 -0.2,-1.6 -0.5,-0.4 -1.2,-0.3 -1.6,0.2 -0.4,0.5 -0.3,1.2 0.2,1.6 0.5,0.4 1.2,0.3 1.6,-0.2 z"
   id="path148" />
		<path
   class="st0"
   d="m 36.9,148.3 c 0,-0.1 0.1,-0.1 0.1,-0.2 l -1.7,-1.4 c -0.1,0 -0.1,0.1 -0.2,0.2 0,0.1 -0.1,0.1 -0.1,0.2 l 1.7,1.4 c 0.1,-0.1 0.1,-0.2 0.2,-0.2 z"
   id="path149" />
		<path
   class="st0"
   d="m 52.8,152.6 c -0.1,1.4 -1,2.3 -2.1,2.2 -1.1,-0.1 -1.9,-1.3 -1.8,-2.7 0.1,-1.4 1,-2.3 2.1,-2.2 1.1,0.1 1.9,1.3 1.8,2.7 z"
   id="path150" />
		<path
   class="st3"
   d="m 52.3,152.5 c 0.1,-1 -0.6,-1.9 -1.4,-2 -0.8,-0.1 -1.5,0.7 -1.6,1.7 -0.1,1 0.6,1.9 1.4,2 0.9,0.1 1.6,-0.7 1.6,-1.7 z"
   id="path151" />
		<path
   class="st0"
   d="m 51.3,153.5 c -0.5,0.5 -1.2,0.4 -1.7,-0.2 -0.4,-0.6 -0.4,-1.6 0.1,-2.1 0.5,-0.5 1.2,-0.4 1.7,0.2 0.5,0.6 0.4,1.6 -0.1,2.1 z"
   id="path152" />
		<path
   class="st3"
   d="m 51.2,153.2 c 0.4,-0.4 0.4,-1.2 0.1,-1.7 -0.3,-0.5 -0.9,-0.6 -1.3,-0.1 -0.4,0.4 -0.4,1.2 -0.1,1.7 0.3,0.5 0.9,0.6 1.3,0.1 z"
   id="path153" />
		<path
   class="st0"
   d="m 51.2,153.2 c 0,-0.1 0.1,-0.1 0.1,-0.2 l -1.2,-1.8 c -0.1,0 -0.1,0.1 -0.1,0.1 0,0.1 -0.1,0.1 -0.1,0.2 l 1.2,1.8 z"
   id="path154" />
		<path
   class="st5"
   d="m 20.8,151.1 h 2.5 c 0.1,-0.5 0.3,-1 0.5,-1.4 0.7,-1.3 1.9,-2.1 3.1,-2.5 1,-0.3 2.2,-0.4 3.1,-0.3 -0.1,0 -0.1,-0.1 -0.2,-0.1 -0.2,0 -0.4,0 -0.6,0 -2.6,-0.1 -4.6,0.5 -6.1,1.4 -1.2,0.7 -2,1.7 -2.3,2.9 z"
   id="path155" />
		<path
   class="st9"
   d="m 58.8,163.2 c -0.3,-2.2 -2.3,-4.8 -4.9,-7.2 -0.7,0.6 -1.4,1.2 -2.1,2 0,0 0,0 0,0.1 2.5,3.8 4.9,5.5 7,6.3 0,0 0,0 0,0 0.1,-0.5 0.1,-0.9 0,-1.2 z"
   id="path156" />
		<path
   class="st9"
   d="m 62.9,162.2 c -0.2,-2.7 -2.6,-6.2 -5,-8.1 -0.8,0.1 -1.6,0.4 -2.3,0.8 1.1,0.8 2.8,2.7 3.9,4.9 0.7,1.5 1.2,3.1 0.8,4.6 0,0.1 0,0.1 0,0.2 1,0.1 1.8,0.1 2.6,-0.1 0,-0.1 0.1,-0.3 0.1,-0.5 0,-0.5 0,-1 -0.1,-1.8 z"
   id="path157" />
		<path
   class="st9"
   d="m 65.1,161.1 c -0.2,-2.8 -2.2,-4.6 -4.7,-6.9 -0.3,0 -0.6,-0.1 -0.8,-0.1 1.2,0.9 2.9,2.7 3.9,4.8 0.7,1.4 1.1,2.9 1,4.4 0,0.2 0,0.4 -0.1,0.5 0.1,-0.1 0.3,-0.2 0.4,-0.3 0.1,-0.2 0.1,-0.4 0.2,-0.6 0.1,-0.6 0.2,-1.2 0.1,-1.8 z"
   id="path158" />
		<path
   class="st9"
   d="m 51.4,145.6 c 0.6,0 1,0.6 1.2,1.2 -0.4,-1.5 -0.9,-3.7 -1.8,-6.7 l -0.2,-0.1 -0.4,0.5 -0.2,-0.2 c 0.6,2.2 1.1,3.9 1.4,5.3 z"
   id="path159" />
		<path
   class="st8"
   d="m 34.3,144.8 c 0.2,-0.4 0.4,-0.8 0.6,-1 0.6,-0.7 1.3,-0.8 2,-0.4 0.4,0.2 0.8,0.5 1.1,0.9 0,0.1 0.1,0.1 0.1,0.2 -0.1,-0.1 -0.1,-0.2 -0.2,-0.3 -0.4,-0.6 -0.8,-1.1 -1.2,-1.4 -0.8,-0.5 -1.6,-0.6 -2.2,0 -0.2,0.2 -0.4,0.5 -0.6,0.9 -0.1,0.2 -0.2,0.5 -0.3,0.8 -0.3,1 -0.3,1 -0.3,1 0,0 -1.5,0 -2.5,-0.1 -0.4,0 -0.9,-0.1 -1.5,-0.1 0.3,0.2 0.6,0.4 0.9,0.6 0.1,0.1 0.1,0.1 0.2,0.2 0.3,0 0.6,0.1 0.8,0.1 1,0.1 2.5,0.1 2.5,0.1 0,0 0,0 0.3,-1 0.2,-0.2 0.3,-0.3 0.3,-0.5 z"
   id="path160" />
		<path
   class="st8"
   d="m 60.1,153.2 c -1.9,-1.7 -3.8,-3.2 -4.8,-3.9 0,0 -0.1,-2.2 -0.6,-3 -0.1,-0.2 -0.2,-0.3 -0.3,-0.3 -0.1,0 -0.1,-0.1 -0.2,-0.1 0.6,3.6 0.6,3.6 0.6,3.6 l 0.3,0.3 3.9,3.4 c 0.4,0 0.8,0 1.1,0 z"
   id="path161" />
	</g>
	<path
   class="st0"
   d="m 34.2,62.6 c -0.3,-0.1 -0.5,-0.4 -0.6,-0.7 -0.2,-0.6 0.1,-1.1 0.4,-1.6 0.4,-0.5 1.2,-0.7 1.6,-1.2 0.3,-0.3 0.5,-0.7 0.8,-1 0.2,-0.2 0.4,-0.4 0.7,-0.5 2.2,-1.2 6.8,0.3 8.9,1.1 1.2,0.4 2.3,1.1 3.4,1.8 1.3,0.8 2.5,1.7 3.7,2.6 0.6,0.5 1.3,1.1 1.4,2 0.1,0.5 -0.1,1 -0.1,1.6 0,0.1 0.1,0.3 0.2,0.4 0.1,0.3 0.3,0.5 0.4,0.8 0.2,0.4 0.3,0.8 0.2,1.3 0,0.3 -0.2,0.7 -0.4,0.9 -0.3,0.4 -0.7,0.7 -1.2,0.7 -0.3,0 -0.6,-0.2 -0.8,-0.5 -0.6,-0.8 -1.3,-1.4 -2.1,-2 -1.3,-1.1 -2.8,-2.1 -4.2,-3 -2.4,-1.6 -5.5,-3.1 -8.4,-3.2 -1,0 -2.4,0.1 -3.3,0.6 -0.1,0 -0.3,0 -0.6,-0.1 z"
   id="path162" />
	<path
   class="st1"
   d="m 34.5,62 c 0.8,-0.4 5,-2.3 12.5,2.6 3.8,2.5 5.5,3.8 6.5,5.2 0.4,0.6 1.1,-0.3 1.2,-0.8 0.1,-0.9 -0.8,-1.8 -0.8,-2.3 -0.1,-1.4 0.6,-1.7 -1.1,-3 -1.5,-1.2 -4.6,-3.4 -6.9,-4.3 -3.2,-1.2 -6.8,-2 -8.4,-1.1 -0.6,0.3 -0.8,1 -1.4,1.5 -0.5,0.5 -1.4,0.8 -1.6,1.1 -0.6,0.8 0,1.1 0,1.1 z"
   id="path163" />
	<path
   class="st14"
   d="m 34.5,62 c 0.8,-0.4 5,-2.3 12.5,2.6 3.8,2.5 5.5,3.8 6.5,5.2 0.4,0.6 1.1,-0.3 1.2,-0.8 0,0 0,-0.1 0,-0.1 -0.3,0.2 -0.7,0.1 -1.3,-0.5 -2.1,-2 -4.2,-3.3 -8.1,-5.5 -4,-2.2 -6.7,-2.9 -8.6,-2.5 -0.9,0.2 -1.6,0.4 -2.1,0.3 -0.7,1 -0.1,1.3 -0.1,1.3 z"
   id="path164" />
	<path
   class="st0"
   d="m 54.3,69.7 c 0,-1.8 -0.1,-2.2 -1.3,-3.6 -0.4,-0.5 -0.8,-0.6 -1.2,-1.2 0.4,0.2 1.2,0.6 1.5,1 1.5,1.4 1.6,1.9 1.7,3.8 0,0.2 -0.2,0.4 -0.4,0.4 -0.2,0 -0.3,-0.2 -0.3,-0.4 z"
   id="path165" />
	<path
   class="st0"
   d="m 34.8,59.8 c 1.3,-0.6 1.6,-0.6 3.4,-0.3 -1.6,0.3 -1.9,0.2 -3.3,1 -0.2,0.1 -0.4,0 -0.5,-0.1 -0.1,-0.2 0.3,-0.5 0.4,-0.6 z"
   id="path166" />
	<path
   class="st2"
   d="m 52.2,63.2 c -0.1,0.4 0.1,0.9 0.7,1.3 0.4,0.2 0.7,0.3 1,0.3 0.1,0.2 0.1,0.3 0.1,0.5 -1.5,0.4 -2.5,-1.2 -2.2,-2.5 0.1,0.1 0.2,0.3 0.4,0.4 z M 38.7,61.3 c 0.2,0 0.4,0 0.6,0.1 0.6,-1 2.2,-1.5 2.7,0.3 0,0.1 0,0.3 -0.1,0.4 0.2,0.1 0.4,0.1 0.6,0.2 0.1,-0.5 0.1,-1 -0.1,-1.4 -1,-1.6 -3.1,-0.9 -3.7,0.4 z M 46,64 c 0.2,0.1 0.3,0.2 0.5,0.3 0.4,-1.1 2.1,-1.8 2.6,0.2 0,0.5 -0.1,1 -0.4,1.3 0.2,0.1 0.3,0.2 0.5,0.3 0.5,-0.6 0.7,-1.6 0.4,-2.3 C 48.8,62 46.5,62.5 46,64 Z m 1.7,-3.8 c -0.2,-0.1 -0.3,-0.2 -0.5,-0.3 -0.4,0.4 -1,0.5 -1.7,0.1 -0.5,-0.3 -0.7,-0.7 -0.7,-1.1 -0.2,-0.1 -0.4,-0.1 -0.5,-0.2 0,0.4 0.2,0.9 0.6,1.4 l 0.4,0.3 c 0.8,0.8 1.8,0.5 2.4,-0.2 z M 41.1,58 c -0.4,0.9 -1.5,1.6 -3.1,0.8 -0.2,-0.2 -0.3,-0.4 -0.4,-0.5 0,0 0,0 0,0 0.1,-0.1 0.3,-0.1 0.5,-0.2 0.1,0.1 0.3,0.3 0.5,0.4 0.8,0.4 1.6,0.2 1.9,-0.5 0.2,0 0.4,0 0.6,0 z"
   id="path167" />
	<path
   class="st0"
   d="m 52.3,63.2 c 0,0.2 0,0.4 0.1,0.7 0.1,0.2 0.3,0.4 0.5,0.6 0.2,0.1 0.3,0.2 0.5,0.2 0.2,0 0.3,0.1 0.4,0 h 0.1 v 0.1 c 0,0.1 0.1,0.2 0.1,0.3 0,0.1 0,0.2 0,0.3 v 0.1 h -0.1 c -0.3,0.1 -0.5,0.1 -0.7,0 -0.4,-0.1 -0.7,-0.3 -1,-0.6 -0.3,-0.3 -0.4,-0.7 -0.5,-1 -0.1,-0.3 -0.1,-0.7 0,-1 v -0.1 l 0.1,0.1 c 0.1,0.1 0.2,0.1 0.2,0.2 0.1,-0.1 0.2,0 0.3,0.1 z m -0.1,0.7 C 52.1,63.7 52.1,63.4 52.1,63.2 52,63.1 52,63.1 51.9,63.1 L 51.8,63 c 0,0.3 0,0.5 0.1,0.8 0.1,0.4 0.3,0.7 0.5,1 0.2,0.3 0.5,0.5 0.9,0.5 0.2,0 0.4,0 0.6,0 0,-0.1 0,-0.1 0,-0.2 0,-0.1 0,-0.1 -0.1,-0.2 -0.1,0 -0.3,0 -0.5,-0.1 C 53.1,64.7 53,64.7 52.8,64.5 52.5,64.4 52.3,64.2 52.2,63.9 Z M 38.8,61.3 c 0.1,0 0.1,0 0.2,0 0.1,0 0.2,0 0.3,0 0.2,-0.3 0.4,-0.5 0.7,-0.7 v 0 c 0.3,-0.1 0.5,-0.2 0.8,-0.2 0.3,0 0.6,0.1 0.8,0.3 0.2,0.2 0.4,0.5 0.5,0.9 v 0 0 c 0,0.1 0,0.1 0,0.2 0,0 0,0.1 0,0.1 0.1,0 0.1,0 0.2,0.1 0.1,0 0.1,0 0.2,0.1 0,-0.2 0.1,-0.4 0,-0.6 0,-0.2 -0.1,-0.4 -0.2,-0.6 -0.2,-0.3 -0.5,-0.6 -0.8,-0.7 -0.3,-0.1 -0.6,-0.2 -0.9,-0.1 -0.3,0 -0.6,0.1 -0.9,0.3 -0.4,0.2 -0.7,0.5 -0.9,0.9 z m 0.2,0.1 c -0.1,0 -0.2,0 -0.3,0 h -0.1 v -0.1 c 0.2,-0.4 0.5,-0.8 1,-1.1 0.3,-0.2 0.6,-0.3 1,-0.3 0.3,0 0.7,0 1,0.1 0.3,0.1 0.6,0.4 0.9,0.8 0.1,0.2 0.2,0.4 0.2,0.7 0,0.3 0,0.5 -0.1,0.8 v 0.1 h -0.1 c -0.1,0 -0.2,-0.1 -0.3,-0.1 -0.1,0 -0.2,-0.1 -0.3,-0.1 h -0.1 v -0.1 c 0,-0.1 0,-0.1 0,-0.2 0,-0.1 0,-0.1 0,-0.2 -0.1,-0.4 -0.2,-0.6 -0.4,-0.8 -0.2,-0.2 -0.4,-0.3 -0.7,-0.3 -0.2,0 -0.5,0.1 -0.7,0.2 v 0 c -0.3,0.2 -0.5,0.4 -0.7,0.7 v 0 h -0.1 c 0,0 -0.1,0 -0.2,-0.1 z m 7.1,2.6 c 0.1,0 0.1,0.1 0.2,0.1 l 0.2,0.1 c 0.1,-0.3 0.4,-0.6 0.7,-0.8 0.2,-0.1 0.5,-0.2 0.7,-0.2 0.3,0 0.5,0.1 0.7,0.2 0.3,0.2 0.5,0.6 0.7,1.1 v 0 0 c 0,0.3 0,0.5 -0.1,0.8 -0.1,0.2 -0.2,0.4 -0.3,0.5 l 0.2,0.1 0.2,0.1 c 0.2,-0.3 0.4,-0.6 0.4,-1 0.1,-0.4 0,-0.8 -0.1,-1.1 -0.2,-0.6 -0.6,-0.9 -1.1,-1 -0.2,-0.1 -0.4,-0.1 -0.6,-0.1 -0.2,0 -0.4,0.1 -0.6,0.1 -0.6,0.2 -1,0.6 -1.2,1.1 z m 0.1,0.2 C 46.1,64.1 46,64.1 45.9,64 h -0.1 v -0.1 c 0.2,-0.6 0.6,-1 1.2,-1.2 0.2,-0.1 0.4,-0.1 0.7,-0.2 0.2,0 0.5,0 0.7,0.1 0.5,0.2 0.9,0.5 1.2,1.1 0.1,0.4 0.2,0.8 0.1,1.2 -0.1,0.4 -0.2,0.8 -0.5,1.1 l -0.1,0.1 -0.2,-0.1 -0.3,-0.2 0.1,-0.1 c 0.1,-0.1 0.2,-0.3 0.3,-0.5 0.1,-0.2 0.1,-0.5 0.1,-0.7 -0.1,-0.5 -0.4,-0.8 -0.6,-1 -0.2,-0.1 -0.4,-0.2 -0.6,-0.2 -0.2,0 -0.4,0.1 -0.6,0.2 -0.3,0.2 -0.5,0.5 -0.6,0.8 v 0.1 l -0.1,-0.1 c -0.2,0 -0.3,0 -0.4,-0.1 z m 1.3,-4 c 0,0 -0.1,-0.1 -0.2,-0.1 -0.1,0 -0.1,-0.1 -0.2,-0.1 -0.2,0.2 -0.5,0.3 -0.7,0.3 -0.3,0 -0.6,-0.1 -1,-0.3 -0.3,-0.2 -0.5,-0.3 -0.6,-0.5 -0.1,-0.2 -0.2,-0.4 -0.2,-0.6 -0.1,0 -0.1,0 -0.2,-0.1 h -0.2 c 0,0.2 0.1,0.4 0.1,0.5 0.1,0.2 0.2,0.5 0.4,0.7 l 0.4,0.3 c 0,0 0,0 0.1,0 0.4,0.3 0.9,0.4 1.3,0.3 0.4,0.1 0.8,-0.1 1,-0.4 z m 0,-0.2 c 0.1,0 0.2,0.1 0.2,0.1 h 0.1 l -0.1,0.1 c 0,0 0,0 0,0.1 v 0 c -0.3,0.4 -0.7,0.6 -1.1,0.7 -0.4,0.1 -0.9,0 -1.4,-0.4 0,0 0,0 -0.1,0 0,0 -0.3,-0.3 -0.4,-0.3 v 0 C 44.5,60 44.4,59.8 44.3,59.5 44.2,59.2 44.1,59 44.1,58.8 v -0.1 h 0.1 c 0.1,0 0.2,0.1 0.3,0.1 0.1,0 0.2,0.1 0.3,0.1 h 0.1 V 59 c 0,0.2 0,0.4 0.2,0.6 0.1,0.2 0.3,0.3 0.5,0.5 0.3,0.2 0.6,0.3 0.9,0.2 0.3,0 0.5,-0.1 0.7,-0.3 v -0.1 h 0.1 c 0,0 0.1,0 0.2,0.1 z m -6.6,-1.9 c -0.1,0 -0.1,0 -0.2,0 -0.1,0 -0.2,0 -0.2,0 -0.2,0.3 -0.5,0.6 -0.8,0.6 -0.4,0.1 -0.8,0 -1.2,-0.2 v 0 c -0.1,-0.1 -0.2,-0.1 -0.3,-0.2 -0.1,-0.1 -0.1,-0.1 -0.2,-0.2 -0.1,0 -0.1,0 -0.2,0.1 -0.1,0 -0.1,0 -0.2,0.1 0,0.1 0.1,0.1 0.1,0.2 0.1,0.1 0.1,0.2 0.2,0.3 0.1,0 0.2,0.1 0.3,0.1 0.6,0.3 1.2,0.3 1.6,0.1 0.6,-0.2 0.9,-0.5 1.1,-0.9 z m -0.1,-0.2 c 0.1,0 0.2,0 0.3,0 h 0.1 V 58 c 0,0.1 0,0.1 -0.1,0.2 -0.2,0.4 -0.6,0.8 -1.1,0.9 -0.5,0.2 -1.1,0.2 -1.8,-0.1 -0.1,0 -0.2,-0.1 -0.3,-0.1 v 0 0 c -0.1,-0.1 -0.2,-0.2 -0.3,-0.3 -0.1,-0.1 -0.1,-0.2 -0.2,-0.3 v -0.1 c 0,0 0.1,0 0.1,-0.1 0.1,0 0.2,-0.1 0.2,-0.1 0.1,0 0.2,-0.1 0.3,-0.1 h 0.1 v 0 c 0.1,0.1 0.1,0.1 0.2,0.2 0.1,0.1 0.2,0.1 0.3,0.2 v 0 c 0.4,0.2 0.7,0.2 1.1,0.2 0.3,-0.1 0.6,-0.3 0.8,-0.6 v -0.1 h 0.1 c 0,0.1 0.1,0.1 0.2,0.1 z"
   id="path168" />
	<path
   class="st0"
   d="m 43.2,106.5 c 0.3,0 0.6,0.1 0.7,0.3 0.2,0.2 0.3,0.5 0.3,0.7 0,0.3 -0.1,0.6 -0.3,0.7 -0.2,0.2 -0.5,0.3 -0.7,0.3 -0.3,0 -0.6,-0.1 -0.7,-0.3 -0.2,-0.2 -0.3,-0.5 -0.3,-0.7 0,-0.3 0.1,-0.6 0.3,-0.7 0.2,-0.1 0.5,-0.3 0.7,-0.3 z m 0.6,0.6 c -0.1,-0.1 -0.3,-0.2 -0.5,-0.2 -0.2,0 -0.4,0.1 -0.5,0.2 -0.1,0.1 -0.2,0.3 -0.2,0.5 0,0.2 0.1,0.4 0.2,0.5 0.1,0.1 0.3,0.2 0.5,0.2 0.2,0 0.4,-0.1 0.5,-0.2 0.1,-0.1 0.2,-0.3 0.2,-0.5 0,-0.2 -0.1,-0.4 -0.2,-0.5 z"
   id="path169" />
	<path
   class="st14"
   d="m 53.7,76.8 c 0.2,0.1 0.4,0.2 0.6,0.4 0.8,0.4 1.8,0.7 2.8,1.5 -0.7,-1.4 -1.5,-2.1 -2.3,-2.9 -0.2,-0.2 -0.4,-0.4 -0.6,-0.6 -0.4,-0.5 -0.9,-1 -1.3,-1.8 -0.1,0.1 -0.3,0.1 -0.4,0.1 0,0.1 0,0.2 0,0.3 0,0 0,0.1 0,0.1 0,0 0,0 0,0.1 0.1,1.5 0.5,2.3 1.2,2.8 z"
   id="path170" />
	<path
   class="st14"
   d="m 53.4,77.4 c -0.1,-0.1 -0.1,-0.1 -0.2,-0.2 -0.4,-0.3 -0.7,-0.8 -0.9,-1.2 -0.2,1 -0.3,1.9 -0.4,3 0,0.2 0,0.3 0,0.5 0.5,-0.9 1,-1.5 1.5,-2.1 z"
   id="path171" />
	<path
   class="st0"
   d="m 53.4,109.1 c -2.8,-3.1 -3.8,-5.9 -2.2,-10 -0.8,4.4 -0.5,6.3 2.6,9.5 0.1,0.1 0.1,0.3 0,0.5 0,0.1 -0.2,0.1 -0.4,0 z"
   id="path172" />
	<path
   class="st0"
   d="m 19.3,97.2 c 0,-0.1 0,-0.2 0.1,-0.2 0.1,0 0.2,0 0.2,0.1 0.5,0.9 1.3,4.3 1.2,7.4 -0.1,2.1 -0.5,4.1 -1.5,5.3 -0.1,0.1 -0.2,0.1 -0.2,0 -0.1,-0.1 -0.1,-0.2 0,-0.2 1,-1.2 1.4,-3.1 1.4,-5.1 0,-3.2 -0.7,-6.4 -1.2,-7.3 z"
   id="path173" />
	<path
   class="st0"
   d="m 55.2,130 c -0.5,1.1 -0.8,2.2 -1.3,3.3 0.1,-1.5 0.3,-2.2 0.7,-3.6 0.1,-0.2 0.3,-0.2 0.4,-0.1 0.3,0.1 0.3,0.2 0.2,0.4 z"
   id="path174" />
	<g
   id="g180">
		<g
   id="g179">
			<g
   id="g178">
				
					<circle
   transform="matrix(0.3583,-0.9336,0.9336,0.3583,-72.0291,130.7522)"
   class="st0"
   cx="59.099998"
   cy="117.8"
   id="ellipse174"
   r="22.5" />
				
					<circle
   transform="matrix(0.9755,-0.2199,0.2199,0.9755,-24.4524,15.879)"
   class="st13"
   cx="59.099998"
   cy="117.8"
   id="ellipse175"
   r="21.700001" />
				<path
   class="st15"
   d="m 59.1,97.7 c 11.1,0 20.1,9 20.1,20.1 0,11.1 -9,20.1 -20.1,20.1 -11.1,0 -20.1,-9 -20.1,-20.1 0,-11.1 9,-20.1 20.1,-20.1 z"
   id="path175" />
				<path
   class="st0"
   d="m 59.1,98.4 c 10.7,0 19.3,8.7 19.3,19.3 0,10.7 -8.7,19.3 -19.3,19.3 -10.7,0 -19.3,-8.7 -19.3,-19.3 0,-10.6 8.6,-19.3 19.3,-19.3 z"
   id="path176" />
				<path
   class="st5"
   d="m 59.1,99.3 c -10.2,0 -18.4,8.2 -18.4,18.4 0,10.2 8.3,18.4 18.4,18.4 10.2,0 18.4,-8.2 18.4,-18.4 0,-10.1 -8.2,-18.4 -18.4,-18.4 z"
   id="path177" />
				<path
   class="st9"
   d="m 59.1,99.3 c -9.5,0 -17.4,7.2 -18.3,16.5 1,9.3 8.8,16.5 18.3,16.5 9.5,0 17.4,-7.2 18.3,-16.5 -0.9,-9.2 -8.8,-16.5 -18.3,-16.5 z"
   id="path178" />
			</g>
		</g>
	</g>
	<path
   class="st0"
   d="m 31.8,94.6 c 0,0 0.1,0 0.1,0 0,0 0,0.1 0,0.1 -0.9,1 -1.9,2.6 -2.7,4.2 -0.6,1.3 -1,2.6 -1,3.7 v 0 c 0,2.6 0.2,3.6 0.2,3.6 0,0 0,0.1 0,0.1 -4.2,4.7 -3.1,10.7 -1.8,17.1 l 0.1,0.4 c 0,0 0,0.1 -0.1,0.1 0,0 -0.1,0 -0.1,-0.1 l -0.1,-0.4 c -1.3,-6.5 -2.5,-12.5 1.8,-17.2 0,-0.2 -0.2,-1.3 -0.2,-3.6 v 0 c 0,-1.2 0.4,-2.5 1,-3.8 0.9,-1.6 1.9,-3.2 2.8,-4.2 z"
   id="path180" />
	<path
   class="st0"
   d="m 47.9,94.2 c 0,0 0,-0.1 0,0 0.1,-0.1 0.2,-0.1 0.2,0 0,1.9 -1.6,5.8 -1.6,5.8 0,0 -0.1,0.1 -0.1,0 0,0 -0.1,-0.1 0,-0.1 -0.1,0 1.5,-3.9 1.5,-5.7 z"
   id="path181" />
	<path
   class="st0"
   d="m 34.4,61 c 0,0 -0.1,0 -0.1,-0.1 0,0 0,-0.1 0.1,-0.1 0.7,-0.2 1.4,-0.3 2.1,-0.5 0.7,-0.1 1.4,-0.2 2.1,-0.1 0.1,0 0.2,0 0.4,0 0.1,0 0.2,0 0.4,0.1 0,0 0.1,0.1 0.1,0.1 0,0 -0.1,0.1 -0.1,0.1 -0.1,0 -0.2,0 -0.3,-0.1 -0.1,0 -0.2,0 -0.3,0 -0.7,0 -1.4,0 -2.1,0.1 -0.9,0.2 -1.6,0.4 -2.3,0.5 z m 8.1,0.6 c 0,0 -0.1,-0.1 0,-0.1 0,0 0.1,-0.1 0.1,0 0.1,0 0.2,0.1 0.3,0.1 0.1,0 0.2,0.1 0.3,0.1 0.5,0.3 1,0.6 1.5,0.8 0.5,0.3 1,0.5 1.4,0.8 0,0 0.1,0.1 0,0.1 0,0 -0.1,0.1 -0.1,0 -0.5,-0.3 -1,-0.5 -1.4,-0.8 -0.5,-0.3 -1,-0.6 -1.5,-0.8 -0.1,-0.1 -0.2,-0.1 -0.3,-0.1 -0.1,0 -0.2,-0.1 -0.3,-0.1 z m 7,4 c 0,0 -0.1,-0.1 0,-0.1 0,0 0.1,-0.1 0.1,0 0.7,0.4 1.3,0.9 1.8,1.3 0.5,0.4 0.9,0.8 1.3,1.1 1.8,1.7 1.6,2.6 1.6,2.6 0,0 -0.1,0.1 -0.1,0.1 0,0 -0.1,-0.1 -0.1,-0.1 0,0 0.2,-0.8 -1.5,-2.4 -0.3,-0.3 -0.8,-0.7 -1.3,-1.1 -0.5,-0.5 -1.1,-1 -1.8,-1.4 z"
   id="path182" />
	<path
   class="st16"
   d="m 31,133.7 c 0.1,0.5 0.1,1 0.2,1.4 0.1,0.6 0.2,1.1 0.3,1.6 l 0.3,-0.5 0.2,-0.3 0.9,0.7 0.1,0.1 0.7,-0.8 0.9,0.6 0.6,-0.8 v 0 l 0.9,0.6 v -0.1 l 0.2,-0.8 1.1,0.4 c 0,0 -0.1,-0.1 -0.4,-1.4 v 0 -0.1 c 0,0 0,-0.1 0,-0.1 l -0.1,-0.6 -0.1,-0.7 v -0.2 c -0.3,-0.1 -0.7,-0.2 -1,-0.4 -0.2,-0.1 -0.4,-0.2 -0.6,-0.2 -0.3,-0.1 -0.7,-0.3 -1,-0.5 -0.7,-0.4 -1.4,-0.8 -2.1,-1.3 -0.5,-0.4 -1,-0.8 -1.4,-1.2 0,0 -0.1,-0.1 -0.1,-0.1 0,0.3 0,0.6 0.1,0.9 0,0.3 0.1,0.6 0.1,0.9 0.1,0.8 0.2,1.6 0.3,2.4 -0.1,0.3 -0.1,0.4 -0.1,0.5 z"
   id="path183" />
	<path
   class="st17"
   d="m 59.1,100.4 c -5.4,0 -9.7,2.2 -9.7,5 0,2.7 4.4,5 9.7,5 5.4,0 9.7,-2.2 9.7,-5 0,-2.8 -4.3,-5 -9.7,-5 z"
   id="path184" />
</g>
<g
   id="g192"
   transform="translate(0,-54)">
	<path
   class="st18"
   d="m 134.6,114.4 c 0,4.3 -2.1,6.5 -6.4,6.5 h -16.9 v 25.3 H 100.8 V 76.4 h 27.4 c 4.3,0 6.4,2.1 6.4,6.4 z M 124.1,112 V 85.3 H 111.3 V 112 Z"
   id="path185" />
	<path
   class="st18"
   d="m 170,120 h -10.1 v -10.3 l -8.1,0.2 v 36.4 h -10.2 v -45.1 h 10.2 v 1.7 c 2.1,-0.4 4.2,-0.8 6.3,-1.2 2.5,-0.4 4.6,-0.7 6.3,-0.7 3.7,0 5.6,1.8 5.6,5.5 z"
   id="path186" />
	<path
   class="st18"
   d="m 205.5,140.7 c 0,3.7 -1.9,5.6 -5.7,5.6 h -18.3 c -3.8,0 -5.8,-1.9 -5.8,-5.6 v -34 c 0,-3.7 1.9,-5.6 5.8,-5.6 h 18.3 c 3.8,0 5.7,1.9 5.7,5.6 z m -10,-2.9 v -28.1 h -9.7 v 28.1 z"
   id="path187" />
	<path
   class="st18"
   d="M 232.3,146.3 H 221 c -3.8,0 -5.7,-1.9 -5.7,-5.6 v -30.8 h -4.8 v -8.7 h 4.8 V 88.9 h 10.2 v 12.2 h 6.6 v 8.7 h -6.6 v 27.7 h 6.8 z"
   id="path188" />
	<path
   class="st18"
   d="m 267.8,140.7 c 0,3.7 -1.9,5.6 -5.7,5.6 h -18.3 c -3.8,0 -5.8,-1.9 -5.8,-5.6 v -34 c 0,-3.7 1.9,-5.6 5.8,-5.6 h 18.3 c 3.8,0 5.7,1.9 5.7,5.6 z m -10.1,-2.9 V 109.7 H 248 v 28.1 z"
   id="path189" />
	<path
   class="st18"
   d="m 305.2,137.2 c 0,2.8 -0.8,5 -2.5,6.7 -1.7,1.6 -4,2.4 -6.8,2.4 H 275.1 V 76.4 h 10.2 v 26.5 c 2.4,-0.4 4.8,-0.7 7.1,-1.1 3,-0.5 5.4,-0.7 7.1,-0.7 3.7,0 5.6,1.8 5.6,5.5 v 30.6 z M 295,134.4 v -24.7 l -9.6,0.2 v 27.9 h 6.3 c 2.2,0 3.3,-1.1 3.3,-3.4 z"
   id="path190" />
	<path
   class="st18"
   d="m 342.3,140.7 c 0,3.7 -1.9,5.6 -5.7,5.6 h -18.3 c -3.8,0 -5.8,-1.9 -5.8,-5.6 v -34 c 0,-3.7 1.9,-5.6 5.8,-5.6 h 18.3 c 3.8,0 5.7,1.9 5.7,5.6 z m -10,-2.9 v -28.1 h -9.7 v 28.1 z"
   id="path191" />
	<path
   class="st18"
   d="m 399.5,146.3 h -10.1 v -36.6 l -9.6,0.2 v 36.4 h -10.2 v -36.6 l -9.6,0.2 v 36.4 H 349.8 V 101.2 H 360 v 1.7 c 2.4,-0.4 4.8,-0.8 7.1,-1.2 2.9,-0.4 5.3,-0.7 7.2,-0.7 2.4,0 3.9,0.7 4.6,2 2.5,-0.4 5,-0.8 7.5,-1.2 3.3,-0.5 5.8,-0.8 7.6,-0.8 3.7,0 5.6,1.8 5.6,5.5 v 39.8 z"
   id="path192" />
</g>
</svg>
